<svg width="1717" height="467" viewBox="0 0 1717 467" fill="none" xmlns="http://www.w3.org/2000/svg">
<path opacity="0.3" d="M1348.95 95.6172L1350.69 100.306L1355.37 102.041L1350.69 103.776L1348.95 108.464L1347.22 103.776L1342.53 102.041L1347.22 100.306L1348.95 95.6172Z" fill="#0C32B9"/>
<path opacity="0.3" d="M1299.7 16.3945L1301.43 21.0832L1306.12 22.8181L1301.43 24.5531L1299.7 29.2417L1297.96 24.5531L1293.27 22.8181L1297.96 21.0832L1299.7 16.3945Z" fill="#7F64C1"/>
<path opacity="0.3" d="M1128.41 132.024L1130.14 136.713L1134.83 138.448L1130.14 140.183L1128.41 144.872L1126.67 140.183L1121.98 138.448L1126.67 136.713L1128.41 132.024Z" fill="#FF5757"/>
<path d="M1517.13 141.395L1521.76 153.898L1534.26 158.524L1521.76 163.151L1517.13 175.654L1512.5 163.151L1500 158.524L1512.5 153.898L1517.13 141.395Z" fill="#F7FAFF"/>
<path d="M1517.13 141.395L1521.76 153.898L1534.26 158.524L1521.76 163.151L1517.13 175.654L1512.5 163.151L1500 158.524L1512.5 153.898L1517.13 141.395Z" fill="#F7FAFF"/>
<path d="M1517.13 141.395L1521.76 153.898L1534.26 158.524L1521.76 163.151L1517.13 175.654L1512.5 163.151L1500 158.524L1512.5 153.898L1517.13 141.395Z" fill="#CDD7F4"/>
<g opacity="0.8">
<path d="M1086.65 31.3857L1091.56 44.6703L1104.85 49.586L1091.56 54.5017L1086.65 67.7862L1081.73 54.5017L1068.44 49.586L1081.73 44.6703L1086.65 31.3857Z" fill="#F7FAFF"/>
<path d="M1086.65 31.3857L1091.56 44.6703L1104.85 49.586L1091.56 54.5017L1086.65 67.7862L1081.73 54.5017L1068.44 49.586L1081.73 44.6703L1086.65 31.3857Z" fill="#F7FAFF"/>
<path d="M1086.65 31.3857L1091.56 44.6703L1104.85 49.586L1091.56 54.5017L1086.65 67.7862L1081.73 54.5017L1068.44 49.586L1081.73 44.6703L1086.65 31.3857Z" fill="#EFF3F9"/>
</g>
<path d="M1661.57 102.041L1663.88 108.292L1670.13 110.605L1663.88 112.919L1661.57 119.17L1659.25 112.919L1653 110.605L1659.25 108.292L1661.57 102.041Z" fill="#F7FAFF"/>
<path d="M1661.57 102.041L1663.88 108.292L1670.13 110.605L1663.88 112.919L1661.57 119.17L1659.25 112.919L1653 110.605L1659.25 108.292L1661.57 102.041Z" fill="#F7FAFF"/>
<path d="M1661.57 102.041L1663.88 108.292L1670.13 110.605L1663.88 112.919L1661.57 119.17L1659.25 112.919L1653 110.605L1659.25 108.292L1661.57 102.041Z" fill="#E3EDFA"/>
<path d="M1676.55 416.776L1678.86 423.028L1685.11 425.341L1678.86 427.654L1676.55 433.906L1674.24 427.654L1667.98 425.341L1674.24 423.028L1676.55 416.776Z" fill="#F7FAFF"/>
<path d="M1676.55 416.776L1678.86 423.028L1685.11 425.341L1678.86 427.654L1676.55 433.906L1674.24 427.654L1667.98 425.341L1674.24 423.028L1676.55 416.776Z" fill="#F7FAFF"/>
<path d="M1676.55 416.776L1678.86 423.028L1685.11 425.341L1678.86 427.654L1676.55 433.906L1674.24 427.654L1667.98 425.341L1674.24 423.028L1676.55 416.776Z" fill="#E3EDFA"/>
<g opacity="0.3">
<path d="M1629.44 380.371L1631.58 391.077L1642.29 393.218L1631.58 395.36L1629.44 406.066L1627.3 395.36L1616.59 393.218L1627.3 391.077L1629.44 380.371Z" fill="#F7FAFF"/>
<path d="M1629.44 380.371L1631.58 391.077L1642.29 393.218L1631.58 395.36L1629.44 406.066L1627.3 395.36L1616.59 393.218L1627.3 391.077L1629.44 380.371Z" fill="#F7FAFF"/>
<path d="M1629.44 380.371L1631.58 391.077L1642.29 393.218L1631.58 395.36L1629.44 406.066L1627.3 395.36L1616.59 393.218L1627.3 391.077L1629.44 380.371Z" fill="#9983CD"/>
</g>
<g opacity="0.4">
<path d="M1106.99 279.759L1108.77 288.68L1117.69 290.465L1108.77 292.249L1106.99 301.171L1105.2 292.249L1096.28 290.465L1105.2 288.68L1106.99 279.759Z" fill="#F7FAFF"/>
<path d="M1106.99 279.759L1108.77 288.68L1117.69 290.465L1108.77 292.249L1106.99 301.171L1105.2 292.249L1096.28 290.465L1105.2 288.68L1106.99 279.759Z" fill="#F7FAFF"/>
<path d="M1106.99 279.759L1108.77 288.68L1117.69 290.465L1108.77 292.249L1106.99 301.171L1105.2 292.249L1096.28 290.465L1105.2 288.68L1106.99 279.759Z" fill="#9983CD"/>
</g>
<g opacity="0.3">
<path d="M994.579 391.395L997.181 398.428L1004.21 401.03L997.181 403.632L994.579 410.665L991.976 403.632L984.943 401.03L991.976 398.428L994.579 391.395Z" fill="#F7FAFF"/>
<path d="M994.579 391.395L997.181 398.428L1004.21 401.03L997.181 403.632L994.579 410.665L991.976 403.632L984.943 401.03L991.976 398.428L994.579 391.395Z" fill="#F7FAFF"/>
<path d="M994.579 391.395L997.181 398.428L1004.21 401.03L997.181 403.632L994.579 410.665L991.976 403.632L984.943 401.03L991.976 398.428L994.579 391.395Z" fill="#9983CD"/>
</g>
<path opacity="0.3" d="M1313.61 358.981L1316.22 366.014L1323.25 368.617L1316.22 371.219L1313.61 378.252L1311.01 371.219L1303.98 368.617L1311.01 366.014L1313.61 358.981Z" fill="#0C32B9"/>
<path opacity="0.1" d="M919.635 59.2236L920.097 66.2566L929.271 68.859L920.097 69.3203L919.635 78.4945L917.033 69.3203L910 68.859L917.033 66.2566L919.635 59.2236Z" fill="#0C32B9"/>
<path opacity="0.3" d="M1309.33 442.472L1310.78 446.379L1314.68 447.825L1310.78 449.27L1309.33 453.178L1307.89 449.27L1303.98 447.825L1307.89 446.379L1309.33 442.472Z" fill="#0C32B9"/>
<path opacity="0.2" d="M1636.94 294.753L1638.39 298.66L1642.29 300.106L1638.39 301.552L1636.94 305.459L1635.5 301.552L1631.59 300.106L1635.5 298.66L1636.94 294.753Z" fill="#0C32B9"/>
<path opacity="0.3" d="M1404.62 296.891L1406.93 303.143L1413.18 305.456L1406.93 307.769L1404.62 314.021L1402.3 307.769L1396.05 305.456L1402.3 303.143L1404.62 296.891Z" fill="#0C32B9"/>
<path opacity="0.3" d="M1407.92 55.2319L1409.56 59.6793L1414.01 61.325L1409.56 62.9707L1407.92 67.4181L1406.27 62.9707L1401.83 61.325L1406.27 59.6793L1407.92 55.2319Z" fill="#0C32B9"/>
<path opacity="0.3" d="M1289.88 32.0195L1291.52 36.4669L1295.97 38.1126L1291.52 39.7583L1289.88 44.2057L1288.23 39.7583L1283.78 38.1126L1288.23 36.4669L1289.88 32.0195Z" fill="#FF6969"/>
<path opacity="0.3" d="M1143.88 75.5405L1145.53 79.9879L1149.97 81.6336L1145.53 83.2793L1143.88 87.7267L1142.23 83.2793L1137.79 81.6336L1142.23 79.9879L1143.88 75.5405Z" fill="#FF5757"/>
<path d="M1443.3 393.883L1444.74 397.791L1448.65 399.236L1444.74 400.682L1443.3 404.589L1441.85 400.682L1437.95 399.236L1441.85 397.791L1443.3 393.883Z" fill="#F7FAFF"/>
<path d="M1443.3 393.883L1444.74 397.791L1448.65 399.236L1444.74 400.682L1443.3 404.589L1441.85 400.682L1437.95 399.236L1441.85 397.791L1443.3 393.883Z" fill="#F7FAFF"/>
<path d="M1443.3 393.883L1444.74 397.791L1448.65 399.236L1444.74 400.682L1443.3 404.589L1441.85 400.682L1437.95 399.236L1441.85 397.791L1443.3 393.883Z" fill="#A3B5E7"/>
<path d="M1529.36 32.0195L1532.65 40.9143L1541.54 44.2057L1532.65 47.497L1529.36 56.3918L1526.07 47.497L1517.17 44.2057L1526.07 40.9143L1529.36 32.0195Z" fill="#F7FAFF"/>
<path d="M1529.36 32.0195L1532.65 40.9143L1541.54 44.2057L1532.65 47.497L1529.36 56.3918L1526.07 47.497L1517.17 44.2057L1526.07 40.9143L1529.36 32.0195Z" fill="#F7FAFF"/>
<path d="M1529.36 32.0195L1532.65 40.9143L1541.54 44.2057L1532.65 47.497L1529.36 56.3918L1526.07 47.497L1517.17 44.2057L1526.07 40.9143L1529.36 32.0195Z" fill="#E3EDFA"/>
<path d="M1708.5 392.38L1710.7 398.31L1716.63 400.504L1710.7 402.698L1708.5 408.628L1706.31 402.698L1700.38 400.504L1706.31 398.31L1708.5 392.38Z" fill="#F7FAFF"/>
<path d="M1708.5 392.38L1710.7 398.31L1716.63 400.504L1710.7 402.698L1708.5 408.628L1706.31 402.698L1700.38 400.504L1706.31 398.31L1708.5 392.38Z" fill="#F7FAFF"/>
<path d="M1708.5 392.38L1710.7 398.31L1716.63 400.504L1710.7 402.698L1708.5 408.628L1706.31 402.698L1700.38 400.504L1706.31 398.31L1708.5 392.38Z" fill="#E3EDFA"/>
<path d="M1278.84 440.98L1282.13 449.875L1291.03 453.166L1282.13 456.457L1278.84 465.352L1275.55 456.457L1266.65 453.166L1275.55 449.875L1278.84 440.98Z" fill="#F7FAFF"/>
<path d="M1278.84 440.98L1282.13 449.875L1291.03 453.166L1282.13 456.457L1278.84 465.352L1275.55 456.457L1266.65 453.166L1275.55 449.875L1278.84 440.98Z" fill="#F7FAFF"/>
<path d="M1278.84 440.98L1282.13 449.875L1291.03 453.166L1282.13 456.457L1278.84 465.352L1275.55 456.457L1266.65 453.166L1275.55 449.875L1278.84 440.98Z" fill="#E3EDFA"/>
<path d="M1036.19 259.395L1038.22 269.55L1048.37 271.581L1038.22 273.612L1036.19 283.767L1034.15 273.612L1024 271.581L1034.15 269.55L1036.19 259.395Z" fill="#F7FAFF"/>
<path d="M1036.19 259.395L1038.22 269.55L1048.37 271.581L1038.22 273.612L1036.19 283.767L1034.15 273.612L1024 271.581L1034.15 269.55L1036.19 259.395Z" fill="#F7FAFF"/>
<path d="M1036.19 259.395L1038.22 269.55L1048.37 271.581L1038.22 273.612L1036.19 283.767L1034.15 273.612L1024 271.581L1034.15 269.55L1036.19 259.395Z" fill="#9983CD"/>
<g opacity="0.4">
<path d="M1048.43 158.815L1050.46 168.971L1060.61 171.002L1050.46 173.033L1048.43 183.188L1046.4 173.033L1036.24 171.002L1046.4 168.971L1048.43 158.815Z" fill="#F7FAFF"/>
<path d="M1048.43 158.815L1050.46 168.971L1060.61 171.002L1050.46 173.033L1048.43 183.188L1046.4 173.033L1036.24 171.002L1046.4 168.971L1048.43 158.815Z" fill="#F7FAFF"/>
<path d="M1048.43 158.815L1050.46 168.971L1060.61 171.002L1050.46 173.033L1048.43 183.188L1046.4 173.033L1036.24 171.002L1046.4 168.971L1048.43 158.815Z" fill="#9983CD"/>
</g>
<path d="M1273.65 368.188L1276.12 374.859L1282.79 377.328L1276.12 379.796L1273.65 386.467L1271.18 379.796L1264.51 377.328L1271.18 374.859L1273.65 368.188Z" fill="#F7FAFF"/>
<path d="M1273.65 368.188L1276.12 374.859L1282.79 377.328L1276.12 379.796L1273.65 386.467L1271.18 379.796L1264.51 377.328L1271.18 374.859L1273.65 368.188Z" fill="#F7FAFF"/>
<path d="M1273.65 368.188L1276.12 374.859L1282.79 377.328L1276.12 379.796L1273.65 386.467L1271.18 379.796L1264.51 377.328L1271.18 374.859L1273.65 368.188Z" fill="#9983CD"/>
<path opacity="0.1" d="M945.088 349.904L947.556 356.575L954.227 359.043L947.556 361.512L945.088 368.183L942.619 361.512L935.948 359.043L942.619 356.575L945.088 349.904Z" fill="#0C32B9"/>
<path opacity="0.1" d="M974.288 0.394531L976.757 7.06561L983.428 9.53413L976.757 12.0026L974.288 18.6737L971.82 12.0026L965.148 9.53413L971.82 7.06561L974.288 0.394531Z" fill="#0C32B9"/>
<path opacity="0.3" d="M1601.26 231.145L1603.72 237.816L1610.39 240.285L1603.72 242.753L1601.26 249.424L1598.79 242.753L1592.12 240.285L1598.79 237.816L1601.26 231.145Z" fill="#0C32B9"/>
<path opacity="0.3" d="M1531.72 406.725L1533.91 412.655L1539.84 414.849L1533.91 417.043L1531.72 422.973L1529.53 417.043L1523.6 414.849L1529.53 412.655L1531.72 406.725Z" fill="#0C32B9"/>
<path d="M932.846 235.395L936.316 244.772L945.693 248.242L936.316 251.712L932.846 261.089L929.376 251.712L919.999 248.242L929.376 244.772L932.846 235.395Z" fill="#F7FAFF"/>
<path d="M932.846 235.395L936.316 244.772L945.693 248.242L936.316 251.712L932.846 261.089L929.376 251.712L919.999 248.242L929.376 244.772L932.846 235.395Z" fill="#F7FAFF"/>
<path d="M932.846 235.395L936.316 244.772L945.693 248.242L936.316 251.712L932.846 261.089L929.376 251.712L919.999 248.242L929.376 244.772L932.846 235.395Z" fill="#E3EDFA"/>
<path d="M1517.12 279.395L1519.32 285.324L1525.25 287.519L1519.32 289.713L1517.12 295.643L1514.93 289.713L1509 287.519L1514.93 285.324L1517.12 279.395Z" fill="#F7FAFF"/>
<path d="M1517.12 279.395L1519.32 285.324L1525.25 287.519L1519.32 289.713L1517.12 295.643L1514.93 289.713L1509 287.519L1514.93 285.324L1517.12 279.395Z" fill="#F7FAFF"/>
<path d="M1517.12 279.395L1519.32 285.324L1525.25 287.519L1519.32 289.713L1517.12 295.643L1514.93 289.713L1509 287.519L1514.93 285.324L1517.12 279.395Z" fill="#E3EDFA"/>
<g opacity="0.4">
<path opacity="0.3" d="M308.708 411.515L307.062 407.068L302.615 405.422L307.062 403.776L308.708 399.329L310.353 403.776L314.801 405.422L310.353 407.068L308.708 411.515Z" fill="#0C32B9"/>
<path opacity="0.3" d="M426.75 434.728L425.104 430.28L420.657 428.634L425.104 426.989L426.75 422.541L428.395 426.989L432.843 428.634L428.395 430.28L426.75 434.728Z" fill="#FF6969"/>
<path opacity="0.3" d="M572.747 391.207L571.101 386.759L566.654 385.113L571.101 383.468L572.747 379.02L574.392 383.468L578.84 385.113L574.392 386.759L572.747 391.207Z" fill="#FF5757"/>
<path d="M273.329 72.8638L271.883 68.9566L267.976 67.5108L271.883 66.065L273.329 62.1578L274.774 66.065L278.682 67.5108L274.774 68.9566L273.329 72.8638Z" fill="#F7FAFF"/>
<path d="M273.329 72.8638L271.883 68.9566L267.976 67.5108L271.883 66.065L273.329 62.1578L274.774 66.065L278.682 67.5108L274.774 68.9566L273.329 72.8638Z" fill="#F7FAFF"/>
<path d="M273.329 72.8638L271.883 68.9566L267.976 67.5108L271.883 66.065L273.329 62.1578L274.774 66.065L278.682 67.5108L274.774 68.9566L273.329 72.8638Z" fill="#A3B5E7"/>
<path d="M187.268 434.728L183.977 425.833L175.082 422.541L183.977 419.25L187.268 410.355L190.559 419.25L199.454 422.541L190.559 425.833L187.268 434.728Z" fill="#F7FAFF"/>
<path d="M187.268 434.728L183.977 425.833L175.082 422.541L183.977 419.25L187.268 410.355L190.559 419.25L199.454 422.541L190.559 425.833L187.268 434.728Z" fill="#F7FAFF"/>
<path d="M187.268 434.728L183.977 425.833L175.082 422.541L183.977 419.25L187.268 410.355L190.559 419.25L199.454 422.541L190.559 425.833L187.268 434.728Z" fill="#E3EDFA"/>
<path d="M79.9882 379.056L77.794 373.126L71.8641 370.932L77.794 368.737L79.9882 362.807L82.1825 368.737L88.1123 370.932L82.1825 373.126L79.9882 379.056Z" fill="#F7FAFF"/>
<path d="M79.9882 379.056L77.794 373.126L71.8641 370.932L77.794 368.737L79.9882 362.807L82.1825 368.737L88.1123 370.932L82.1825 373.126L79.9882 379.056Z" fill="#F7FAFF"/>
<path d="M79.9882 379.056L77.794 373.126L71.8641 370.932L77.794 368.737L79.9882 362.807L82.1825 368.737L88.1123 370.932L82.1825 373.126L79.9882 379.056Z" fill="#E3EDFA"/>
<path d="M8.12299 74.3672L5.92874 68.4373L-0.00109934 66.2431L5.92874 64.0489L8.12298 58.119L10.3172 64.0489L16.2471 66.2431L10.3172 68.4373L8.12299 74.3672Z" fill="#F7FAFF"/>
<path d="M8.12299 74.3672L5.92874 68.4373L-0.00109934 66.2431L5.92874 64.0489L8.12298 58.119L10.3172 64.0489L16.2471 66.2431L10.3172 68.4373L8.12299 74.3672Z" fill="#F7FAFF"/>
<path d="M8.12299 74.3672L5.92874 68.4373L-0.00109934 66.2431L5.92874 64.0489L8.12298 58.119L10.3172 64.0489L16.2471 66.2431L10.3172 68.4373L8.12299 74.3672Z" fill="#E3EDFA"/>
<path d="M437.786 25.7671L434.494 16.8723L425.599 13.581L434.494 10.2896L437.786 1.39484L441.077 10.2896L449.972 13.581L441.077 16.8723L437.786 25.7671Z" fill="#F7FAFF"/>
<path d="M437.786 25.7671L434.494 16.8723L425.599 13.581L434.494 10.2896L437.786 1.39484L441.077 10.2896L449.972 13.581L441.077 16.8723L437.786 25.7671Z" fill="#F7FAFF"/>
<path d="M437.786 25.7671L434.494 16.8723L425.599 13.581L434.494 10.2896L437.786 1.39484L441.077 10.2896L449.972 13.581L441.077 16.8723L437.786 25.7671Z" fill="#E3EDFA"/>
<path d="M887.441 98.5591L885.41 88.404L875.255 86.373L885.41 84.3419L887.441 74.1868L889.472 84.3419L899.627 86.373L889.472 88.404L887.441 98.5591Z" fill="#F7FAFF"/>
<path d="M887.441 98.5591L885.41 88.404L875.255 86.373L885.41 84.3419L887.441 74.1868L889.472 84.3419L899.627 86.373L889.472 88.404L887.441 98.5591Z" fill="#F7FAFF"/>
<path d="M887.441 98.5591L885.41 88.404L875.255 86.373L885.41 84.3419L887.441 74.1868L889.472 84.3419L899.627 86.373L889.472 88.404L887.441 98.5591Z" fill="#9983CD"/>
<g opacity="0.4">
<path d="M668.201 307.932L666.17 297.777L656.014 295.746L666.17 293.714L668.201 283.559L670.232 293.714L680.387 295.746L670.232 297.777L668.201 307.932Z" fill="#F7FAFF"/>
<path d="M668.201 307.932L666.17 297.777L656.014 295.746L666.17 293.714L668.201 283.559L670.232 293.714L680.387 295.746L670.232 297.777L668.201 307.932Z" fill="#F7FAFF"/>
<path d="M668.201 307.932L666.17 297.777L656.014 295.746L666.17 293.714L668.201 283.559L670.232 293.714L680.387 295.746L670.232 297.777L668.201 307.932Z" fill="#9983CD"/>
</g>
<path d="M442.977 98.5591L440.508 91.888L433.837 89.4195L440.508 86.951L442.977 80.2799L445.445 86.951L452.116 89.4195L445.445 91.888L442.977 98.5591Z" fill="#F7FAFF"/>
<path d="M442.977 98.5591L440.508 91.888L433.837 89.4195L440.508 86.951L442.977 80.2799L445.445 86.951L452.116 89.4195L445.445 91.888L442.977 98.5591Z" fill="#F7FAFF"/>
<path d="M442.977 98.5591L440.508 91.888L433.837 89.4195L440.508 86.951L442.977 80.2799L445.445 86.951L452.116 89.4195L445.445 91.888L442.977 98.5591Z" fill="#9983CD"/>
<path opacity="0.1" d="M771.539 116.843L769.071 110.172L762.4 107.704L769.071 105.235L771.539 98.5641L774.008 105.235L780.679 107.704L774.008 110.172L771.539 116.843Z" fill="#0C32B9"/>
<path opacity="0.1" d="M742.339 466.353L739.87 459.681L733.199 457.213L739.87 454.744L742.339 448.073L744.807 454.744L751.479 457.213L744.807 459.681L742.339 466.353Z" fill="#0C32B9"/>
<path opacity="0.3" d="M115.371 235.602L112.903 228.931L106.232 226.462L112.903 223.994L115.371 217.323L117.84 223.994L124.511 226.462L117.84 228.931L115.371 235.602Z" fill="#0C32B9"/>
<path opacity="0.3" d="M184.906 60.022L182.712 54.0921L176.782 51.8979L182.712 49.7036L184.906 43.7738L187.1 49.7036L193.03 51.8979L187.1 54.0921L184.906 60.022Z" fill="#0C32B9"/>
</g>
</svg>
