<svg width="15" height="22" viewBox="0 0 15 22" fill="none" xmlns="http://www.w3.org/2000/svg">
<path d="M13.83 8.25453C13.7383 8.12181 13.6146 8.01315 13.4699 7.93811C13.3252 7.86308 13.1638 7.82396 13 7.8242H10V5.86815H12.2C12.4652 5.86815 12.7196 5.76511 12.9071 5.5817C13.0946 5.39828 13.2 5.14952 13.2 4.89013V0.978025C13.2 0.718637 13.0946 0.469872 12.9071 0.286457C12.7196 0.103042 12.4652 0 12.2 0H9C7.46174 0 5.98649 0.597642 4.89878 1.66145C3.81107 2.72526 3.2 4.16809 3.2 5.67255V7.8242H1C0.734784 7.8242 0.48043 7.92725 0.292893 8.11066C0.105357 8.29408 0 8.54284 0 8.80223V12.7143C0 12.9737 0.105357 13.2225 0.292893 13.4059C0.48043 13.5893 0.734784 13.6924 1 13.6924H3.2V20.5385C3.2 20.7979 3.30536 21.0467 3.49289 21.2301C3.68043 21.4135 3.93478 21.5166 4.2 21.5166H9C9.26522 21.5166 9.51957 21.4135 9.70711 21.2301C9.89464 21.0467 10 20.7979 10 20.5385V13.6924H11.4C11.6003 13.6925 11.796 13.6339 11.9618 13.5241C12.1276 13.4142 12.2559 13.2582 12.33 13.0762L13.93 9.1641C13.9904 9.016 14.0129 8.85571 13.9954 8.69718C13.978 8.53865 13.9212 8.38669 13.83 8.25453ZM10.72 11.7363H9C8.73478 11.7363 8.48043 11.8393 8.29289 12.0228C8.10536 12.2062 8 12.4549 8 12.7143V19.5605H5.2V12.7143C5.2 12.4549 5.09464 12.2062 4.90711 12.0228C4.71957 11.8393 4.46522 11.7363 4.2 11.7363H2V9.78025H4.2C4.46522 9.78025 4.71957 9.67721 4.90711 9.4938C5.09464 9.31038 5.2 9.06162 5.2 8.80223V5.67255C5.20264 4.68766 5.60384 3.74386 6.31591 3.04744C7.02798 2.35102 7.99299 1.95863 9 1.95605H11.2V3.9121H10.4C10.0614 3.86386 9.71631 3.8841 9.38605 3.97158C9.0558 4.05906 8.74741 4.21192 8.48 4.42067C8.31772 4.58684 8.19153 4.78342 8.10903 4.99858C8.02654 5.21373 7.98945 5.443 8 5.67255V8.80223C8 9.06162 8.10536 9.31038 8.29289 9.4938C8.48043 9.67721 8.73478 9.78025 9 9.78025H11.52L10.72 11.7363Z" fill="white"/>
</svg>
