<svg width="20" height="20" viewBox="0 0 20 20" fill="none" xmlns="http://www.w3.org/2000/svg">
<path d="M15.34 3.38397C15.1027 3.38397 14.8707 3.4528 14.6733 3.58176C14.476 3.71072 14.3222 3.89402 14.2313 4.10847C14.1405 4.32292 14.1168 4.5589 14.1631 4.78656C14.2094 5.01422 14.3236 5.22335 14.4915 5.38748C14.6593 5.55162 14.8731 5.66339 15.1059 5.70868C15.3387 5.75396 15.5799 5.73072 15.7992 5.64189C16.0185 5.55306 16.2059 5.40264 16.3378 5.20963C16.4696 5.01663 16.54 4.78972 16.54 4.5576C16.54 4.24633 16.4136 3.94781 16.1885 3.72772C15.9635 3.50762 15.6583 3.38397 15.34 3.38397ZM19.94 5.75079C19.9206 4.93932 19.7652 4.13646 19.48 3.37419C19.2257 2.72197 18.83 2.13139 18.32 1.64308C17.8248 1.14177 17.2196 0.757164 16.55 0.518353C15.7727 0.230971 14.9508 0.0755133 14.12 0.0586815C13.06 -5.46514e-08 12.72 0 10 0C7.28 0 6.94 -5.46514e-08 5.88 0.0586815C5.04915 0.0755133 4.22734 0.230971 3.45 0.518353C2.78168 0.759582 2.17693 1.14386 1.68 1.64308C1.16743 2.12738 0.774176 2.71934 0.53 3.37419C0.236161 4.13445 0.07721 4.9382 0.0599999 5.75079C-5.58794e-08 6.7875 0 7.12003 0 9.78025C0 12.4405 -5.58794e-08 12.773 0.0599999 13.8097C0.07721 14.6223 0.236161 15.4261 0.53 16.1863C0.774176 16.8412 1.16743 17.4331 1.68 17.9174C2.17693 18.4166 2.78168 18.8009 3.45 19.0422C4.22734 19.3295 5.04915 19.485 5.88 19.5018C6.94 19.5605 7.28 19.5605 10 19.5605C12.72 19.5605 13.06 19.5605 14.12 19.5018C14.9508 19.485 15.7727 19.3295 16.55 19.0422C17.2196 18.8033 17.8248 18.4187 18.32 17.9174C18.8322 17.4309 19.2283 16.8398 19.48 16.1863C19.7652 15.424 19.9206 14.6212 19.94 13.8097C19.94 12.773 20 12.4405 20 9.78025C20 7.12003 20 6.7875 19.94 5.75079ZM18.14 13.6924C18.1327 14.3132 18.0178 14.9283 17.8 15.5115C17.6403 15.9371 17.3839 16.3217 17.05 16.6362C16.7256 16.9595 16.3332 17.2098 15.9 17.3697C15.3037 17.5827 14.6748 17.6951 14.04 17.7023C13.04 17.7512 12.67 17.7609 10.04 17.7609C7.41 17.7609 7.04 17.7609 6.04 17.7023C5.38089 17.7143 4.72459 17.6151 4.1 17.4089C3.68578 17.2407 3.31136 16.991 3 16.6753C2.66809 16.3611 2.41484 15.9762 2.26 15.5506C2.01586 14.959 1.88044 14.33 1.86 13.6924C1.86 12.7143 1.8 12.3525 1.8 9.78025C1.8 7.20805 1.8 6.84618 1.86 5.86815C1.86448 5.23347 1.98295 4.60449 2.21 4.0099C2.38605 3.59709 2.65627 3.22911 3 2.93408C3.30381 2.5978 3.67929 2.33073 4.1 2.15166C4.70955 1.93653 5.352 1.8241 6 1.81913C7 1.81913 7.37 1.76045 10 1.76045C12.63 1.76045 13 1.76045 14 1.81913C14.6348 1.82625 15.2637 1.93869 15.86 2.15166C16.3144 2.3166 16.7223 2.58477 17.05 2.93408C17.3777 3.2345 17.6338 3.60181 17.8 4.0099C18.0223 4.60546 18.1373 5.23418 18.14 5.86815C18.19 6.84618 18.2 7.20805 18.2 9.78025C18.2 12.3525 18.19 12.7143 18.14 13.6924ZM10 4.76298C8.98581 4.76492 7.99496 5.06082 7.15265 5.6133C6.31035 6.16578 5.65438 6.95004 5.26763 7.867C4.88089 8.78395 4.78072 9.79245 4.97979 10.7651C5.17886 11.7377 5.66824 12.6307 6.38608 13.3314C7.10392 14.0321 8.01801 14.509 9.01286 14.7018C10.0077 14.8946 11.0387 14.7947 11.9755 14.4147C12.9123 14.0346 13.7129 13.3916 14.2761 12.5667C14.8394 11.7418 15.14 10.7722 15.14 9.78025C15.1413 9.12019 15.0092 8.46638 14.7512 7.85644C14.4933 7.24649 14.1146 6.69244 13.6369 6.22616C13.1592 5.75988 12.5919 5.39056 11.9678 5.13945C11.3436 4.88835 10.6749 4.7604 10 4.76298ZM10 13.0371C9.34139 13.0371 8.69757 12.8461 8.14995 12.4882C7.60234 12.1303 7.17552 11.6217 6.92348 11.0266C6.67144 10.4315 6.6055 9.77664 6.73398 9.14488C6.86247 8.51312 7.17963 7.93281 7.64533 7.47733C8.11104 7.02186 8.70439 6.71167 9.35035 6.58601C9.99631 6.46034 10.6659 6.52484 11.2743 6.77134C11.8828 7.01784 12.4029 7.43528 12.7688 7.97086C13.1347 8.50644 13.33 9.13612 13.33 9.78025C13.33 10.2079 13.2439 10.6315 13.0765 11.0266C12.9092 11.4217 12.6639 11.7808 12.3547 12.0832C12.0454 12.3856 11.6784 12.6255 11.2743 12.7892C10.8703 12.9528 10.4373 13.0371 10 13.0371Z" fill="white"/>
</svg>
