<svg width="57" height="49" viewBox="0 0 57 49" fill="none" xmlns="http://www.w3.org/2000/svg">
<path d="M1.35497 49C0.606743 49 0 48.5174 0 47.9224C0 47.3269 0.606743 46.8448 1.35497 46.8448H8.29169C8.41462 40.4435 10.5962 34.6443 14.0618 30.3974C16.2192 27.7533 18.874 25.7065 21.8451 24.4778C18.874 23.2491 16.2197 21.2023 14.0618 18.5582C10.6041 14.3215 8.42436 8.53921 8.29216 2.15524H1.35497C0.606743 2.15524 0 1.67265 0 1.07762C0 0.482597 0.606743 0 1.35497 0H55.6446C56.3937 0 57 0.482597 57 1.07762C57 1.67265 56.3937 2.15524 55.6446 2.15524H48.4383C48.3061 8.53921 46.1264 14.3215 42.6687 18.5582C40.5108 21.2023 37.856 23.2491 34.8854 24.4778C37.856 25.7069 40.5108 27.7533 42.6687 30.3974C46.1343 34.6443 48.3159 40.443 48.4388 46.8448H55.6441C56.3933 46.8448 56.9995 47.3269 56.9995 47.9224C56.9995 48.5174 56.3933 49 55.6441 49H1.35497V49ZM40.5317 16.9593C43.5487 13.2634 45.4821 8.22192 45.702 2.61118H11.0285C11.2479 8.22192 13.1823 13.2634 16.1984 16.9593C19.3323 20.7992 23.6356 23.1744 28.3652 23.1744C33.0949 23.1744 37.3987 20.7992 40.5317 16.9593ZM45.702 46.3448C45.4816 40.7341 43.5482 35.6926 40.5317 31.9967C37.3987 28.1568 33.0953 25.7816 28.3652 25.7816C23.6352 25.7816 19.3318 28.1572 16.1984 31.9967C13.1823 35.6926 11.2484 40.7341 11.0285 46.3448H45.702Z" fill="#848484"/>
</svg>
