<svg width="344" height="609" viewBox="0 0 344 609" fill="none" xmlns="http://www.w3.org/2000/svg">
<path d="M6 5C6 127 321 124.579 321 84.2896C321 44 6 29.7395 6 154C6 278.261 318.387 252 318.387 217.5C318.387 183 6 169.5 6 281C6 392.5 318.387 379.5 318.387 344.5C318.387 309.5 6 300.5 6 409.5C6 507.5 318.387 501.5 318.387 465.5C318.387 441.5 6 419.5 6 528C6 590.5 101.5 608 357 608" stroke="#F10000" stroke-width="2"/>
<circle cx="6" cy="6" r="6" fill="#F10000"/>
<circle cx="6" cy="154" r="6" fill="#F10000"/>
<circle cx="6" cy="280" r="6" fill="#F10000"/>
<circle cx="6" cy="412" r="6" fill="#F10000"/>
<circle cx="6" cy="531" r="6" fill="#F10000"/>
</svg>
