<svg width="686" height="648" viewBox="0 0 686 648" fill="none" xmlns="http://www.w3.org/2000/svg">
<path d="M6.79746 93.127C5.91486 93.7911 5.73776 95.045 6.40191 95.9276C7.06605 96.8102 8.31994 96.9873 9.20254 96.3232L6.79746 93.127ZM9.20254 96.3232C70.8065 49.967 186.868 4 340.5 4V0C186.132 0 69.1935 46.1749 6.79746 93.127L9.20254 96.3232ZM340.5 4C409.9 4 492.201 22.7373 557.095 56.9837C622.074 91.2753 669 140.761 669 202.03H673C673 138.499 624.38 87.9693 558.962 53.4461C493.458 18.8776 410.51 0 340.5 0V4ZM669 202.03C669 263.993 628.607 312.158 567.271 347.318C505.946 382.472 424.049 404.384 342.02 413.863C259.998 423.343 178.053 420.368 116.693 405.908C86.0012 398.674 60.6003 388.599 42.9197 375.883C25.2619 363.184 15.5 348.013 15.5 330.5H11.5C11.5 349.728 22.285 365.97 40.5842 379.131C58.8606 392.275 84.8269 402.507 115.776 409.801C177.697 424.394 260.127 427.354 342.48 417.837C424.826 408.32 507.304 386.304 569.26 350.789C631.206 315.279 673 266.032 673 202.03H669ZM15.5 330.5C15.5 312.976 25.2742 297.482 42.9499 284.26C60.6411 271.027 86.05 260.239 116.741 252.203C178.101 236.137 260.042 231.209 342.054 239.301C424.074 247.394 505.951 268.489 567.257 304.301C628.541 340.099 669 390.414 669 457H673C673 388.482 631.271 337.062 569.274 300.847C507.299 264.644 424.801 243.447 342.446 235.321C260.083 227.194 177.649 232.12 115.728 248.333C84.7781 256.437 58.8199 267.394 40.554 281.057C22.2727 294.732 11.5 311.284 11.5 330.5H15.5ZM669 457C669 515.867 635.208 558.202 582.402 587.6C529.534 617.032 457.821 633.343 382.698 640.032C307.608 646.719 229.289 643.778 163.331 634.833C130.354 630.36 100.496 624.39 75.6961 617.384C50.8603 610.368 31.2322 602.35 18.6184 593.842L16.3816 597.158C29.5178 606.019 49.624 614.176 74.6086 621.234C99.6291 628.302 129.677 634.305 162.794 638.796C229.024 647.779 307.642 650.732 383.052 644.017C458.429 637.304 530.778 620.917 584.348 591.095C637.98 561.237 673 517.762 673 457H669Z" fill="#F10000"/>
<circle cx="15" cy="91" r="15" fill="#F10000"/>
<circle cx="671" cy="191" r="15" fill="#F10000"/>
<circle cx="15" cy="330" r="15" fill="#F10000"/>
<circle cx="15" cy="595" r="15" fill="#F10000"/>
<circle cx="671" cy="455" r="15" fill="#F10000"/>
</svg>
