<svg width="75" height="50" viewBox="0 0 75 50" fill="none" xmlns="http://www.w3.org/2000/svg">
<path d="M58.5646 0C63.1836 0 67.017 1.54761 70.0646 4.64283C73.1598 7.69043 74.7074 11.4999 74.7074 16.0713C74.7074 20.5951 73.1598 24.4046 70.0646 27.4998C67.017 30.5951 63.1836 32.1427 58.5646 32.1427H47.0647V49.9997H40.4219V0H58.5646ZM58.5646 25.9284C61.3265 25.9284 63.6122 24.9999 65.4217 23.1427C67.2312 21.238 68.136 18.8808 68.136 16.0713C68.136 13.2142 67.2312 10.8571 65.4217 8.99995C63.6122 7.14282 61.3265 6.21425 58.5646 6.21425H47.0647V25.9284H58.5646Z" fill="#6152AA"/>
<rect width="6.76393" height="14.3313" transform="matrix(-1 -4.16877e-08 -4.58333e-08 1 6.76367 35.6675)" fill="#6152AA"/>
<rect width="6.76393" height="23.8856" transform="matrix(-1 -4.16877e-08 -4.58333e-08 1 20.291 26.1147)" fill="#6152AA"/>
<rect width="6.76393" height="33.4398" transform="matrix(-1 -4.16877e-08 -4.58333e-08 1 33.8203 16.5591)" fill="#6152AA"/>
</svg>
