<svg width="779" height="972" viewBox="0 0 779 972" fill="none" xmlns="http://www.w3.org/2000/svg">
<path opacity="0.3" d="M465.479 655.246L460.92 656.933L459.233 661.49L457.546 656.933L452.988 655.246L457.546 653.56L459.233 649.002L460.92 653.56L465.479 655.246Z" fill="#0C32B9"/>
<path opacity="0.3" d="M489.273 534.277L484.715 535.964L483.028 540.521L481.341 535.964L476.783 534.277L481.341 532.591L483.028 528.033L484.715 532.591L489.273 534.277Z" fill="#FF6969"/>
<path opacity="0.3" d="M444.662 384.662L440.104 386.349L438.417 390.906L436.73 386.349L432.171 384.662L436.73 382.976L438.417 378.418L440.104 382.976L444.662 384.662Z" fill="#FF5757"/>
<path d="M118.363 691.5L114.358 692.982L112.876 696.986L111.395 692.982L107.39 691.5L111.395 690.019L112.876 686.015L114.358 690.019L118.363 691.5Z" fill="#F7FAFF"/>
<path d="M118.363 691.5L114.358 692.982L112.876 696.986L111.395 692.982L107.39 691.5L111.395 690.019L112.876 686.015L114.358 690.019L118.363 691.5Z" fill="#F7FAFF"/>
<path d="M118.363 691.5L114.358 692.982L112.876 696.986L111.395 692.982L107.39 691.5L111.395 690.019L112.876 686.015L114.358 690.019L118.363 691.5Z" fill="#A3B5E7"/>
<path d="M489.273 779.693L480.156 783.066L476.783 792.181L473.409 783.066L464.292 779.693L473.409 776.32L476.783 767.205L480.156 776.32L489.273 779.693Z" fill="#F7FAFF"/>
<path d="M489.273 779.693L480.156 783.066L476.783 792.181L473.409 783.066L464.292 779.693L473.409 776.32L476.783 767.205L480.156 776.32L489.273 779.693Z" fill="#F7FAFF"/>
<path d="M489.273 779.693L480.156 783.066L476.783 792.181L473.409 783.066L464.292 779.693L473.409 776.32L476.783 767.205L480.156 776.32L489.273 779.693Z" fill="#E3EDFA"/>
<path d="M432.209 889.632L426.131 891.881L423.882 897.958L421.633 891.881L415.555 889.632L421.633 887.383L423.882 881.307L426.131 887.383L432.209 889.632Z" fill="#F7FAFF"/>
<path d="M432.209 889.632L426.131 891.881L423.882 897.958L421.633 891.881L415.555 889.632L421.633 887.383L423.882 881.307L426.131 887.383L432.209 889.632Z" fill="#F7FAFF"/>
<path d="M432.209 889.632L426.131 891.881L423.882 897.958L421.633 891.881L415.555 889.632L421.633 887.383L423.882 881.307L426.131 887.383L432.209 889.632Z" fill="#E3EDFA"/>
<path d="M119.902 963.278L113.824 965.526L111.575 971.603L109.326 965.526L103.248 963.278L109.326 961.029L111.575 954.952L113.824 961.029L119.902 963.278Z" fill="#F7FAFF"/>
<path d="M119.902 963.278L113.824 965.526L111.575 971.603L109.326 965.526L103.248 963.278L109.326 961.029L111.575 954.952L113.824 961.029L119.902 963.278Z" fill="#F7FAFF"/>
<path d="M119.902 963.278L113.824 965.526L111.575 971.603L109.326 965.526L103.248 963.278L109.326 961.029L111.575 954.952L113.824 961.029L119.902 963.278Z" fill="#E3EDFA"/>
<path d="M70.0898 522.967L60.9727 526.34L57.5991 535.455L54.2255 526.34L45.1083 522.967L54.2255 519.594L57.5991 510.479L60.9727 519.594L70.0898 522.967Z" fill="#F7FAFF"/>
<path d="M70.0898 522.967L60.9727 526.34L57.5991 535.455L54.2255 526.34L45.1083 522.967L54.2255 519.594L57.5991 510.479L60.9727 519.594L70.0898 522.967Z" fill="#F7FAFF"/>
<path d="M70.0898 522.967L60.9727 526.34L57.5991 535.455L54.2255 526.34L45.1083 522.967L54.2255 519.594L57.5991 510.479L60.9727 519.594L70.0898 522.967Z" fill="#E3EDFA"/>
<path d="M144.699 62.1659L134.29 64.2473L132.208 74.6541L130.127 64.2473L119.718 62.1659L130.127 60.0845L132.208 49.6777L134.29 60.0845L144.699 62.1659Z" fill="#F7FAFF"/>
<path d="M144.699 62.1659L134.29 64.2473L132.208 74.6541L130.127 64.2473L119.718 62.1659L130.127 60.0845L132.208 49.6777L134.29 60.0845L144.699 62.1659Z" fill="#F7FAFF"/>
<path d="M144.699 62.1659L134.29 64.2473L132.208 74.6541L130.127 64.2473L119.718 62.1659L130.127 60.0845L132.208 49.6777L134.29 60.0845L144.699 62.1659Z" fill="#9983CD"/>
<g opacity="0.4">
<path d="M359.305 286.843L348.896 288.924L346.814 299.331L344.732 288.924L334.323 286.843L344.732 284.761L346.814 274.354L348.896 284.761L359.305 286.843Z" fill="#F7FAFF"/>
<path d="M359.305 286.843L348.896 288.924L346.814 299.331L344.732 288.924L334.323 286.843L344.732 284.761L346.814 274.354L348.896 284.761L359.305 286.843Z" fill="#F7FAFF"/>
<path d="M359.305 286.843L348.896 288.924L346.814 299.331L344.732 288.924L334.323 286.843L344.732 284.761L346.814 274.354L348.896 284.761L359.305 286.843Z" fill="#9983CD"/>
</g>
<path d="M144.699 517.648L137.861 520.178L135.331 527.014L132.801 520.178L125.963 517.648L132.801 515.119L135.331 508.282L137.861 515.119L144.699 517.648Z" fill="#F7FAFF"/>
<path d="M144.699 517.648L137.861 520.178L135.331 527.014L132.801 520.178L125.963 517.648L132.801 515.119L135.331 508.282L137.861 515.119L144.699 517.648Z" fill="#F7FAFF"/>
<path d="M144.699 517.648L137.861 520.178L135.331 527.014L132.801 520.178L125.963 517.648L132.801 515.119L135.331 508.282L137.861 515.119L144.699 517.648Z" fill="#9983CD"/>
<path opacity="0.1" d="M163.439 180.941L156.602 183.471L154.071 190.307L151.541 183.471L144.703 180.941L151.541 178.412L154.071 171.575L156.602 178.412L163.439 180.941Z" fill="#0C32B9"/>
<path opacity="0.1" d="M521.687 210.865L514.85 213.395L512.319 220.231L509.789 213.395L502.951 210.865L509.789 208.335L512.319 201.499L514.85 208.335L521.687 210.865Z" fill="#0C32B9"/>
<path opacity="0.3" d="M285.17 853.372L278.332 855.902L275.802 862.738L273.272 855.902L266.434 853.372L273.272 850.842L275.802 844.006L278.332 850.842L285.17 853.372Z" fill="#0C32B9"/>
<path opacity="0.3" d="M105.199 782.114L99.1211 784.362L96.8721 790.439L94.623 784.362L88.5449 782.114L94.623 779.865L96.8721 773.788L99.1211 779.865L105.199 782.114Z" fill="#0C32B9"/>
<path opacity="0.3" d="M306.512 354.961L311.625 353.07L313.518 347.957L315.41 353.07L320.524 354.961L315.41 356.853L313.518 361.966L311.625 356.853L306.512 354.961Z" fill="#0C32B9"/>
<path opacity="0.3" d="M279.824 490.662L284.938 488.77L286.83 483.657L288.722 488.77L293.836 490.662L288.722 492.553L286.83 497.666L284.938 492.553L279.824 490.662Z" fill="#FF6969"/>
<path opacity="0.3" d="M329.863 658.498L334.977 656.606L336.869 651.493L338.761 656.606L343.875 658.498L338.761 660.389L336.869 665.502L334.977 660.389L329.863 658.498Z" fill="#FF5757"/>
<path d="M695.9 314.293L700.393 312.631L702.055 308.139L703.718 312.631L708.21 314.293L703.718 315.955L702.055 320.446L700.393 315.955L695.9 314.293Z" fill="#F7FAFF"/>
<path d="M695.9 314.293L700.393 312.631L702.055 308.139L703.718 312.631L708.21 314.293L703.718 315.955L702.055 320.446L700.393 315.955L695.9 314.293Z" fill="#F7FAFF"/>
<path d="M695.9 314.293L700.393 312.631L702.055 308.139L703.718 312.631L708.21 314.293L703.718 315.955L702.055 320.446L700.393 315.955L695.9 314.293Z" fill="#A3B5E7"/>
<path d="M279.824 215.358L290.052 211.575L293.836 201.349L297.62 211.575L307.848 215.358L297.62 219.142L293.836 229.367L290.052 219.142L279.824 215.358Z" fill="#F7FAFF"/>
<path d="M279.824 215.358L290.052 211.575L293.836 201.349L297.62 211.575L307.848 215.358L297.62 219.142L293.836 229.367L290.052 219.142L279.824 215.358Z" fill="#F7FAFF"/>
<path d="M279.824 215.358L290.052 211.575L293.836 201.349L297.62 211.575L307.848 215.358L297.62 219.142L293.836 229.367L290.052 219.142L279.824 215.358Z" fill="#E3EDFA"/>
<path d="M694.17 9.41757L700.988 6.89512L703.511 0.078302L706.034 6.89512L712.852 9.41757L706.034 11.94L703.511 18.7568L700.988 11.94L694.17 9.41757Z" fill="#F7FAFF"/>
<path d="M694.17 9.41757L700.988 6.89512L703.511 0.078302L706.034 6.89512L712.852 9.41757L706.034 11.94L703.511 18.7568L700.988 11.94L694.17 9.41757Z" fill="#F7FAFF"/>
<path d="M694.17 9.41757L700.988 6.89512L703.511 0.078302L706.034 6.89512L712.852 9.41757L706.034 11.94L703.511 18.7568L700.988 11.94L694.17 9.41757Z" fill="#E3EDFA"/>
<path d="M750.053 503.348L760.28 499.564L764.065 489.339L767.849 499.564L778.076 503.348L767.849 507.131L764.065 517.356L760.28 507.131L750.053 503.348Z" fill="#F7FAFF"/>
<path d="M750.053 503.348L760.28 499.564L764.065 489.339L767.849 499.564L778.076 503.348L767.849 507.131L764.065 517.356L760.28 507.131L750.053 503.348Z" fill="#F7FAFF"/>
<path d="M750.053 503.348L760.28 499.564L764.065 489.339L767.849 499.564L778.076 503.348L767.849 507.131L764.065 517.356L760.28 507.131L750.053 503.348Z" fill="#E3EDFA"/>
<path d="M541.264 782.301L552.94 779.966L555.275 768.292L557.611 779.966L569.287 782.301L557.611 784.635L555.275 796.31L552.94 784.635L541.264 782.301Z" fill="#F7FAFF"/>
<path d="M541.264 782.301L552.94 779.966L555.275 768.292L557.611 779.966L569.287 782.301L557.611 784.635L555.275 796.31L552.94 784.635L541.264 782.301Z" fill="#F7FAFF"/>
<path d="M541.264 782.301L552.94 779.966L555.275 768.292L557.611 779.966L569.287 782.301L557.611 784.635L555.275 796.31L552.94 784.635L541.264 782.301Z" fill="#9983CD"/>
<g opacity="0.4">
<path d="M425.617 768.226L437.294 765.892L439.629 754.218L441.964 765.892L453.641 768.226L441.964 770.561L439.629 782.235L437.294 770.561L425.617 768.226Z" fill="#F7FAFF"/>
<path d="M425.617 768.226L437.294 765.892L439.629 754.218L441.964 765.892L453.641 768.226L441.964 770.561L439.629 782.235L437.294 770.561L425.617 768.226Z" fill="#F7FAFF"/>
<path d="M425.617 768.226L437.294 765.892L439.629 754.218L441.964 765.892L453.641 768.226L441.964 770.561L439.629 782.235L437.294 770.561L425.617 768.226Z" fill="#9983CD"/>
</g>
<path d="M666.355 509.316L674.026 506.478L676.864 498.809L679.703 506.478L687.373 509.316L679.703 512.153L676.864 519.822L674.026 512.153L666.355 509.316Z" fill="#F7FAFF"/>
<path d="M666.355 509.316L674.026 506.478L676.864 498.809L679.703 506.478L687.373 509.316L679.703 512.153L676.864 519.822L674.026 512.153L666.355 509.316Z" fill="#F7FAFF"/>
<path d="M666.355 509.316L674.026 506.478L676.864 498.809L679.703 506.478L687.373 509.316L679.703 512.153L676.864 519.822L674.026 512.153L666.355 509.316Z" fill="#9983CD"/>
<path opacity="0.1" d="M645.33 887.024L653.001 884.186L655.839 876.517L658.677 884.186L666.348 887.024L658.677 889.861L655.839 897.53L653.001 889.861L645.33 887.024Z" fill="#0C32B9"/>
<path opacity="0.1" d="M243.461 853.454L251.131 850.617L253.97 842.948L256.808 850.617L264.479 853.454L256.808 856.292L253.97 863.961L251.131 856.292L243.461 853.454Z" fill="#0C32B9"/>
<path opacity="0.3" d="M508.781 132.707L516.452 129.869L519.29 122.201L522.128 129.869L529.799 132.707L522.128 135.545L519.29 143.214L516.452 135.545L508.781 132.707Z" fill="#0C32B9"/>
<path opacity="0.3" d="M710.668 212.643L717.486 210.121L720.009 203.304L722.532 210.121L729.35 212.643L722.532 215.166L720.009 221.982L717.486 215.166L710.668 212.643Z" fill="#0C32B9"/>
<path d="M513.668 901.096L524.45 897.107L528.44 886.327L532.43 897.107L543.212 901.096L532.43 905.085L528.44 915.865L524.45 905.085L513.668 901.096Z" fill="#F7FAFF"/>
<path d="M513.668 901.096L524.45 897.107L528.44 886.327L532.43 897.107L543.212 901.096L532.43 905.085L528.44 915.865L524.45 905.085L513.668 901.096Z" fill="#F7FAFF"/>
<path d="M513.668 901.096L524.45 897.107L528.44 886.327L532.43 897.107L543.212 901.096L532.43 905.085L528.44 915.865L524.45 905.085L513.668 901.096Z" fill="#E3EDFA"/>
<path d="M564.26 229.424L571.078 226.902L573.601 220.085L576.124 226.902L582.942 229.424L576.124 231.947L573.601 238.764L571.078 231.947L564.26 229.424Z" fill="#F7FAFF"/>
<path d="M564.26 229.424L571.078 226.902L573.601 220.085L576.124 226.902L582.942 229.424L576.124 231.947L573.601 238.764L571.078 231.947L564.26 229.424Z" fill="#F7FAFF"/>
<path d="M564.26 229.424L571.078 226.902L573.601 220.085L576.124 226.902L582.942 229.424L576.124 231.947L573.601 238.764L571.078 231.947L564.26 229.424Z" fill="#E3EDFA"/>
<path d="M399.101 871.991C317.03 871.991 250.497 864.4 250.497 855.037C250.497 845.673 317.03 838.082 399.101 838.082C481.173 838.082 547.705 845.673 547.705 855.037C547.705 864.4 481.173 871.991 399.101 871.991Z" fill="#D9D1EC"/>
<path d="M395.349 240.063C408.074 231.378 424.848 223.272 486.159 241.8C492.522 243.537 498.306 246.432 504.09 250.485C497.727 271.328 503.511 300.278 503.511 300.278C495.992 313.594 489.63 328.648 485.002 342.544C479.218 359.913 471.699 399.285 471.699 399.285C471.699 399.285 428.318 398.706 408.074 396.39C391.3 394.074 358.331 383.073 358.91 373.23C360.066 352.966 363.537 321.121 371.634 292.751C379.732 259.17 395.349 240.063 395.349 240.063Z" fill="#7F64C1"/>
<path d="M395.35 240.055C404.605 233.686 415.594 227.896 443.936 231.949C444.515 231.949 450.299 233.107 450.299 233.107C450.299 233.107 422.535 284.058 417.908 302.006C412.124 325.166 407.497 395.802 407.497 395.802C407.497 395.802 405.183 395.223 404.026 395.223C386.096 392.328 357.754 381.907 358.332 372.064C359.489 351.799 362.959 319.955 371.057 291.585C379.733 259.161 395.35 240.055 395.35 240.055Z" fill="#664EB0"/>
<path d="M340.979 303.179C340.979 303.179 363.537 271.334 372.213 259.755C376.262 254.544 391.879 236.016 411.545 231.963C417.907 230.805 430.054 240.648 428.318 256.281C423.113 269.019 387.252 316.496 369.321 324.601C356.018 330.391 340.979 303.179 340.979 303.179Z" fill="#664EB0"/>
<path d="M450.884 860.155C450.884 857.839 462.452 852.628 470.55 849.733C468.236 851.47 465.923 853.786 469.393 854.365C475.177 856.102 486.745 853.786 490.216 849.733C491.373 852.628 491.951 856.681 491.951 859.576C493.108 863.629 451.462 867.103 450.884 860.155Z" fill="#3B2B5B"/>
<path d="M469.972 854.368C465.923 853.21 468.237 850.894 471.129 849.736C476.335 847.999 480.384 846.841 480.962 846.262C483.276 845.104 483.854 842.788 483.854 842.788L486.168 842.209C486.168 842.209 490.217 848.578 490.795 849.736C487.324 854.368 475.756 856.105 469.972 854.368Z" fill="#CB7321"/>
<path d="M312.067 850.891C312.067 847.996 324.214 843.364 332.312 841.048C329.998 842.785 327.684 844.522 331.155 845.68C336.939 847.417 348.507 845.68 352.556 841.627C353.713 844.522 354.291 848.575 354.291 851.47C353.713 854.944 312.067 857.839 312.067 850.891Z" fill="#3B2B5B"/>
<path d="M331.148 845.686C327.099 844.528 329.991 842.212 332.305 841.054C337.511 839.317 341.559 838.159 342.138 838.159C344.451 837.001 345.03 834.685 345.03 834.685L347.343 834.106C347.343 834.106 351.392 840.475 351.971 841.633C348.5 845.686 336.354 847.423 331.148 845.686Z" fill="#CB7321"/>
<path d="M461.871 379.597C461.871 380.755 476.91 405.073 486.743 436.338C502.36 485.552 500.046 791.258 490.792 842.788C489.635 849.736 474.596 841.63 473.439 832.945C467.077 787.205 405.187 497.711 405.187 497.711L359.493 836.419L342.141 835.84C342.141 835.84 317.269 582.243 334.622 451.971C340.406 409.126 356.023 372.649 358.336 369.175C375.11 367.438 437 376.123 461.871 379.597Z" fill="#FF9A2E"/>
<path d="M461.871 379.594C461.871 380.752 476.91 405.07 486.743 436.335C502.36 485.549 500.046 791.255 490.792 842.785C490.213 846.259 485.008 846.259 480.38 843.364C478.645 842.206 474.596 738.567 454.352 612.347C446.833 564.87 431.216 504.077 423.696 466.442C413.285 414.333 401.138 387.121 409.236 387.7C430.637 389.437 450.882 377.857 461.871 379.594Z" fill="#FFCB49"/>
<path d="M256.525 305.483C272.142 302.009 360.639 290.43 360.639 290.43C360.639 290.43 384.932 310.694 369.315 319.379C351.962 329.222 327.669 338.486 300.484 350.065C280.818 358.75 251.32 343.697 237.438 335.591C233.389 333.275 231.654 327.485 234.546 323.432C239.173 316.484 246.692 307.799 256.525 305.483Z" fill="#664EB0"/>
<path d="M458.975 216.907C458.975 216.907 456.661 240.066 454.347 242.382C452.034 244.698 445.671 246.435 443.936 239.487C442.201 233.118 450.299 214.591 450.299 214.591L458.975 216.907Z" fill="#CB7321"/>
<path d="M456.661 233.7C452.612 234.857 448.563 229.068 446.828 222.699C447.985 218.646 446.828 222.699 447.985 219.225L458.975 215.172C458.396 218.646 457.239 229.647 456.661 233.7Z" fill="#A25812"/>
<path d="M445.09 228.483C445.09 228.483 443.933 231.957 443.933 235.431C443.933 237.747 443.354 238.905 445.668 242.379L436.413 247.011C436.413 247.011 432.943 242.379 438.727 233.694C439.884 232.536 442.776 230.799 445.09 228.483Z" fill="#FFCB48"/>
<path d="M456.661 231.958C456.661 231.958 457.818 234.274 444.515 242.38L447.985 253.381C447.985 253.381 463.024 248.749 456.661 231.958Z" fill="#FFB206"/>
<path d="M553.339 339.161C553.339 339.161 503.004 279.9 483.348 270.611C477.137 267.982 481.283 252.052 498.796 248.572C512.484 245.738 577.022 306.805 577.53 337.969C577.171 356.149 553.339 339.161 553.339 339.161Z" fill="#7F64C1"/>
<path d="M515.404 408.402C527.244 398.225 578.792 359.617 576.375 336.805C575.59 331.06 563.817 326.426 548.968 337.004C532.549 348.324 514.951 365.297 492.971 383.829C477.01 397.481 464.057 410.732 477.596 415.041C492.051 419.938 505.461 417.174 515.404 408.402Z" fill="#7F64C1"/>
<path d="M456.594 270.235L484.326 276.091L481.58 289.121L453.848 283.266L456.594 270.235Z" fill="white"/>
<path d="M463.606 220.959C463.606 220.959 473.439 224.432 481.537 216.327C490.213 208.221 493.683 191.43 492.526 186.798C490.791 182.166 477.488 161.902 459.557 161.323C441.048 160.744 433.529 200.115 442.783 208.8C452.038 217.485 463.606 220.959 463.606 220.959Z" fill="#3B2B5B"/>
<path d="M468.214 216.32C469.371 214.583 470.528 208.793 471.684 203.583C472.263 198.951 469.371 194.898 464.744 194.319C457.803 193.161 449.705 192.582 447.391 193.161C443.921 194.319 442.764 198.951 442.186 202.425C441.607 205.898 441.029 212.267 442.764 215.162C443.921 218.057 449.127 221.531 452.597 222.11C461.852 224.426 464.744 222.689 468.214 216.32Z" fill="#CB7321"/>
<path d="M456.664 189.119C456.664 189.119 461.291 213.436 471.703 215.173C482.114 216.91 488.476 201.857 481.536 193.751C474.595 185.645 456.664 189.119 456.664 189.119Z" fill="#3B2B5B"/>
<path d="M466.492 182.741C466.492 182.741 476.904 188.53 443.356 196.636C438.151 197.794 432.366 200.689 430.631 201.847C430.631 201.847 438.151 179.267 451.454 179.267C460.708 179.846 466.492 182.741 466.492 182.741Z" fill="#3B2B5B"/>
<path d="M487.321 198.382C487.321 198.382 523.182 209.382 533.015 186.802C542.848 164.221 516.241 133.535 505.83 128.903C483.851 119.639 469.39 134.693 471.126 172.906C472.861 211.119 487.321 198.382 487.321 198.382Z" fill="#3B2B5B"/>
<path d="M490.792 199.53C490.792 199.53 487.9 181.582 470.547 164.212V160.738C470.547 160.738 483.272 170.581 488.478 182.161C493.684 193.741 493.684 199.53 493.684 199.53H490.792Z" fill="#FFCB49"/>
<path d="M526.655 149.743C529.547 155.533 531.861 161.902 532.439 168.271C533.596 174.64 533.017 181.009 530.125 186.219C527.812 191.43 523.185 195.483 516.822 197.22C511.038 198.957 504.097 199.536 497.735 200.694C504.097 201.852 511.038 202.431 517.979 201.273C521.449 200.694 524.92 199.536 527.812 197.22C530.704 194.904 533.017 192.009 534.753 188.535C537.645 181.588 537.645 174.061 535.91 167.692C534.753 160.744 531.282 154.375 526.655 149.743Z" fill="#7F65C1"/>
<path d="M489.637 204.167C486.745 208.799 483.853 212.273 480.382 215.747C478.647 217.484 476.333 218.642 474.598 219.8C472.285 220.958 469.971 221.537 467.657 222.116C469.971 222.695 472.863 222.695 475.755 221.537C478.069 220.958 480.961 219.221 482.696 217.484C484.431 215.747 486.166 213.431 487.323 211.115C488.48 208.799 489.058 206.483 489.637 204.167Z" fill="#7F65C1"/>
<path d="M465.346 187.383C463.61 188.541 461.875 189.12 459.562 189.699L453.778 191.436C449.729 192.594 445.68 193.752 442.209 194.91C438.161 196.647 434.69 198.963 431.22 201.279C435.269 200.7 439.317 199.542 443.366 198.384C447.415 197.805 451.464 196.647 455.513 194.91C457.248 194.331 459.562 193.173 461.297 192.015C462.454 190.857 464.189 189.699 465.346 187.383Z" fill="#7F65C1"/>
<path d="M242.116 330.209C242.116 330.209 225.691 339.832 220.431 337.111C215.741 334.208 197.636 331.871 198.054 329.226C199.224 326.97 204.094 330.443 204.094 330.443C204.094 330.443 198.834 327.722 198.472 326.582C198.111 325.441 200.004 325.467 200.004 325.467C200.004 325.467 199.043 326.4 200.393 324.715C202.314 322.847 226.279 325.831 228.923 326.246C231.177 327.412 239.946 323.365 244.845 324.945C246.918 325.541 245.387 326.656 242.116 330.209Z" fill="#CB7321"/>
<path d="M240.246 324.773C240.246 324.773 224.449 318.863 223.212 321.022C221.388 323.705 234.315 331.125 234.315 331.125L240.246 324.773Z" fill="#CB7321"/>
<path d="M506.929 466.625L543.93 427.541L581.545 456.024L554.284 483.476L539.744 474.169L549.519 488.509L535.993 501.452L506.929 466.625Z" fill="#5449CF"/>
<path d="M537.052 511.888L579.869 467.183L581.545 456.023L554.283 483.475L539.744 474.169L549.519 488.509L502.5 462.929L529.135 501.184L537.052 511.888Z" fill="#2B218F"/>
<path fill-rule="evenodd" clip-rule="evenodd" d="M510.778 462.341L507.017 466.314L536.079 501.139L549.606 488.196L539.832 473.856L554.37 483.162L578.554 458.81C565.052 451.816 559.853 455.157 553.369 459.323C545.86 464.149 536.628 470.081 510.778 462.341Z" fill="#3B30B2"/>
<path d="M475.277 414.421C475.277 414.421 475.526 429.881 487.636 430.394C493.848 430.785 500.007 426.759 499.506 424.145C499.005 421.532 493.024 424.07 490.006 423.131C485.187 421.744 479.811 408.46 474.322 409.78C472.567 409.92 472.259 413.482 475.277 414.421Z" fill="#CB7321"/>
<path d="M480.472 413.822C477.737 411.225 477.622 406.898 480.216 404.159C482.809 401.419 487.129 401.303 489.865 403.901L531.056 443.01L521.663 452.931L480.472 413.822Z" fill="#8997DF"/>
<path d="M474.461 414.405C474.461 414.405 474.554 428.727 487.118 427.81C493.549 427.479 500.458 422.376 500.253 419.611C500.047 416.846 493.503 420.317 490.47 419.668C485.612 418.754 479.91 407.408 474.027 409.502C472.18 409.866 471.428 413.755 474.461 414.405Z" fill="#CB7321"/>
<rect width="63.8983" height="22.5876" rx="3.49494" transform="matrix(0.687537 -0.726255 0.725135 0.688496 488.018 455.619)" fill="#B0B9E8"/>
<path d="M645.745 872C609.384 872 579.908 867.783 579.908 862.581C579.908 857.379 609.384 853.162 645.745 853.162C682.106 853.162 711.582 857.379 711.582 862.581C711.582 867.783 682.106 872 645.745 872Z" fill="#D9D1EC"/>
<path d="M615.645 860.698C611.883 843.744 598.715 760.855 594.953 721.295H730.389C730.389 770.274 719.103 826.789 711.579 860.698C687.125 868.234 641.98 868.234 615.645 860.698Z" fill="#E3E7FA"/>
<ellipse cx="662.674" cy="721.294" rx="71.4803" ry="15.0706" fill="#B0B9E8"/>
<path fill-rule="evenodd" clip-rule="evenodd" d="M724.595 728.833C712.236 733.337 689.136 736.368 662.678 736.368C636.221 736.368 613.121 733.337 600.762 728.833C613.121 724.328 636.221 721.298 662.678 721.298C689.136 721.298 712.236 724.328 724.595 728.833Z" fill="#3B30B2"/>
<path d="M594.956 728.829C587.432 774.041 598.717 811.718 645.743 807.95C692.77 804.182 694.651 770.273 694.651 747.667" stroke="#B0B9E8" stroke-width="6.98987" stroke-linecap="round"/>
<path d="M587.43 725.061C579.907 770.272 591.191 807.949 638.218 804.181C685.245 800.414 694.65 766.505 694.65 743.899" stroke="white" stroke-width="6.98987" stroke-linecap="round"/>
</svg>
