<svg width="864" height="974" viewBox="0 0 864 974" fill="none" xmlns="http://www.w3.org/2000/svg">
<path opacity="0.3" d="M522.196 464.615L524.015 469.531L528.931 471.35L524.015 473.17L522.196 478.086L520.377 473.17L515.461 471.35L520.377 469.531L522.196 464.615Z" fill="#0C32B9"/>
<path opacity="0.3" d="M391.712 438.957L393.531 443.873L398.447 445.692L393.531 447.511L391.712 452.427L389.893 447.511L384.977 445.692L389.893 443.873L391.712 438.957Z" fill="#FF6969"/>
<path opacity="0.3" d="M230.331 487.066L232.15 491.982L237.066 493.802L232.15 495.621L230.331 500.537L228.512 495.621L223.596 493.802L228.512 491.982L230.331 487.066Z" fill="#FF5757"/>
<path d="M561.3 838.957L562.898 843.276L567.217 844.874L562.898 846.472L561.3 850.791L559.702 846.472L555.383 844.874L559.702 843.276L561.3 838.957Z" fill="#F7FAFF"/>
<path d="M561.3 838.957L562.898 843.276L567.217 844.874L562.898 846.472L561.3 850.791L559.702 846.472L555.383 844.874L559.702 843.276L561.3 838.957Z" fill="#F7FAFF"/>
<path d="M561.3 838.957L562.898 843.276L567.217 844.874L562.898 846.472L561.3 850.791L559.702 846.472L555.383 844.874L559.702 843.276L561.3 838.957Z" fill="#A3B5E7"/>
<path d="M656.429 438.957L660.068 448.789L669.9 452.427L660.068 456.066L656.429 465.898L652.791 456.066L642.959 452.427L652.791 448.789L656.429 438.957Z" fill="#F7FAFF"/>
<path d="M656.429 438.957L660.068 448.789L669.9 452.427L660.068 456.066L656.429 465.898L652.791 456.066L642.959 452.427L652.791 448.789L656.429 438.957Z" fill="#F7FAFF"/>
<path d="M656.429 438.957L660.068 448.789L669.9 452.427L660.068 456.066L656.429 465.898L652.791 456.066L642.959 452.427L652.791 448.789L656.429 438.957Z" fill="#E3EDFA"/>
<path d="M775.017 500.496L777.443 507.051L783.998 509.476L777.443 511.902L775.017 518.457L772.592 511.902L766.037 509.476L772.592 507.051L775.017 500.496Z" fill="#F7FAFF"/>
<path d="M775.017 500.496L777.443 507.051L783.998 509.476L777.443 511.902L775.017 518.457L772.592 511.902L766.037 509.476L772.592 507.051L775.017 500.496Z" fill="#F7FAFF"/>
<path d="M775.017 500.496L777.443 507.051L783.998 509.476L777.443 511.902L775.017 518.457L772.592 511.902L766.037 509.476L772.592 507.051L775.017 500.496Z" fill="#E3EDFA"/>
<path d="M854.455 837.295L856.88 843.85L863.435 846.275L856.88 848.701L854.455 855.255L852.029 848.701L845.475 846.275L852.029 843.85L854.455 837.295Z" fill="#F7FAFF"/>
<path d="M854.455 837.295L856.88 843.85L863.435 846.275L856.88 848.701L854.455 855.255L852.029 848.701L845.475 846.275L852.029 843.85L854.455 837.295Z" fill="#F7FAFF"/>
<path d="M854.455 837.295L856.88 843.85L863.435 846.275L856.88 848.701L854.455 855.255L852.029 848.701L845.475 846.275L852.029 843.85L854.455 837.295Z" fill="#E3EDFA"/>
<path d="M379.513 891.018L383.152 900.85L392.984 904.488L383.152 908.126L379.513 917.958L375.875 908.126L366.043 904.488L375.875 900.85L379.513 891.018Z" fill="#F7FAFF"/>
<path d="M379.513 891.018L383.152 900.85L392.984 904.488L383.152 908.126L379.513 917.958L375.875 908.126L366.043 904.488L375.875 900.85L379.513 891.018Z" fill="#F7FAFF"/>
<path d="M379.513 891.018L383.152 900.85L392.984 904.488L383.152 908.126L379.513 917.958L375.875 908.126L366.043 904.488L375.875 900.85L379.513 891.018Z" fill="#E3EDFA"/>
<g opacity="0.4">
<path d="M124.818 579.117L127.063 590.342L138.288 592.588L127.063 594.833L124.818 606.058L122.573 594.833L111.348 592.588L122.573 590.342L124.818 579.117Z" fill="#F7FAFF"/>
<path d="M124.818 579.117L127.063 590.342L138.288 592.588L127.063 594.833L124.818 606.058L122.573 594.833L111.348 592.588L122.573 590.342L124.818 579.117Z" fill="#F7FAFF"/>
<path d="M124.818 579.117L127.063 590.342L138.288 592.588L127.063 594.833L124.818 606.058L122.573 594.833L111.348 592.588L122.573 590.342L124.818 579.117Z" fill="#9983CD"/>
</g>
<path d="M373.775 810.555L376.503 817.929L383.877 820.657L376.503 823.386L373.775 830.76L371.046 823.386L363.672 820.657L371.046 817.929L373.775 810.555Z" fill="#F7FAFF"/>
<path d="M373.775 810.555L376.503 817.929L383.877 820.657L376.503 823.386L373.775 830.76L371.046 823.386L363.672 820.657L371.046 817.929L373.775 810.555Z" fill="#F7FAFF"/>
<path d="M373.775 810.555L376.503 817.929L383.877 820.657L376.503 823.386L373.775 830.76L371.046 823.386L363.672 820.657L371.046 817.929L373.775 810.555Z" fill="#9983CD"/>
<path opacity="0.1" d="M10.5872 790.344L13.3158 797.718L20.6899 800.447L13.3158 803.175L10.5872 810.549L7.85849 803.175L0.484375 800.447L7.85849 797.718L10.5872 790.344Z" fill="#0C32B9"/>
<path opacity="0.1" d="M42.8645 404L45.5932 411.374L52.9673 414.103L45.5932 416.831L42.8645 424.206L40.1358 416.831L32.7617 414.103L40.1358 411.374L42.8645 404Z" fill="#0C32B9"/>
<path opacity="0.3" d="M735.906 659.068L738.634 666.442L746.008 669.171L738.634 671.9L735.906 679.274L733.177 671.9L725.803 669.171L733.177 666.442L735.906 659.068Z" fill="#0C32B9"/>
<path opacity="0.3" d="M659.043 853.152L661.468 859.707L668.023 862.133L661.468 864.558L659.043 871.113L656.617 864.558L650.062 862.133L656.617 859.707L659.043 853.152Z" fill="#0C32B9"/>
<path opacity="0.3" d="M529.921 54.8379L531.567 59.2853L536.014 60.931L531.567 62.5766L529.921 67.024L528.276 62.5766L523.828 60.931L528.276 59.2853L529.921 54.8379Z" fill="#0C32B9"/>
<path opacity="0.3" d="M411.878 31.625L413.524 36.0724L417.971 37.7181L413.524 39.3637L411.878 43.8111L410.233 39.3637L405.785 37.7181L410.233 36.0724L411.878 31.625Z" fill="#FF6969"/>
<path opacity="0.3" d="M265.88 75.1465L267.526 79.5939L271.973 81.2395L267.526 82.8852L265.88 87.3326L264.234 82.8852L259.787 81.2395L264.234 79.5939L265.88 75.1465Z" fill="#FF5757"/>
<path d="M565.298 393.488L566.744 397.395L570.651 398.841L566.744 400.287L565.298 404.194L563.853 400.287L559.945 398.841L563.853 397.395L565.298 393.488Z" fill="#F7FAFF"/>
<path d="M565.298 393.488L566.744 397.395L570.651 398.841L566.744 400.287L565.298 404.194L563.853 400.287L559.945 398.841L563.853 397.395L565.298 393.488Z" fill="#F7FAFF"/>
<path d="M565.298 393.488L566.744 397.395L570.651 398.841L566.744 400.287L565.298 404.194L563.853 400.287L559.945 398.841L563.853 397.395L565.298 393.488Z" fill="#A3B5E7"/>
<path d="M651.36 31.625L654.651 40.5198L663.546 43.8111L654.651 47.1025L651.36 55.9973L648.069 47.1025L639.174 43.8111L648.069 40.5198L651.36 31.625Z" fill="#F7FAFF"/>
<path d="M651.36 31.625L654.651 40.5198L663.546 43.8111L654.651 47.1025L651.36 55.9973L648.069 47.1025L639.174 43.8111L648.069 40.5198L651.36 31.625Z" fill="#F7FAFF"/>
<path d="M651.36 31.625L654.651 40.5198L663.546 43.8111L654.651 47.1025L651.36 55.9973L648.069 47.1025L639.174 43.8111L648.069 40.5198L651.36 31.625Z" fill="#E3EDFA"/>
<path d="M830.505 391.986L832.699 397.916L838.629 400.11L832.699 402.305L830.505 408.234L828.311 402.305L822.381 400.11L828.311 397.916L830.505 391.986Z" fill="#F7FAFF"/>
<path d="M830.505 391.986L832.699 397.916L838.629 400.11L832.699 402.305L830.505 408.234L828.311 402.305L822.381 400.11L828.311 397.916L830.505 391.986Z" fill="#F7FAFF"/>
<path d="M830.505 391.986L832.699 397.916L838.629 400.11L832.699 402.305L830.505 408.234L828.311 402.305L822.381 400.11L828.311 397.916L830.505 391.986Z" fill="#E3EDFA"/>
<path d="M400.842 440.586L404.134 449.481L413.029 452.772L404.134 456.063L400.842 464.958L397.551 456.063L388.656 452.772L397.551 449.481L400.842 440.586Z" fill="#F7FAFF"/>
<path d="M400.842 440.586L404.134 449.481L413.029 452.772L404.134 456.063L400.842 464.958L397.551 456.063L388.656 452.772L397.551 449.481L400.842 440.586Z" fill="#F7FAFF"/>
<path d="M400.842 440.586L404.134 449.481L413.029 452.772L404.134 456.063L400.842 464.958L397.551 456.063L388.656 452.772L397.551 449.481L400.842 440.586Z" fill="#E3EDFA"/>
<path d="M158.186 259L160.217 269.155L170.372 271.186L160.217 273.217L158.186 283.372L156.155 273.217L146 271.186L156.155 269.155L158.186 259Z" fill="#F7FAFF"/>
<path d="M158.186 259L160.217 269.155L170.372 271.186L160.217 273.217L158.186 283.372L156.155 273.217L146 271.186L156.155 269.155L158.186 259Z" fill="#F7FAFF"/>
<path d="M158.186 259L160.217 269.155L170.372 271.186L160.217 273.217L158.186 283.372L156.155 273.217L146 271.186L156.155 269.155L158.186 259Z" fill="#9983CD"/>
<g opacity="0.4">
<path d="M170.428 158.422L172.459 168.577L182.614 170.608L172.459 172.639L170.428 182.794L168.397 172.639L158.242 170.608L168.397 168.577L170.428 158.422Z" fill="#F7FAFF"/>
<path d="M170.428 158.422L172.459 168.577L182.614 170.608L172.459 172.639L170.428 182.794L168.397 172.639L158.242 170.608L168.397 168.577L170.428 158.422Z" fill="#F7FAFF"/>
<path d="M170.428 158.422L172.459 168.577L182.614 170.608L172.459 172.639L170.428 182.794L168.397 172.639L158.242 170.608L168.397 168.577L170.428 158.422Z" fill="#9983CD"/>
</g>
<path d="M395.651 367.793L398.12 374.464L404.791 376.933L398.12 379.401L395.651 386.072L393.183 379.401L386.512 376.933L393.183 374.464L395.651 367.793Z" fill="#F7FAFF"/>
<path d="M395.651 367.793L398.12 374.464L404.791 376.933L398.12 379.401L395.651 386.072L393.183 379.401L386.512 376.933L393.183 374.464L395.651 367.793Z" fill="#F7FAFF"/>
<path d="M395.651 367.793L398.12 374.464L404.791 376.933L398.12 379.401L395.651 386.072L393.183 379.401L386.512 376.933L393.183 374.464L395.651 367.793Z" fill="#9983CD"/>
<path opacity="0.1" d="M67.0888 349.51L69.5573 356.181L76.2284 358.649L69.5573 361.118L67.0888 367.789L64.6203 361.118L57.9492 358.649L64.6203 356.181L67.0888 349.51Z" fill="#0C32B9"/>
<path opacity="0.1" d="M96.29 0L98.7585 6.67107L105.43 9.13959L98.7585 11.6081L96.29 18.2792L93.8215 11.6081L87.1504 9.13959L93.8215 6.67107L96.29 0Z" fill="#0C32B9"/>
<path opacity="0.3" d="M723.257 230.75L725.725 237.421L732.396 239.89L725.725 242.358L723.257 249.029L720.788 242.358L714.117 239.89L720.788 237.421L723.257 230.75Z" fill="#0C32B9"/>
<path opacity="0.3" d="M653.722 406.33L655.916 412.26L661.846 414.454L655.916 416.648L653.722 422.578L651.528 416.648L645.598 414.454L651.528 412.26L653.722 406.33Z" fill="#0C32B9"/>
<path d="M54.8472 235L58.3171 244.377L67.6944 247.847L58.3171 251.317L54.8472 260.694L51.3773 251.317L42 247.847L51.3773 244.377L54.8472 235Z" fill="#F7FAFF"/>
<path d="M54.8472 235L58.3171 244.377L67.6944 247.847L58.3171 251.317L54.8472 260.694L51.3773 251.317L42 247.847L51.3773 244.377L54.8472 235Z" fill="#F7FAFF"/>
<path d="M54.8472 235L58.3171 244.377L67.6944 247.847L58.3171 251.317L54.8472 260.694L51.3773 251.317L42 247.847L51.3773 244.377L54.8472 235Z" fill="#E3EDFA"/>
<path d="M639.124 279L641.318 284.93L647.248 287.124L641.318 289.318L639.124 295.248L636.93 289.318L631 287.124L636.93 284.93L639.124 279Z" fill="#F7FAFF"/>
<path d="M639.124 279L641.318 284.93L647.248 287.124L641.318 289.318L639.124 295.248L636.93 289.318L631 287.124L636.93 284.93L639.124 279Z" fill="#F7FAFF"/>
<path d="M639.124 279L641.318 284.93L647.248 287.124L641.318 289.318L639.124 295.248L636.93 289.318L631 287.124L636.93 284.93L639.124 279Z" fill="#E3EDFA"/>
<path opacity="0.7" d="M222.138 973.774C140.634 973.774 74.5621 966.111 74.5621 956.658C74.5621 947.206 140.634 939.543 222.138 939.543C303.643 939.543 369.715 947.206 369.715 956.658C369.715 966.111 303.643 973.774 222.138 973.774Z" fill="#C5B9E6"/>
<path d="M317.863 961.254C317.863 958.301 307.021 952.887 300.122 951.41C302.093 952.395 304.064 954.363 301.107 955.348C296.672 956.332 287.308 954.855 284.352 951.902C283.366 954.363 282.873 957.316 282.873 959.777C283.366 962.238 317.371 963.715 317.863 961.254Z" fill="#30193B"/>
<path d="M301.103 955.351C304.06 954.367 305.046 952.398 300.61 951.906C296.668 951.414 293.218 949.937 292.725 949.445C290.754 948.461 290.261 945.508 290.261 945.508H286.811C286.811 945.508 285.333 951.414 284.84 952.398C287.304 954.859 296.668 956.336 301.103 955.351Z" fill="#FF97A6"/>
<path d="M158.674 959.779C158.674 956.334 170.009 951.904 176.908 950.92C174.937 951.904 172.473 953.873 175.43 954.365C179.865 955.842 189.229 954.857 192.186 951.904C193.171 954.365 193.171 957.318 193.171 959.779C192.679 962.24 158.674 962.24 158.674 959.779Z" fill="#30193B"/>
<path d="M175.433 954.361C172.476 953.377 171.49 951.408 176.419 950.916C180.361 950.424 183.811 948.947 184.304 948.947C186.275 947.963 187.261 945.01 187.261 945.01H190.71C190.71 945.01 191.696 950.916 192.189 951.9C189.232 954.853 179.375 955.838 175.433 954.361Z" fill="#FF97A6"/>
<path d="M140.936 514.86C155.227 484.837 175.926 464.166 181.347 461.705C187.754 465.15 202.538 470.072 221.759 474.009C247.878 479.423 264.634 478.931 268.577 478.931C273.998 481.884 280.405 503.54 291.739 534.547C320.816 613.296 290.754 947.976 290.754 947.976L286.318 946.991C286.318 946.991 260.692 802.784 239.993 699.919C227.18 634.459 209.438 571.46 208.945 570.968C200.074 599.515 201.553 887.438 192.682 938.132C191.204 946.499 187.754 951.913 187.754 944.531C186.768 892.852 104.959 590.655 140.936 514.86Z" fill="#FF97A6"/>
<path d="M269.56 475.974C269.56 475.974 303.072 532.082 311.942 584.253C320.813 636.424 300.607 799.827 300.607 799.827C259.21 817.545 162.124 801.303 162.124 801.303C162.124 801.303 147.339 733.875 141.425 683.673C136.004 633.963 125.655 593.604 134.033 540.449C141.425 493.2 171.98 470.068 177.894 463.67C178.387 462.685 175.923 454.811 175.923 454.811L219.292 463.67L269.56 475.974Z" fill="#FFCB49"/>
<path d="M269.563 475.98C269.563 475.98 303.075 532.088 311.946 584.259C320.817 636.43 300.611 799.833 300.611 799.833C282.869 807.215 254.286 808.692 228.166 807.707C227.18 807.707 225.209 807.707 225.209 807.707C225.209 807.707 204.018 642.828 204.018 587.212C204.018 518.8 219.788 463.184 219.788 463.184L269.563 475.98Z" fill="#FF9A2E"/>
<path d="M227.392 356.38C227.392 356.38 185.994 301.256 239.712 295.35C239.712 295.35 248.583 252.038 289.98 256.96C289.98 256.96 315.607 261.882 307.722 290.92C307.722 290.92 331.87 298.303 317.578 324.881C317.578 324.881 351.583 306.178 371.789 340.63C391.995 375.083 355.033 408.058 355.033 408.058C355.033 408.058 385.095 412.488 370.803 443.003C348.626 489.76 270.267 462.198 270.267 462.198L227.392 356.38Z" fill="#3B2B5B"/>
<path d="M215.568 335.701C213.596 331.272 212.118 326.842 211.625 321.92C211.132 316.999 211.625 312.077 213.596 307.647C216.06 303.218 220.003 299.772 224.931 297.804C229.367 295.835 234.295 294.851 239.223 294.359L237.745 295.343C239.223 289.437 241.194 284.023 244.151 278.609C247.108 273.195 251.051 268.765 255.486 264.828C259.922 260.89 265.836 257.937 271.749 256.461C277.663 254.492 283.577 254.984 289.984 254.984C293.926 255.969 297.376 257.445 300.826 259.906C303.783 262.367 306.74 265.32 308.711 268.765C310.19 272.211 311.175 276.148 311.175 280.085C311.175 282.054 310.682 284.023 310.682 285.992C310.19 287.96 309.697 289.929 309.697 291.405L308.218 288.945C311.668 290.421 315.118 292.39 317.582 294.851C320.046 297.312 322.51 300.757 323.496 304.694C324.482 308.632 323.989 312.077 323.003 316.014C322.51 317.983 322.017 319.46 321.525 320.936L319.06 325.858L316.596 323.889C321.525 321.428 326.946 319.952 332.367 319.46C337.788 318.967 343.209 318.967 348.137 320.444C353.065 321.92 357.994 324.381 361.936 328.319C363.907 329.795 365.386 332.256 367.357 334.225C368.836 336.194 370.314 338.654 371.793 340.623C370.314 338.654 368.836 336.194 366.864 334.225C364.893 332.256 363.415 330.287 361.443 328.811C357.501 325.366 352.572 323.397 347.644 321.92C342.716 320.936 337.788 320.444 332.367 321.428C327.438 322.413 322.51 323.889 318.075 326.35C317.089 326.842 316.104 326.35 315.611 325.858C315.611 325.366 315.611 324.873 315.611 324.381L317.582 319.952C318.075 318.475 318.568 316.999 319.06 315.03C319.553 312.077 319.553 308.632 319.06 305.679C318.568 302.726 316.596 299.772 314.132 297.804C311.668 295.835 308.711 293.866 306.247 292.882C305.261 292.39 304.769 291.405 304.769 290.421L305.754 285.499C305.754 284.023 306.247 282.054 306.247 280.578C306.247 277.132 305.261 274.179 303.783 271.226C302.305 268.273 299.84 265.812 297.376 263.844C294.912 261.875 291.462 260.398 288.505 259.906C283.084 259.414 277.171 259.414 272.242 260.89C266.821 262.367 261.893 264.828 257.458 268.273C253.022 271.718 249.572 276.148 246.615 281.07C243.659 285.992 241.194 291.405 240.209 296.327C240.209 296.819 239.716 297.312 238.73 297.312C234.295 297.804 229.367 298.296 225.424 300.265C220.989 302.233 217.539 304.694 215.075 308.632C212.611 312.569 212.118 317.491 212.118 321.92C213.103 326.35 214.089 331.272 215.568 335.701Z" fill="#7F65C1"/>
<path d="M121.998 394.204C121.998 394.204 169.608 366.995 182.684 358.541C188.579 354.581 220.497 346.652 220.497 346.652C228.989 346.65 227.743 348.162 244.229 356.016C234.13 368.89 216.35 379.043 217.099 377.222C206.758 386.803 150.868 433.264 128.791 417.98C118.6 410.925 121.998 394.204 121.998 394.204Z" fill="#7F65C1"/>
<path d="M307.51 380.492C292.232 348.993 228.165 336.688 206.974 352.93C184.304 370.156 174.447 467.115 174.447 467.115L273.505 482.373C273.505 482.373 320.323 407.07 307.51 380.492Z" fill="#7F65C1"/>
<path d="M270.052 334.709C270.052 334.709 266.109 352.427 264.631 354.396C263.152 355.873 259.209 357.349 258.717 352.427C258.224 347.506 265.123 333.232 265.123 333.232L270.052 334.709Z" fill="#FF97A6"/>
<path d="M260.695 343.582C262.174 340.629 262.667 337.184 262.667 337.184L268.58 340.137C268.58 340.137 268.088 342.598 267.595 345.551C265.624 347.027 262.174 347.519 260.695 343.582Z" fill="#C95D77"/>
<path d="M250.336 325.862C249.844 323.401 251.815 315.034 253.786 308.144C255.265 302.238 261.671 298.793 267.092 300.761C275.963 303.222 285.82 307.16 288.284 309.128C291.734 313.066 290.255 318.972 289.762 323.401C288.777 327.831 285.327 335.706 281.877 339.151C278.427 342.104 270.542 343.581 266.6 342.104C253.786 339.151 251.322 335.214 250.336 325.862Z" fill="#FCA4A4"/>
<path d="M310.466 384.435C300.609 363.271 275.475 354.412 275.475 354.412C275.475 354.412 271.04 381.482 260.198 408.059C246.399 442.02 217.322 473.519 217.322 473.519C217.322 473.519 233.585 477.456 244.92 478.441C252.313 479.425 273.504 481.886 273.504 481.886C273.504 481.886 323.279 411.012 310.466 384.435Z" fill="#664EAF"/>
<path d="M282.691 360.23C275.299 365.644 282.418 382.187 284.389 407.78C286.36 439.772 313.327 466.234 340.433 467.218C360.638 467.711 343.829 443.443 343.829 443.443L320.054 394.194C310.365 367.553 285.648 357.769 282.691 360.23Z" fill="#664EAF"/>
<path d="M263.643 315.029C263.643 319.459 260.193 322.904 255.265 321.92C252.308 321.427 250.337 317.49 250.337 315.029C250.337 311.092 253.293 308.139 256.743 308.139C261.179 308.139 263.643 311.092 263.643 315.029C263.643 315.521 266.107 315.521 266.107 315.029C265.614 304.201 248.365 304.201 248.365 315.029C248.365 325.857 265.614 325.365 266.107 315.029C266.107 314.537 263.643 314.537 263.643 315.029Z" fill="white"/>
<path d="M285.829 320.45C285.829 323.403 284.35 326.356 281.394 327.341C276.958 329.309 272.523 325.372 272.523 320.942C272.523 318.481 274.001 315.528 276.465 314.544C280.901 311.591 285.336 315.528 285.829 320.45C285.829 321.435 288.293 321.435 287.8 320.942C287.307 310.607 270.059 309.13 270.059 320.45C270.059 331.278 287.307 332.262 287.8 320.942C287.8 320.45 285.829 319.958 285.829 320.45Z" fill="white"/>
<path d="M265.116 317.489C267.087 316.997 269.059 317.981 270.537 319.458C270.537 319.95 272.015 319.458 271.523 319.458C270.044 316.997 267.58 316.505 265.116 317.489C264.13 316.997 264.623 317.489 265.116 317.489Z" fill="white"/>
<path d="M240.489 346.037C240.489 346.037 239.503 378.028 241.474 380.489C243.446 382.95 281.393 357.357 281.393 357.357C281.393 357.357 259.216 344.56 240.489 346.037Z" fill="#FF97A6"/>
<path d="M276.461 293.873C276.461 293.873 276.461 328.325 293.71 332.755C310.959 337.677 301.102 306.177 301.102 306.177L276.461 293.873Z" fill="#3B2B5B"/>
<path d="M50.7197 354.078C50.7197 354.078 35.0699 354.675 32.3074 350.658C30.0295 346.73 17.7962 338 19.1248 336.244C20.8481 335.062 23.0362 339.474 23.0362 339.474C23.0362 339.474 20.2737 335.456 20.4535 334.488C20.6333 333.521 21.997 334.275 21.997 334.275C21.997 334.275 20.938 334.578 22.5714 333.881C24.6893 333.273 40.9238 344.749 42.6822 346.077C43.8661 347.799 51.7984 348.271 54.7407 351.321C56.0145 352.559 54.471 352.773 50.7197 354.078Z" fill="#FF97A6"/>
<path d="M71.1255 351.194C83.4496 357.574 130.273 392.169 130.273 392.169C130.273 392.169 147.857 421.722 124.869 419.642C107.01 417.973 91.14 413.909 70.2163 398.372C38.8818 375.615 48.8779 349.93 48.8779 349.93C48.8779 349.93 58.98 344.355 71.1255 351.194Z" fill="#7F65C1"/>
<path d="M387.133 346.71C387.133 346.71 388.9 331.555 410.584 332.299C424.749 332.785 431.477 336.593 428.705 341.031C428.899 347.326 425.414 346.233 419.472 345.182C410.065 343.288 393.808 374.002 385.201 366.404C382.243 364.505 385.2 351.894 387.133 346.71Z" fill="#FF97A6"/>
<path d="M411.748 340.605C424.45 337.43 426.664 333.414 428.707 337.398C430.99 342.227 426.008 365.303 406.955 362.843C400.323 361.987 385.203 359.154 385.203 359.154L411.748 340.605Z" fill="#FF97A6"/>
<path d="M390.664 339.199C402.223 331.64 396.249 310.466 402.876 310.454C407.924 310.454 412.409 323.014 408.623 330.586C406.1 335.634 400 339.209 400 339.209L390.664 339.199Z" fill="#FF97A6"/>
<path d="M350.616 465.51C369.432 458.128 423.98 392.717 403.26 370.409C399.818 366.751 393.353 362.634 387.252 359.198C379.463 354.811 369.851 358.595 366.432 366.855L331.934 450.224C331.934 450.224 328.265 474.704 350.616 465.51Z" fill="#664EAF"/>
<path opacity="0.7" d="M573.627 970.932C493.756 970.932 429.008 963.422 429.008 954.159C429.008 944.896 493.756 937.387 573.627 937.387C653.498 937.387 718.246 944.896 718.246 954.159C718.246 963.422 653.498 970.932 573.627 970.932Z" fill="#D3CAEE"/>
<path d="M547.381 344.742C559.765 336.151 576.089 328.132 635.756 346.461C641.948 348.179 651.577 352.759 657.206 356.768C651.014 377.388 660.867 396.865 660.867 396.865C651.714 403.358 626.927 447.384 622.424 461.13C616.795 478.313 610.7 502.255 610.7 502.255C610.7 502.255 579.466 501.682 559.765 499.391C543.441 497.1 511.356 486.217 511.919 476.48C513.044 456.433 516.422 424.931 524.302 396.865C532.183 363.644 547.381 344.742 547.381 344.742Z" fill="#FFCB49"/>
<path d="M547.388 344.73C556.394 338.43 567.089 332.702 594.671 336.712C595.234 336.712 598.633 337.857 598.633 337.857C598.633 337.857 582.999 388.261 578.496 406.017C572.867 428.928 560.611 498.806 560.611 498.806C560.611 498.806 556.957 498.234 555.831 498.234C538.381 495.37 510.799 485.06 511.362 475.323C512.488 455.276 515.865 423.773 523.746 395.707C532.189 363.632 547.388 344.73 547.388 344.73Z" fill="#FF9A2E"/>
<path d="M511.865 274.24C511.865 274.24 534.627 301.398 542.779 311.757C546.41 316.567 558.994 334.917 557.447 355.545C556.808 362.199 544.713 373.353 531.068 369.569C520.952 362.609 487.606 319.839 485.037 300.464C483.333 286.117 511.865 274.24 511.865 274.24Z" fill="#FF9A2E"/>
<path d="M601.419 958.175C601.419 955.884 612.677 950.729 620.558 947.865C618.306 949.584 616.055 951.875 619.432 952.447C625.061 954.166 636.319 951.875 639.696 947.865C640.822 950.729 641.385 954.738 641.385 957.602C642.511 961.612 601.982 965.048 601.419 958.175Z" fill="#3B2B5B"/>
<path d="M619.999 952.452C616.059 951.307 618.311 949.015 621.125 947.87C626.191 946.152 630.132 945.006 630.694 944.433C632.946 943.288 633.509 940.997 633.509 940.997L635.76 940.424C635.76 940.424 639.701 946.724 640.264 947.87C636.886 952.452 625.628 954.17 619.999 952.452Z" fill="#FF97A6"/>
<path d="M466.313 949.003C466.313 946.139 478.134 941.557 486.014 939.266C483.763 940.984 481.511 942.702 484.888 943.848C490.517 945.566 501.775 943.848 505.716 939.838C506.841 942.702 507.404 946.712 507.404 949.576C506.841 953.012 466.313 955.876 466.313 949.003Z" fill="#3B2B5B"/>
<path d="M484.886 943.846C480.946 942.701 483.76 940.409 486.012 939.264C491.078 937.546 495.018 936.4 495.581 936.4C497.833 935.254 498.396 932.963 498.396 932.963L500.647 932.391C500.647 932.391 504.587 938.691 505.15 939.837C501.773 943.846 489.952 945.564 484.886 943.846Z" fill="#FF97A6"/>
<path d="M612.112 482.775C612.112 483.92 626.748 507.977 636.317 538.906C651.515 587.592 649.264 890.016 640.257 940.993C639.132 947.866 624.496 939.847 623.37 931.255C617.178 886.006 556.948 599.62 556.948 599.62L512.479 934.692L495.592 934.119C495.592 934.119 471.388 683.245 488.275 554.371C493.904 511.986 509.102 475.902 511.354 472.465C527.678 470.747 587.908 479.338 612.112 482.775Z" fill="#664EB0"/>
<path d="M612.112 482.77C612.112 483.916 626.748 507.972 636.317 538.902C651.515 587.587 649.264 890.011 640.257 940.988C639.694 944.425 634.628 944.425 630.125 941.561C628.436 940.415 624.496 837.889 604.795 713.025C597.477 666.057 582.279 605.916 574.961 568.686C564.829 517.136 553.008 490.216 560.889 490.789C581.716 492.507 601.417 481.052 612.112 482.77Z" fill="#7F64C1"/>
<path d="M609.305 321.816C609.305 321.816 607.053 344.727 604.802 347.019C602.55 349.31 596.358 351.028 594.669 344.155C592.981 337.854 600.861 319.525 600.861 319.525L609.305 321.816Z" fill="#FF97A6"/>
<path d="M607.053 338.426C603.113 339.572 599.172 333.844 597.484 327.544C598.61 323.534 597.484 327.544 598.61 324.107L609.305 320.098C608.742 323.534 607.616 334.417 607.053 338.426Z" fill="#C95D77"/>
<path d="M595.789 333.281C595.789 333.281 594.663 336.718 594.663 340.154C594.663 342.446 594.1 343.591 596.352 347.028L587.345 351.61C587.345 351.61 583.968 347.028 589.597 338.436C590.723 337.291 593.537 335.572 595.789 333.281Z" fill="#FFCB48"/>
<path d="M607.045 336.713C607.045 336.713 608.171 339.004 595.224 347.023L598.602 357.905C598.602 357.905 613.237 353.323 607.045 336.713Z" fill="#FFB206"/>
<path d="M599.663 370.852L626.652 376.645L623.98 389.535L596.991 383.742L599.663 370.852Z" fill="white"/>
<path d="M693.009 303.405C693.009 303.405 648.982 367.412 628.565 378.07C622.042 381.121 630.513 397.388 651.441 400.059C667.824 402.265 727.747 335.635 721.076 303.354C716.432 284.557 693.009 303.405 693.009 303.405Z" fill="#FFCB49"/>
<path d="M517.476 194.967C517.066 210.683 511.688 295.072 511.688 295.072C511.688 295.072 542.809 377.448 533.656 373.785C524.503 370.124 484.229 307.885 476.906 296.907C472.147 278.698 473.042 260.469 468.933 232.421C465.693 212.093 485.311 185.104 495.434 172.531C498.344 168.858 503.774 167.883 506.67 171.219C511.707 176.614 517.622 185.056 517.476 194.967Z" fill="#FF9A2E"/>
<path d="M586.45 307.505C585.437 302.867 591.511 286.377 591.511 286.377C598.598 275.555 622.895 287.923 625.932 291.53C629.475 295.653 627.957 302.352 626.438 306.99C625.426 311.628 621.376 319.873 617.833 322.965C614.29 326.057 605.685 327.088 601.635 325.542C589.487 321.419 586.45 317.297 586.45 307.505Z" fill="#FF97A6"/>
<path d="M630.494 276.583C632.013 271.945 631.507 266.276 628.47 262.154C625.433 259.062 621.889 257.516 617.334 257C613.284 255.97 600.63 256.485 598.099 255.454C584.432 250.816 564.69 234.326 560.641 254.424C557.604 270.914 581.395 283.797 593.037 287.405C601.136 289.466 609.235 286.889 617.334 288.951C621.889 296.681 625.433 303.895 623.914 313.686C623.914 314.717 624.42 315.232 625.433 314.717C633.025 312.14 641.631 294.104 642.137 289.981C642.137 284.828 636.062 276.583 630.494 276.583Z" fill="#3B2B5B"/>
<path d="M641.629 289.455C641.629 286.363 640.11 283.271 638.592 280.695C636.567 278.118 634.036 276.057 630.493 275.542L631.505 276.572C633.024 271.934 633.024 266.781 630.493 262.143C627.456 257.505 622.9 255.444 617.838 254.928H618.344C614.295 253.898 610.245 253.898 606.702 253.898C604.677 253.898 602.653 253.898 601.134 253.382C600.628 253.382 600.122 253.382 600.122 253.382C600.122 253.382 599.616 253.382 599.109 252.867C598.097 252.352 597.591 252.352 596.578 251.837C589.492 248.745 582.911 244.622 574.813 243.076C572.788 242.561 570.763 242.561 568.232 243.076C566.207 243.591 564.183 245.137 562.664 247.199C562.158 248.229 561.652 249.26 561.146 250.291C560.639 251.321 560.639 252.352 560.133 253.382C559.627 255.444 559.627 257.505 560.133 259.566C560.639 263.689 563.17 267.296 565.701 270.388C568.232 273.48 571.269 275.542 574.813 277.603C568.738 272.965 563.17 266.781 562.664 259.051C562.664 256.99 562.664 255.444 563.17 253.898C563.676 252.867 563.676 252.352 564.183 251.321C564.689 250.806 565.195 249.775 565.195 249.26C567.22 246.683 570.763 246.168 574.306 246.683C581.393 248.229 587.973 252.867 595.06 255.959C596.072 256.474 597.085 256.474 597.591 256.99C598.097 256.99 598.603 257.505 599.109 257.505C599.616 257.505 600.122 257.505 600.628 257.505C602.653 257.505 604.677 257.505 606.702 257.505C610.245 257.505 614.295 257.505 617.838 258.02C617.838 258.02 617.838 258.02 618.344 258.02C621.382 258.536 625.431 260.597 627.962 263.689C630.493 267.296 630.999 271.934 629.48 276.057C629.48 276.572 629.48 277.088 629.987 277.088C632.518 277.088 635.555 278.634 637.073 281.21C639.604 283.271 641.629 286.363 641.629 289.455Z" fill="#7F65C1"/>
<path d="M713.391 223.075C716.9 238.34 736.719 298.951 716.154 321.364C710.802 326.938 695.548 326.892 689.405 309.989C682.312 291.686 678.571 267.105 671.77 239.137C666.987 218.628 664.837 199.757 681.567 200.855C699.664 201.724 710.625 210.024 713.391 223.075Z" fill="#FFCB49"/>
<path d="M690.029 207.803C690.029 207.803 698.046 193.248 686.201 184.232C680.217 179.479 671.103 179.17 669.724 182.129C668.346 185.088 676.208 186.756 678.575 189.813C682.437 194.58 681.16 210.566 687.647 213.104C689.518 214.197 692.396 210.86 690.029 207.803Z" fill="#FF97A6"/>
<path d="M684.836 183.324C684.216 182.927 674.402 173.326 673.734 174.553C673.208 176.286 679.306 183.505 679.306 183.505L684.836 183.324Z" fill="#FF97A6"/>
<path d="M682.874 199.751C682.736 199.253 677.163 191.538 674.721 191.575C671.817 191.718 676.469 199.646 677.344 201.033C679.692 204.197 684.989 210.917 684.989 210.917L682.874 199.751Z" fill="#FF97A6"/>
<path d="M498.011 182.585C498.011 182.585 486.543 170.559 495.693 158.818C500.266 152.694 508.999 150.069 511.087 152.577C513.175 155.086 505.999 158.707 504.492 162.266C501.975 167.862 507.292 182.991 501.667 187.101C500.138 188.636 496.503 186.144 498.011 182.585Z" fill="#FF97A6"/>
<path d="M496.745 157.285C497.252 156.774 504.298 145.557 505.339 146.562C506.386 148.074 502.383 156.222 502.383 156.222L496.745 157.285Z" fill="#FF97A6"/>
<path d="M502.564 172.916C502.557 172.409 506.028 163.767 508.581 163.238C511.647 162.704 509.2 171.338 508.708 172.862C507.219 176.421 503.735 184.05 503.735 184.05L502.564 172.916Z" fill="#FF97A6"/>
<path d="M741.697 327.427C745.633 321.84 746.945 307.223 743.35 300.339" stroke="#FFCB49" stroke-width="6.96466" stroke-linecap="round" stroke-linejoin="round"/>
</svg>
