<svg width="1646" height="799" viewBox="0 0 1646 799" fill="none" xmlns="http://www.w3.org/2000/svg">
<rect x="1464" width="182" height="799" rx="20" fill="url(#paint0_linear_1651_293668)"/>
<rect x="1220" y="166" width="182" height="633" rx="20" fill="url(#paint1_linear_1651_293668)"/>
<rect x="976" y="353" width="182" height="446" rx="20" fill="url(#paint2_linear_1651_293668)"/>
<rect x="731" y="553" width="182" height="246" rx="20" fill="url(#paint3_linear_1651_293668)"/>
<rect x="488" y="629" width="182" height="170" rx="20" fill="url(#paint4_linear_1651_293668)"/>
<rect x="244" y="704" width="182" height="95" rx="20" fill="url(#paint5_linear_1651_293668)"/>
<rect y="757" width="182" height="42" rx="10" fill="url(#paint6_linear_1651_293668)"/>
<defs>
<linearGradient id="paint0_linear_1651_293668" x1="1555" y1="0" x2="1555" y2="799" gradientUnits="userSpaceOnUse">
<stop offset="0.0103167" stop-color="#6152AA"/>
<stop offset="0.0104167" stop-color="#6152AA"/>
<stop offset="0.354167" stop-color="#8B7EC4"/>
<stop offset="1" stop-color="#D9D2F4"/>
</linearGradient>
<linearGradient id="paint1_linear_1651_293668" x1="1311" y1="166" x2="1311" y2="799" gradientUnits="userSpaceOnUse">
<stop stop-color="#6152AA"/>
<stop offset="1" stop-color="#D9D2F4"/>
</linearGradient>
<linearGradient id="paint2_linear_1651_293668" x1="1067" y1="353" x2="1067" y2="799" gradientUnits="userSpaceOnUse">
<stop stop-color="#6152AA"/>
<stop offset="1" stop-color="#D9D2F4"/>
</linearGradient>
<linearGradient id="paint3_linear_1651_293668" x1="822" y1="553" x2="822" y2="799" gradientUnits="userSpaceOnUse">
<stop stop-color="#6152AA"/>
<stop offset="1" stop-color="#D9D2F4"/>
</linearGradient>
<linearGradient id="paint4_linear_1651_293668" x1="579" y1="629" x2="579" y2="799" gradientUnits="userSpaceOnUse">
<stop stop-color="#6152AA"/>
<stop offset="1" stop-color="#FC555C"/>
</linearGradient>
<linearGradient id="paint5_linear_1651_293668" x1="335" y1="704" x2="335" y2="799" gradientUnits="userSpaceOnUse">
<stop stop-color="#E40037"/>
<stop offset="1" stop-color="#FF6161"/>
</linearGradient>
<linearGradient id="paint6_linear_1651_293668" x1="91" y1="757" x2="91" y2="799" gradientUnits="userSpaceOnUse">
<stop stop-color="#E40037"/>
<stop offset="1" stop-color="#FF6161"/>
</linearGradient>
</defs>
</svg>
