<svg width="456" height="484" viewBox="0 0 456 484" fill="none" xmlns="http://www.w3.org/2000/svg">
<path d="M311.693 110.73C311.693 110.73 326.41 119.579 323.174 122.711C312.475 132.585 283.681 144.684 283.681 144.684L260.004 151.617C260.004 151.617 260.054 146.277 261.579 141.433C262.344 138.768 264.632 131.502 271.33 127.424C291.429 114.707 311.693 110.73 311.693 110.73Z" fill="#FF97A6"/>
<path d="M321.661 123.629C340.119 122.475 366.898 84.0846 366.898 84.0846L365.073 83.048L315.173 105.848C315.173 105.848 297.89 125.143 321.661 123.629Z" fill="#FF97A6"/>
<path d="M365.08 83.0623L368.693 76.5564C368.693 76.5564 371.556 76.2987 372.84 79.9746C372.877 81.2122 365.52 84.8579 365.52 84.8579L365.08 83.0623Z" fill="#FF97A6"/>
<path d="M367.519 80.151C367.519 80.151 367.882 76.0391 367.353 76.4842C366.825 76.9292 366.083 79.793 366.083 79.793L366.249 83.4598L367.741 80.4122L367.519 80.151Z" fill="#FF97A6"/>
<path d="M265.038 108.939C265.038 108.939 259.725 121.765 258.019 122.517C256.313 123.269 251.45 122.65 251.039 118.605C250.743 114.346 259.071 105.555 259.071 105.555L265.038 108.939Z" fill="#FF97A6"/>
<path d="M256.377 108.449C257.283 110.666 260.627 112.509 263.59 112.299C265.132 110.393 265.647 109.872 266.668 108.144L259.946 103.384C258.394 104.604 257.924 106.886 256.377 108.449Z" fill="#C95D77"/>
<path d="M273.156 105.242C273.827 104.384 274.916 101.387 276.051 98.1516C277.324 94.2032 274.669 89.7504 270.3 88.9156C269.329 88.73 268.601 88.5909 268.405 88.3068C265.931 88.0807 263.354 87.0951 260.938 87.8662C258.279 88.5909 257.191 91.5885 256.53 93.6815C255.581 95.9659 255.035 100.053 255.831 102.425C256.431 104.512 259.654 107.347 261.792 108.002C267.917 110.159 270.38 109.15 273.156 105.242Z" fill="#FF97A6"/>
<path d="M260.219 80.0511C264.877 75.5206 256.643 73.0445 262.939 73.0155C263.713 72.917 265.063 71.012 264.243 71.348C262.798 72.304 269.111 67.8976 267.434 70.0412C269.41 68.9404 266.045 74.1562 269.905 72.4298C288.975 69.3654 288.445 73.371 288.109 73.7998C287.104 75.0859 286.098 76.3721 285.335 77.7046C288.188 77.2642 290.396 74.9758 292.904 73.7302C293.481 73.3478 294.359 74.0083 294.22 74.7209C292.679 81.3254 291.913 87.8315 281.79 93.289C275.619 96.5449 266.473 91.8407 259.728 90.3055C259.439 90.4967 259.439 90.4967 259.392 90.7342C259.392 90.7342 259.346 90.9717 259.103 90.9254C258.108 93.4455 259.84 90.7368 258.602 93.2106C258.509 93.6856 257.978 93.8305 257.539 93.5002C254.767 92.2315 254.596 89.2421 254.621 86.5365C254.621 86.5365 248.466 87.4146 249.925 82.5191C250.724 79.7151 257.251 78.4984 260.219 80.0511Z" fill="#3B2B5B"/>
<path d="M277.299 90.5001C277.299 90.5001 271.201 102.402 263.732 107.138C259.974 109.625 248.122 100.703 250.865 93.0917C253.609 85.4798 272.831 83.7289 274.494 85.5261C276.157 87.3232 277.299 90.5001 277.299 90.5001Z" fill="#3B2B5B"/>
<path d="M287.075 72.5996C287.653 72.2168 288.243 73.0695 287.907 73.4988C287.814 73.9744 287.236 74.3573 286.9 74.7866L284.839 77.6C284.793 77.8379 284.746 78.0757 284.989 78.1221L285.232 78.1685C287.025 78.0177 288.518 76.8227 289.918 76.1033C290.497 75.7205 291.365 75.1462 291.943 74.7633L292.522 74.3805L292.811 74.189C292.811 74.189 293.054 74.2354 293.008 74.4733L291.883 78.9458C291.315 80.5642 291.036 81.9913 290.226 83.5633C288.894 86.516 286.44 88.7609 283.79 90.7217C283.211 91.1045 282.343 91.6788 281.765 92.0617C280.943 92.3981 280.365 92.781 279.543 93.1175C277.947 93.5525 276.396 93.7498 274.65 93.6628C274.407 93.6164 274.118 93.8078 274.071 94.0456C272.589 96.4762 271.107 98.9068 269.185 101.007C267.46 103.391 265.539 105.491 263.178 107.26C265.735 105.775 267.9 103.722 269.821 101.622C271.743 99.5217 273.468 97.1375 275.193 94.7533L274.614 95.1362C276.361 95.2232 278.107 95.3102 279.993 94.6837C280.815 94.3472 281.636 94.0108 282.504 93.4365C283.326 93.1 283.951 92.4793 284.772 92.1429C287.665 90.2286 290.212 87.5079 291.59 84.3174C292.644 82.7918 293.212 81.1733 293.779 79.5549L294.244 77.1765L294.476 75.9873L294.615 75.2738C294.615 75.2738 294.754 74.5603 294.558 74.276C294.454 73.5161 293.772 73.1391 293.043 72.9998C292.8 72.9534 292.754 73.1913 292.511 73.1449L292.222 73.3363L291.643 73.7192C290.822 74.0556 290.197 74.6763 289.572 75.297C288.125 76.2542 286.921 77.2577 285.325 77.6928L285.718 78.2613L287.536 75.4015C287.871 74.9722 288.207 74.5429 288.346 73.8294C288.532 72.8781 287.653 72.2168 287.075 72.5996Z" fill="#7F65C1"/>
<path d="M260.025 92.3305C260.025 92.3305 240.077 93.5949 236.83 82.5542C233.582 71.5135 250.337 60.5547 256.253 59.5478C268.698 57.6512 275.05 65.8117 270.813 82.6362C266.577 99.4607 260.025 92.3305 260.025 92.3305Z" fill="#3B2B5B"/>
<path d="M251.447 91.952C251.447 91.952 271.374 90.007 271.969 71.8413L273.925 71.8322C273.925 71.8322 273.28 83.0892 267.965 87.4279C260.87 93.7619 250.71 93.7345 250.71 93.7345L251.447 91.952Z" fill="#FFCB49"/>
<path d="M47.0983 365.533C53.2861 366.186 51.3661 358.268 52.5803 353.589C51.6803 355.093 50.5215 356.368 49.6633 354.226C48.7373 350.872 49.5703 343.784 51.6698 341.732C49.9117 341.094 47.4311 340.736 45.7137 340.824C43.751 340.925 42.8868 365.022 47.0983 365.533Z" fill="#3B2B5B"/>
<path d="M49.9265 354.212C50.5404 356.367 51.9471 355.08 52.8487 353.575C53.6688 350.617 54.2703 348.156 54.4889 347.659C55.1447 346.167 56.36 345.861 56.36 345.861L56.5243 344.395C56.5243 344.395 54.3666 345.478 53.4661 342.608C53.1931 342.136 52.688 341.919 52.1828 341.702C49.5879 343.78 48.753 350.87 49.9265 354.212Z" fill="#FF97A6"/>
<path d="M198.885 318.108C205.23 319.335 203.864 311.268 205.787 306.732C204.74 308.147 203.458 309.309 202.817 307.098C202.23 303.676 203.769 296.697 206.066 294.847C204.378 294.051 201.943 293.467 200.223 293.398C198.012 293.309 194.73 317.455 198.885 318.108Z" fill="#3B2B5B"/>
<path d="M202.83 307.105C203.225 309.307 204.755 308.154 205.803 306.739C206.915 303.869 207.761 301.475 208.028 301C208.83 299.575 210.071 299.382 210.071 299.382L210.381 297.938C210.381 297.938 208.124 298.818 207.515 295.88C207.291 295.385 206.809 295.123 206.328 294.86C203.783 296.701 202.231 303.924 202.83 307.105Z" fill="#FF97A6"/>
<path d="M249.869 185.759C249.501 186.392 253.522 196.479 249.603 215.829C244.349 240.867 238.064 223.603 221.404 245.891C241.425 222.688 221.952 245.158 221.404 245.891C218.675 249.119 194.385 244.053 196.539 239.384C210.113 209.772 194.772 225.972 194.772 225.972L56.1859 347.22L48.9038 343.701C48.9038 343.701 49.0016 342.077 52.1319 337.674C71.8714 308.158 100.064 289.221 112.201 276.152C137.427 248.869 189.396 170.638 195.592 162.915C199.906 168.13 236.562 185.302 249.869 185.759Z" fill="#FF9A2E"/>
<path d="M201.685 192.211C201.838 192.976 190.775 219.038 194.869 239.432C199.526 262.63 244.256 251.502 244.256 251.502C244.256 251.502 200.157 288.241 204.288 299.349C204.754 300.317 205.952 300.874 206.997 300.666L208.252 300.151C209.767 299.584 251.09 293.754 284.616 260.092C301.879 242.759 305.62 224.898 289.241 209.601C274.889 196.286 248.395 203.433 248.395 203.433C248.395 203.433 245.977 196.385 243.955 193.076C236.182 192.237 215.5 196.089 201.685 192.211Z" fill="#FFCB49"/>
<path d="M201.688 192.21C201.842 192.975 189.49 213.362 193.585 233.756C198.242 256.954 258.992 242.92 258.992 242.92C258.992 242.92 210.693 288.261 204.292 299.348C204.758 300.316 205.956 300.873 207 300.665L208.255 300.15C209.771 299.583 251.093 293.753 284.62 260.091C301.883 242.758 305.623 224.898 289.244 209.6C274.893 196.286 248.398 203.432 248.398 203.432C248.398 203.432 245.98 196.384 243.958 193.075C236.185 192.236 215.503 196.088 201.688 192.21Z" fill="#FF9A2E"/>
<path d="M292.53 228.929C286.17 216.347 258.191 215.661 258.191 215.661C258.191 215.661 275.656 225.509 281.044 234.715C286.125 243.397 281.901 260.55 281.901 260.55C281.901 260.55 298.373 240.492 292.53 228.929Z" fill="#FFAC49"/>
<path d="M51.9554 337.421C63.5111 321.703 87.2526 315.13 111.39 276.98C131.159 245.735 148.756 217.979 153.713 211.75C163.052 200.038 173.684 190.015 180.655 184.32C190.183 176.778 199.686 174.139 203.346 169.811C204.073 171.142 216.459 186.829 222.975 191.551C222.975 191.551 176.801 246.184 124.739 296.277C100.498 319.601 97.4648 318.02 54.7034 349.875L48.5106 343.044C48.376 343.248 48.7526 341.462 51.9554 337.421Z" fill="#FFCB49"/>
<path d="M226.362 116.741C230.661 111.307 241.001 108.136 247.322 109.434C257.764 111.92 269.109 117.713 281.048 128.318C289.85 136.047 281.553 140.082 281.553 140.082C281.553 140.082 269.807 159.269 262.87 175.548C255.932 191.827 254.054 195.536 251.086 204.516C249.986 204.46 248.032 203.926 245.865 203.273C237.32 200.448 222.493 193.827 216.122 189.7C204.965 182.612 196.384 173.047 194.38 169.684C194.962 169.17 195.208 168.748 195.241 168.206C200.471 150.972 216.812 128.757 226.362 116.741Z" fill="#FFCB49"/>
<path d="M252.81 124.572C252.81 124.572 239.592 150.177 231.238 164.519C225.341 174.643 214.274 188.306 214.274 188.306C214.274 188.306 194.705 174.827 190.161 166.127C190.161 166.127 201.301 149.429 204.864 143.312C208.058 137.828 216.061 127.485 222.623 119.132C229.184 110.778 223.575 101.482 245.001 107.889C249.329 109.194 256.854 112.29 257.035 112.951C257.273 114.483 252.81 124.572 252.81 124.572Z" fill="#FF9A2E"/>
<path d="M190.867 178.089L211.479 191.31C211.479 191.31 197.713 218.336 189.379 215.63C181.045 212.924 171.122 201.767 178.014 189.94C184.906 178.113 190.867 178.089 190.867 178.089Z" fill="#FFAC49"/>
<path d="M245.91 210.351L223.821 199.664C223.821 199.664 207.066 225.016 213.677 230.678C220.289 236.34 235.134 239.05 242.026 227.223C248.581 215.487 245.91 210.351 245.91 210.351Z" fill="#FFAC49"/>
<path d="M244.541 142.406C244.541 142.406 255.074 153.753 269.629 151.346C284.184 148.94 296.933 138.774 296.933 138.774L287.354 117.975L244.541 142.406Z" fill="#FFCB49"/>
<path d="M285.216 117.677L297.269 139.269L302.861 138.42L290.902 114.963L285.216 117.677Z" fill="#FFAC49"/>
<path d="M241.9 108.591C241.9 108.591 234.95 104.979 223.154 106.772C206.805 109.093 178.187 117.42 169.225 128.917C164.19 135.615 172.255 159.166 179.266 170.929C182.878 176.87 184.18 171.721 184.18 171.721L183.699 137.582L232.609 118.224L241.9 108.591Z" fill="#FF97A6"/>
<path d="M182.611 174.051C182.611 174.051 175.678 179.139 173.361 177.281C171.043 175.423 167.476 172.304 168.092 171.247C168.708 170.191 171.329 172.5 171.329 172.5C171.329 172.5 170.515 169.521 170.671 168.767C170.703 168.225 172.322 168.851 172.322 168.851C172.322 168.851 171.927 168.069 172.97 167.252C173.677 166.526 174.738 169.082 175.806 169.68C176.874 170.278 181.803 169.114 184.063 170.099C185.008 170.908 184.574 172.627 182.611 174.051Z" fill="#FF97A6"/>
<path d="M248.143 109.639C248.143 109.639 233.932 100.001 219.603 105.147C205.061 110.174 197.991 112.099 197.991 112.099L207.017 134.524L216.444 131.957L248.143 109.639Z" fill="#FF9A2E"/>
<path d="M32.0162 286.557C25.8729 283.485 27.5367 273.758 29.1365 269.278L55.0537 257.76L71.3718 275.038C60.813 280.157 38.1595 289.628 32.0162 286.557Z" fill="#664EAF"/>
<path d="M27.6543 270.383C28.2107 269.667 29.3629 269.199 31.002 268.964C96.3853 240.508 128.779 183.165 148.601 167.08C168.759 150.724 230.192 121.455 230.192 121.455L246.51 134.894L263.788 138.672C230.899 185.717 233.072 210.123 222.513 244.558C211.954 278.992 187.573 279.078 189.876 338.391C171.839 333.816 127.558 336.877 115.964 310.843C104.452 284.992 46.3572 266.761 31.002 268.964C29.8956 269.445 28.7797 269.919 27.6543 270.383Z" fill="#7F65C1"/>
<path d="M115.964 310.843C103.223 282.232 70.849 299.035 121.723 263.519C187.956 217.281 189.876 203.046 212.913 168.49C235.951 133.933 241.71 132.014 241.71 132.014L263.787 138.672C230.899 185.717 233.072 210.123 222.513 244.557C211.953 278.992 187.572 279.077 189.876 338.391C171.839 333.816 127.557 336.876 115.964 310.843Z" fill="#664EAF"/>
<path d="M237.327 125.295C234.769 123.792 232.441 119.535 232.441 119.535L213.871 130.094L242.214 133.934L257.852 148.332L267.625 135.853C267.625 135.853 258.546 137.583 253.942 134.893C250.202 132.708 247.101 126.254 247.101 126.254C247.101 126.254 240.619 127.229 237.327 125.295Z" fill="#7F65C1"/>
<path d="M253.946 134.891C250.206 132.706 247.105 126.254 247.105 126.254L238.832 133.933L257.855 148.33L267.629 135.851C267.629 135.851 258.55 137.581 253.946 134.891Z" fill="#664EAF"/>
<path d="M249.846 140.566C246.398 138.989 247.643 133.299 247.643 133.299C247.643 133.299 249.356 136.883 252.049 137.97C255.037 139.177 260.862 137.97 260.862 137.97C260.862 137.97 253.653 142.307 249.846 140.566Z" fill="#7F65C1"/>
<path d="M232.565 130.968C229.117 129.391 230.361 123.701 230.361 123.701C230.361 123.701 232.074 127.285 234.768 128.373C237.756 129.58 243.581 128.373 243.581 128.373C243.581 128.373 236.372 132.709 232.565 130.968Z" fill="#664EAF"/>
<path d="M341.496 193.988C346.911 196.546 352.166 201.765 352.277 210.743" stroke="#664EB0" stroke-width="1.4694" stroke-linecap="round" stroke-linejoin="round"/>
<path d="M354.746 197.416C356.628 198.837 357.391 202.256 357.56 203.767" stroke="#664EB0" stroke-width="1.4694" stroke-linecap="round" stroke-linejoin="round"/>
<path d="M18.4336 397.574C13.5382 394.124 9.25777 388.08 10.6903 379.217" stroke="#664EB0" stroke-width="1.4694" stroke-linecap="round" stroke-linejoin="round"/>
<path d="M5.96484 391.923C4.3551 390.2 4.19008 386.7 4.28336 385.182" stroke="#664EB0" stroke-width="1.4694" stroke-linecap="round" stroke-linejoin="round"/>
</svg>
