<svg width="672" height="939" viewBox="0 0 672 939" fill="none" xmlns="http://www.w3.org/2000/svg">
<path opacity="0.3" d="M454.342 597.196L449.426 599.015L447.607 603.931L445.787 599.015L440.871 597.196L445.787 595.377L447.607 590.461L449.426 595.377L454.342 597.196Z" fill="#0C32B9"/>
<path opacity="0.3" d="M480 466.712L475.084 468.531L473.265 473.447L471.446 468.531L466.53 466.712L471.446 464.893L473.265 459.977L475.084 464.893L480 466.712Z" fill="#FF6969"/>
<path opacity="0.3" d="M431.891 305.331L426.975 307.15L425.155 312.066L423.336 307.15L418.42 305.331L423.336 303.512L425.155 298.596L426.975 303.512L431.891 305.331Z" fill="#FF5757"/>
<path d="M80 636.3L75.681 637.898L74.0829 642.217L72.4847 637.898L68.1657 636.3L72.4847 634.702L74.0829 630.383L75.681 634.702L80 636.3Z" fill="#F7FAFF"/>
<path d="M80 636.3L75.681 637.898L74.0829 642.217L72.4847 637.898L68.1657 636.3L72.4847 634.702L74.0829 630.383L75.681 634.702L80 636.3Z" fill="#F7FAFF"/>
<path d="M80 636.3L75.681 637.898L74.0829 642.217L72.4847 637.898L68.1657 636.3L72.4847 634.702L74.0829 630.383L75.681 634.702L80 636.3Z" fill="#A3B5E7"/>
<path d="M480 731.429L470.168 735.068L466.53 744.9L462.891 735.068L453.059 731.429L462.891 727.791L466.53 717.959L470.168 727.791L480 731.429Z" fill="#F7FAFF"/>
<path d="M480 731.429L470.168 735.068L466.53 744.9L462.891 735.068L453.059 731.429L462.891 727.791L466.53 717.959L470.168 727.791L480 731.429Z" fill="#F7FAFF"/>
<path d="M480 731.429L470.168 735.068L466.53 744.9L462.891 735.068L453.059 731.429L462.891 727.791L466.53 717.959L470.168 727.791L480 731.429Z" fill="#E3EDFA"/>
<path d="M418.461 850.017L411.906 852.443L409.481 858.998L407.055 852.443L400.5 850.017L407.055 847.592L409.481 841.037L411.906 847.592L418.461 850.017Z" fill="#F7FAFF"/>
<path d="M418.461 850.017L411.906 852.443L409.481 858.998L407.055 852.443L400.5 850.017L407.055 847.592L409.481 841.037L411.906 847.592L418.461 850.017Z" fill="#F7FAFF"/>
<path d="M418.461 850.017L411.906 852.443L409.481 858.998L407.055 852.443L400.5 850.017L407.055 847.592L409.481 841.037L411.906 847.592L418.461 850.017Z" fill="#E3EDFA"/>
<path d="M81.6621 929.455L75.1073 931.88L72.6819 938.435L70.2564 931.88L63.7016 929.455L70.2564 927.029L72.6819 920.475L75.1073 927.029L81.6621 929.455Z" fill="#F7FAFF"/>
<path d="M81.6621 929.455L75.1073 931.88L72.6819 938.435L70.2564 931.88L63.7016 929.455L70.2564 927.029L72.6819 920.475L75.1073 927.029L81.6621 929.455Z" fill="#F7FAFF"/>
<path d="M81.6621 929.455L75.1073 931.88L72.6819 938.435L70.2564 931.88L63.7016 929.455L70.2564 927.029L72.6819 920.475L75.1073 927.029L81.6621 929.455Z" fill="#E3EDFA"/>
<path d="M27.9395 454.513L18.1073 458.152L14.4691 467.984L10.8309 458.152L0.998704 454.513L10.8309 450.875L14.4691 441.043L18.1073 450.875L27.9395 454.513Z" fill="#F7FAFF"/>
<path d="M27.9395 454.513L18.1073 458.152L14.4691 467.984L10.8309 458.152L0.998704 454.513L10.8309 450.875L14.4691 441.043L18.1073 450.875L27.9395 454.513Z" fill="#F7FAFF"/>
<path d="M27.9395 454.513L18.1073 458.152L14.4691 467.984L10.8309 458.152L0.998704 454.513L10.8309 450.875L14.4691 441.043L18.1073 450.875L27.9395 454.513Z" fill="#E3EDFA"/>
<path d="M42.9414 196.47L31.7161 198.715L29.471 209.941L27.226 198.715L16.0007 196.47L27.226 194.225L29.471 183L31.7161 194.225L42.9414 196.47Z" fill="#F7FAFF"/>
<path d="M42.9414 196.47L31.7161 198.715L29.471 209.941L27.226 198.715L16.0007 196.47L27.226 194.225L29.471 183L31.7161 194.225L42.9414 196.47Z" fill="#F7FAFF"/>
<path d="M42.9414 196.47L31.7161 198.715L29.471 209.941L27.226 198.715L16.0007 196.47L27.226 194.225L29.471 183L31.7161 194.225L42.9414 196.47Z" fill="#9983CD"/>
<g opacity="0.4">
<path d="M339.84 199.818L328.615 202.063L326.369 213.288L324.124 202.063L312.899 199.818L324.124 197.573L326.369 186.348L328.615 197.573L339.84 199.818Z" fill="#F7FAFF"/>
<path d="M339.84 199.818L328.615 202.063L326.369 213.288L324.124 202.063L312.899 199.818L324.124 197.573L326.369 186.348L328.615 197.573L339.84 199.818Z" fill="#F7FAFF"/>
<path d="M339.84 199.818L328.615 202.063L326.369 213.288L324.124 202.063L312.899 199.818L324.124 197.573L326.369 186.348L328.615 197.573L339.84 199.818Z" fill="#9983CD"/>
</g>
<g opacity="0.4">
<path d="M294.941 13.4704L283.716 15.7154L281.471 26.9407L279.226 15.7154L268.001 13.4704L279.226 11.2253L281.471 -5.88809e-07L283.716 11.2253L294.941 13.4704Z" fill="#F7FAFF"/>
<path d="M294.941 13.4704L283.716 15.7154L281.471 26.9407L279.226 15.7154L268.001 13.4704L279.226 11.2253L281.471 -5.88809e-07L283.716 11.2253L294.941 13.4704Z" fill="#F7FAFF"/>
<path d="M294.941 13.4704L283.716 15.7154L281.471 26.9407L279.226 15.7154L268.001 13.4704L279.226 11.2253L281.471 -5.88809e-07L283.716 11.2253L294.941 13.4704Z" fill="#9983CD"/>
</g>
<path d="M108.402 448.775L101.028 451.503L98.2996 458.877L95.5709 451.503L88.1968 448.775L95.5709 446.046L98.2996 438.672L101.028 446.046L108.402 448.775Z" fill="#F7FAFF"/>
<path d="M108.402 448.775L101.028 451.503L98.2996 458.877L95.5709 451.503L88.1968 448.775L95.5709 446.046L98.2996 438.672L101.028 446.046L108.402 448.775Z" fill="#F7FAFF"/>
<path d="M108.402 448.775L101.028 451.503L98.2996 458.877L95.5709 451.503L88.1968 448.775L95.5709 446.046L98.2996 438.672L101.028 446.046L108.402 448.775Z" fill="#9983CD"/>
<path opacity="0.1" d="M128.613 85.5872L121.239 88.3158L118.511 95.6899L115.782 88.3158L108.408 85.5872L115.782 82.8585L118.511 75.4844L121.239 82.8585L128.613 85.5872Z" fill="#0C32B9"/>
<path opacity="0.1" d="M514.957 117.863L507.583 120.591L504.854 127.965L502.126 120.591L494.751 117.863L502.126 115.134L504.854 107.76L507.583 115.134L514.957 117.863Z" fill="#0C32B9"/>
<path opacity="0.3" d="M259.889 810.906L252.515 813.634L249.786 821.008L247.057 813.634L239.683 810.906L247.057 808.177L249.786 800.803L252.515 808.177L259.889 810.906Z" fill="#0C32B9"/>
<path opacity="0.3" d="M65.8047 734.043L59.2499 736.468L56.8244 743.023L54.399 736.468L47.8442 734.043L54.399 731.617L56.8244 725.062L59.2499 731.617L65.8047 734.043Z" fill="#0C32B9"/>
<path opacity="0.3" d="M617.119 519.921L612.672 521.567L611.026 526.014L609.38 521.567L604.933 519.921L609.38 518.276L611.026 513.828L612.672 518.276L617.119 519.921Z" fill="#0C32B9"/>
<path opacity="0.3" d="M640.332 401.878L635.885 403.524L634.239 407.971L632.593 403.524L628.146 401.878L632.593 400.233L634.239 395.785L635.885 400.233L640.332 401.878Z" fill="#FF6969"/>
<path opacity="0.3" d="M596.811 255.88L592.363 257.526L590.717 261.973L589.072 257.526L584.624 255.88L589.072 254.234L590.717 249.787L592.363 254.234L596.811 255.88Z" fill="#FF5757"/>
<path d="M278.469 555.298L274.562 556.744L273.116 560.651L271.67 556.744L267.763 555.298L271.67 553.853L273.116 549.945L274.562 553.853L278.469 555.298Z" fill="#F7FAFF"/>
<path d="M278.469 555.298L274.562 556.744L273.116 560.651L271.67 556.744L267.763 555.298L271.67 553.853L273.116 549.945L274.562 553.853L278.469 555.298Z" fill="#F7FAFF"/>
<path d="M278.469 555.298L274.562 556.744L273.116 560.651L271.67 556.744L267.763 555.298L271.67 553.853L273.116 549.945L274.562 553.853L278.469 555.298Z" fill="#A3B5E7"/>
<path d="M640.332 641.36L631.437 644.651L628.146 653.546L624.855 644.651L615.96 641.36L624.855 638.069L628.146 629.174L631.437 638.069L640.332 641.36Z" fill="#F7FAFF"/>
<path d="M640.332 641.36L631.437 644.651L628.146 653.546L624.855 644.651L615.96 641.36L624.855 638.069L628.146 629.174L631.437 638.069L640.332 641.36Z" fill="#F7FAFF"/>
<path d="M640.332 641.36L631.437 644.651L628.146 653.546L624.855 644.651L615.96 641.36L624.855 638.069L628.146 629.174L631.437 638.069L640.332 641.36Z" fill="#E3EDFA"/>
<path d="M279.971 820.505L274.041 822.699L271.847 828.629L269.652 822.699L263.723 820.505L269.652 818.311L271.847 812.381L274.041 818.311L279.971 820.505Z" fill="#F7FAFF"/>
<path d="M279.971 820.505L274.041 822.699L271.847 828.629L269.652 822.699L263.723 820.505L269.652 818.311L271.847 812.381L274.041 818.311L279.971 820.505Z" fill="#F7FAFF"/>
<path d="M279.971 820.505L274.041 822.699L271.847 828.629L269.652 822.699L263.723 820.505L269.652 818.311L271.847 812.381L274.041 818.311L279.971 820.505Z" fill="#E3EDFA"/>
<path d="M231.371 390.842L222.476 394.134L219.185 403.029L215.894 394.134L206.999 390.842L215.894 387.551L219.185 378.656L222.476 387.551L231.371 390.842Z" fill="#F7FAFF"/>
<path d="M231.371 390.842L222.476 394.134L219.185 403.029L215.894 394.134L206.999 390.842L215.894 387.551L219.185 378.656L222.476 387.551L231.371 390.842Z" fill="#F7FAFF"/>
<path d="M231.371 390.842L222.476 394.134L219.185 403.029L215.894 394.134L206.999 390.842L215.894 387.551L219.185 378.656L222.476 387.551L231.371 390.842Z" fill="#E3EDFA"/>
<path d="M412.957 148.186L402.802 150.217L400.771 160.372L398.74 150.217L388.585 148.186L398.74 146.155L400.771 136L402.802 146.155L412.957 148.186Z" fill="#F7FAFF"/>
<path d="M412.957 148.186L402.802 150.217L400.771 160.372L398.74 150.217L388.585 148.186L398.74 146.155L400.771 136L402.802 146.155L412.957 148.186Z" fill="#F7FAFF"/>
<path d="M412.957 148.186L402.802 150.217L400.771 160.372L398.74 150.217L388.585 148.186L398.74 146.155L400.771 136L402.802 146.155L412.957 148.186Z" fill="#9983CD"/>
<g opacity="0.4">
<path d="M513.535 160.428L503.38 162.459L501.349 172.614L499.318 162.459L489.163 160.428L499.318 158.397L501.349 148.242L503.38 158.397L513.535 160.428Z" fill="#F7FAFF"/>
<path d="M513.535 160.428L503.38 162.459L501.349 172.614L499.318 162.459L489.163 160.428L499.318 158.397L501.349 148.242L503.38 158.397L513.535 160.428Z" fill="#F7FAFF"/>
<path d="M513.535 160.428L503.38 162.459L501.349 172.614L499.318 162.459L489.163 160.428L499.318 158.397L501.349 148.242L503.38 158.397L513.535 160.428Z" fill="#9983CD"/>
</g>
<path d="M304.164 385.651L297.493 388.12L295.024 394.791L292.556 388.12L285.885 385.651L292.556 383.183L295.024 376.512L297.493 383.183L304.164 385.651Z" fill="#F7FAFF"/>
<path d="M304.164 385.651L297.493 388.12L295.024 394.791L292.556 388.12L285.885 385.651L292.556 383.183L295.024 376.512L297.493 383.183L304.164 385.651Z" fill="#F7FAFF"/>
<path d="M304.164 385.651L297.493 388.12L295.024 394.791L292.556 388.12L285.885 385.651L292.556 383.183L295.024 376.512L297.493 383.183L304.164 385.651Z" fill="#9983CD"/>
<path opacity="0.1" d="M322.447 57.0888L315.776 59.5573L313.308 66.2284L310.839 59.5573L304.168 57.0888L310.839 54.6203L313.308 47.9492L315.776 54.6203L322.447 57.0888Z" fill="#0C32B9"/>
<path opacity="0.1" d="M671.957 86.29L665.286 88.7585L662.817 95.4296L660.349 88.7585L653.678 86.29L660.349 83.8215L662.817 77.1504L665.286 83.8215L671.957 86.29Z" fill="#0C32B9"/>
<path opacity="0.3" d="M441.207 713.257L434.536 715.725L432.067 722.396L429.599 715.725L422.928 713.257L429.599 710.788L432.067 704.117L434.536 710.788L441.207 713.257Z" fill="#0C32B9"/>
<path opacity="0.3" d="M265.627 643.722L259.697 645.916L257.503 651.846L255.309 645.916L249.379 643.722L255.309 641.528L257.503 635.598L259.697 641.528L265.627 643.722Z" fill="#0C32B9"/>
<path d="M436.957 44.8472L427.58 48.3171L424.11 57.6944L420.64 48.3171L411.263 44.8472L420.64 41.3773L424.11 32L427.58 41.3773L436.957 44.8472Z" fill="#F7FAFF"/>
<path d="M436.957 44.8472L427.58 48.3171L424.11 57.6944L420.64 48.3171L411.263 44.8472L420.64 41.3773L424.11 32L427.58 41.3773L436.957 44.8472Z" fill="#F7FAFF"/>
<path d="M436.957 44.8472L427.58 48.3171L424.11 57.6944L420.64 48.3171L411.263 44.8472L420.64 41.3773L424.11 32L427.58 41.3773L436.957 44.8472Z" fill="#E3EDFA"/>
<path d="M392.957 629.124L387.027 631.318L384.833 637.248L382.639 631.318L376.709 629.124L382.639 626.93L384.833 621L387.027 626.93L392.957 629.124Z" fill="#F7FAFF"/>
<path d="M392.957 629.124L387.027 631.318L384.833 637.248L382.639 631.318L376.709 629.124L382.639 626.93L384.833 621L387.027 626.93L392.957 629.124Z" fill="#F7FAFF"/>
<path d="M392.957 629.124L387.027 631.318L384.833 637.248L382.639 631.318L376.709 629.124L382.639 626.93L384.833 621L387.027 626.93L392.957 629.124Z" fill="#E3EDFA"/>
<rect x="298.025" y="104" width="272.975" height="765" rx="24.9817" fill="url(#paint0_linear_1901_201138)"/>
<rect x="5.81055" y="609.596" width="260.949" height="258.203" rx="24.9817" fill="url(#paint1_linear_1901_201138)"/>
<path d="M54.4917 606.241C55.2432 601.553 48.8448 602.598 45.311 601.525C46.5019 602.368 47.4008 603.22 45.665 603.849C43.0534 604.502 37.4841 603.774 35.6784 601.78C35.1334 603.253 34.8881 605.01 34.9268 606.468C35.2653 608.209 54.2851 609.456 54.4917 606.241Z" fill="#30193B"/>
<path d="M45.6636 603.851C47.3994 603.221 46.2086 602.378 45.3096 601.526C42.9512 600.713 41.1843 600.177 40.6005 600.192C39.4174 599.64 39.1023 598.773 39.1023 598.773L37.9269 598.512C37.9269 598.512 35.9613 601.482 35.6849 602.073C37.4828 603.776 43.0521 604.504 45.6636 603.851Z" fill="#CB7321"/>
<path d="M140.695 602.054C141.419 597.362 135.027 598.443 131.487 597.39C132.683 598.227 133.586 599.073 131.854 599.713C129.247 600.38 123.673 599.684 121.856 597.7C121.32 599.177 121.084 600.935 121.132 602.393C121.48 604.132 140.507 605.27 140.695 602.054Z" fill="#30193B"/>
<path d="M131.85 599.711C133.582 599.072 132.387 598.235 131.483 597.388C129.12 596.589 127.35 596.063 126.766 596.081C125.58 595.536 125.26 594.671 125.26 594.671L124.083 594.417C124.083 594.417 122.134 597.398 121.861 597.99C123.669 599.683 129.242 600.379 131.85 599.711Z" fill="#CB7321"/>
<path d="M64.1859 404.886C64.3577 405.744 52.3307 434.911 56.9113 457.789C62.1216 483.812 129.868 493.481 129.868 493.481C129.868 493.481 117.839 582.13 122.419 594.598C122.935 595.685 124.252 596.314 125.397 596.085L126.772 595.513C128.432 594.884 141.146 572.122 159.702 523.509C168.694 500.003 178.373 479.929 160.334 462.713C144.529 447.727 113.377 440.863 113.377 440.863C113.377 440.863 112.805 409.75 110.572 406.032C102.039 405.059 79.3614 409.29 64.1859 404.886Z" fill="#664EB0"/>
<path d="M173.096 463.125C178.149 467.348 182.291 474.355 179.913 483.929" stroke="#664EB0" stroke-width="1.4694" stroke-linecap="round" stroke-linejoin="round"/>
<path d="M33.6445 483.275C28.0083 479.867 22.8491 473.569 23.7445 463.745" stroke="#664EB0" stroke-width="1.4694" stroke-linecap="round" stroke-linejoin="round"/>
<path d="M186.25 470.449C187.858 472.482 187.72 476.329 187.48 477.982" stroke="#664EB0" stroke-width="1.4694" stroke-linecap="round" stroke-linejoin="round"/>
<path d="M42.5029 409.216C42.6747 410.074 30.6477 439.242 35.2282 462.119C40.4386 488.142 78.9118 496.949 78.9118 496.949C78.9118 496.949 32.7938 586.46 37.3747 598.928C37.89 600.015 39.2071 600.644 40.3525 600.416L41.7269 599.844C43.3877 599.215 86.304 564.445 112.675 523.621C121.755 506.44 135.569 484.259 117.531 467.043C101.726 452.058 91.6936 445.193 91.6936 445.193C91.6936 445.193 91.122 414.08 88.8888 410.362C80.3561 409.39 57.6784 413.621 42.5029 409.216Z" fill="#7F64C1"/>
<path d="M84.0493 327.477L84.3409 327.461C103.569 326.127 121.459 332.459 127.946 338.825C131.343 342.145 131.133 354.423 131.133 354.423C130.114 378.719 112.746 419.672 111.304 420.042C103.495 421.634 59.1756 424.036 43.7266 408.81C45.2229 404.056 55.1069 376.067 56.3477 355.847C57.2902 340.901 62.7328 328.048 84.0493 327.477Z" fill="#FFB206"/>
<path d="M84.049 327.479L84.3405 327.463C91.0467 327.099 88.4384 327.533 98.6593 327.271C99.2424 327.239 108.943 328.174 108.943 328.174C108.943 328.174 100.029 357.863 93.5333 383.624C88.7461 403.159 89.35 419.655 89.35 419.655C89.35 419.655 83.3942 419.167 81.6654 419.015C74.2269 418.362 50.2607 416.051 42.8357 408.568C44.332 403.814 51.3161 376.274 54.6454 356.818C57.6447 342.052 62.7324 328.05 84.049 327.479Z" fill="#FFCB48"/>
<path d="M105.925 312.568C105.925 312.568 102.707 328.389 103.768 330.341C104.829 332.293 108.879 334.847 111.434 330.803C113.99 326.758 112.401 312.846 112.401 312.846L105.925 312.568Z" fill="#CB7321"/>
<path d="M103.596 325.378C105.557 327.54 110.945 325.576 112.818 323.645C113.129 320.687 112.676 318.972 112.751 316.621L105.111 316.451C104.719 318.537 103.934 322.711 103.596 325.378Z" fill="#A35812"/>
<path d="M120.184 312.806C120.813 310.192 117.472 300.8 117.472 300.8C113.491 294.606 99.3554 301.361 97.5682 303.372C95.4839 305.669 96.2939 309.475 97.1242 312.114C97.6625 314.749 99.9171 319.455 101.93 321.24C103.944 323.024 108.897 323.694 111.248 322.859C118.295 320.648 120.088 318.346 120.184 312.806Z" fill="#CB7321"/>
<path d="M96.2247 293.151C95.6758 290.439 96.3573 287.29 98.3809 285.186C100.333 283.662 102.469 283.042 105.112 283.072C107.502 282.777 114.711 283.953 116.231 283.552C124.376 281.904 136.818 274.024 137.747 285.598C138.347 295.075 123.836 300.645 116.922 301.856C112.143 302.446 107.684 300.431 102.905 301.021C99.7625 305.045 97.2354 308.849 97.4282 314.456C97.357 315.035 97.0316 315.289 96.4876 314.929C92.3188 312.949 88.6386 302.213 88.6336 299.862C88.9897 296.967 93.037 292.76 96.2247 293.151Z" fill="#3B2B5B"/>
<path d="M88.9559 299.606C89.1696 297.869 90.2526 296.239 91.3001 294.897C92.6374 293.592 94.2288 292.611 96.2931 292.57L95.6422 293.078C95.0933 290.366 95.4494 287.47 97.2189 285.042C99.2782 282.649 102.029 281.811 104.963 281.876L104.673 281.84C107.062 281.545 109.381 281.829 111.41 282.077C112.569 282.219 113.728 282.361 114.633 282.178C114.923 282.214 115.213 282.249 115.213 282.249C115.213 282.249 115.502 282.285 115.828 282.031C116.443 281.812 116.733 281.847 117.348 281.629C121.619 280.389 125.671 278.534 130.415 278.233C131.61 278.085 132.769 278.227 134.182 278.694C135.306 279.125 136.358 280.136 137.085 281.4C137.304 282.015 137.523 282.63 137.741 283.244C137.96 283.859 137.889 284.438 138.107 285.052C138.255 286.246 138.112 287.404 137.68 288.526C137.105 290.807 135.407 292.656 133.744 294.216C132.081 295.776 130.2 296.721 128.029 297.631C131.827 295.451 135.442 292.367 136.266 288.06C136.409 286.901 136.516 286.033 136.333 285.129C136.114 284.514 136.15 284.225 135.931 283.61C135.677 283.285 135.458 282.671 135.494 282.381C134.513 280.792 132.52 280.254 130.456 280.295C126.291 280.667 122.203 282.811 117.933 284.052C117.317 284.27 116.738 284.199 116.412 284.453C116.123 284.418 115.797 284.672 115.507 284.636C115.218 284.601 114.928 284.565 114.638 284.53C113.479 284.388 112.319 284.246 111.16 284.104C109.132 283.856 106.813 283.572 104.749 283.613C104.749 283.613 104.749 283.613 104.459 283.578C102.685 283.654 100.224 284.528 98.5611 286.088C96.8628 287.937 96.2525 290.508 96.8371 292.93C96.8015 293.22 96.7658 293.509 96.476 293.474C95.027 293.296 93.1814 293.952 92.1339 295.293C90.5424 296.274 89.1696 297.869 88.9559 299.606Z" fill="#1A4658"/>
<path d="M172.556 322.773C180.064 324.393 192.559 332.444 184.768 337.273C173.856 343.718 151.947 343.775 143.395 344.878C133.543 346.108 117.837 343.851 117.837 343.851C117.837 343.851 96.7493 337.824 100.601 334.301C115.382 321.84 164.671 321.32 172.556 322.773Z" fill="#FFB206"/>
<path d="M103.199 325.041C103.199 325.041 104.68 328.418 105.311 329.26C105.942 330.102 109.535 331.369 109.535 331.369L105.312 337.697C105.312 337.697 99.3462 332.809 98.9755 331.369C98.6047 329.928 97.9192 327.15 97.9192 327.15L103.199 325.041Z" fill="#FFB206"/>
<path d="M108.939 331.082L112.709 338.757C112.709 338.757 114.602 337.113 116.523 329.415L112.708 325.046C112.708 325.046 112.708 329.415 109.507 330.759" fill="#FFCB48"/>
<path d="M95.8448 350.432L78.3281 350.111L78.141 360.316L95.6576 360.637L95.8448 350.432Z" fill="white"/>
<path d="M213.29 320.744C213.29 320.744 213.878 315.711 221.09 315.958C225.8 316.119 239.944 316.142 239.022 317.616C239.087 319.707 226.021 320.585 224.045 320.236C220.917 319.607 214.477 325.864 211.615 323.341C210.631 322.71 211.314 320.395 213.29 320.744Z" fill="#CB7321"/>
<path d="M221.476 318.717C225.701 317.663 229.245 317.394 229.925 318.717C230.684 320.32 228.868 326.916 222.532 326.099C220.327 325.815 211.537 323.981 211.537 323.981L221.476 318.717Z" fill="#CB7321"/>
<path d="M218.304 316.6C222.528 315.545 222.529 308.162 223.585 308.162C225.697 308.162 227.28 311.325 225.696 314.489C224.639 316.599 223.583 317.654 223.583 317.654L218.304 316.6Z" fill="#CB7321"/>
<path d="M146.022 336.342C161.088 345.275 206.248 348.403 212.541 329.577C214.179 324.272 212.097 319.781 210.681 317.709C210.334 316.961 209.512 316.66 208.863 316.733L140.499 324.207C140.499 324.207 129.86 327.008 146.022 336.342Z" fill="#FFB206"/>
<path d="M64.1277 340.867C62.5241 338.166 63.829 331.133 74.6896 331.373C83.8587 331.419 128.103 332.081 128.103 332.081C128.103 332.081 166.612 330.359 149.404 348.422C136.991 358.785 77.0643 363.296 64.1277 340.867Z" fill="#FFCB48"/>
<path d="M177.385 331.29C177.385 331.29 177.973 326.257 185.184 326.503C189.895 326.664 204.038 326.686 203.116 328.16C203.181 330.25 190.116 331.13 188.139 330.781C185.011 330.152 178.571 336.409 175.709 333.886C174.725 333.256 175.408 330.941 177.385 331.29Z" fill="#D87B26"/>
<path d="M185.569 329.262C189.793 328.208 193.338 327.939 194.017 329.261C194.777 330.865 192.96 337.459 186.624 336.644C184.419 336.359 175.629 334.527 175.629 334.527L185.569 329.262Z" fill="#D87B26"/>
<path d="M182.402 327.153C186.626 326.098 186.627 318.715 187.683 318.715C189.795 318.714 191.378 321.878 189.794 325.042C188.737 327.152 187.681 328.207 187.681 328.207L182.402 327.153Z" fill="#D87B26"/>
<path d="M106.108 334.554C106.108 334.554 172.925 319.289 177.359 327.191C181.533 334.958 175.753 348.764 168.673 350.341C161.852 352.053 115.524 363.804 92.7447 351.941C74.1071 342.235 106.108 334.554 106.108 334.554Z" fill="#FFCB48"/>
<path d="M138.053 364.127C134.114 365.569 127.557 366.452 121.156 366.242" stroke="#FFCB48" stroke-width="1.4694" stroke-linecap="round" stroke-linejoin="round"/>
<defs>
<linearGradient id="paint0_linear_1901_201138" x1="434.513" y1="104" x2="434.513" y2="869" gradientUnits="userSpaceOnUse">
<stop stop-color="#6152AA"/>
<stop offset="1" stop-color="#D9D2F4"/>
</linearGradient>
<linearGradient id="paint1_linear_1901_201138" x1="136.285" y1="609.596" x2="136.285" y2="867.798" gradientUnits="userSpaceOnUse">
<stop stop-color="#E40037"/>
<stop offset="1" stop-color="#FF7B7B"/>
</linearGradient>
</defs>
</svg>
