<svg width="995" height="921" viewBox="0 0 995 921" fill="none" xmlns="http://www.w3.org/2000/svg">
<path opacity="0.3" d="M653.196 464.615L655.015 469.531L659.931 471.35L655.015 473.17L653.196 478.086L651.377 473.17L646.461 471.35L651.377 469.531L653.196 464.615Z" fill="#0C32B9"/>
<path opacity="0.3" d="M522.714 438.957L524.533 443.873L529.449 445.692L524.533 447.511L522.714 452.427L520.895 447.511L515.979 445.692L520.895 443.873L522.714 438.957Z" fill="#FF6969"/>
<path opacity="0.3" d="M361.331 487.066L363.15 491.982L368.066 493.802L363.15 495.621L361.331 500.537L359.512 495.621L354.596 493.802L359.512 491.982L361.331 487.066Z" fill="#FF5757"/>
<path d="M692.302 838.957L693.9 843.276L698.219 844.874L693.9 846.472L692.302 850.791L690.704 846.472L686.385 844.874L690.704 843.276L692.302 838.957Z" fill="#F7FAFF"/>
<path d="M692.302 838.957L693.9 843.276L698.219 844.874L693.9 846.472L692.302 850.791L690.704 846.472L686.385 844.874L690.704 843.276L692.302 838.957Z" fill="#F7FAFF"/>
<path d="M692.302 838.957L693.9 843.276L698.219 844.874L693.9 846.472L692.302 850.791L690.704 846.472L686.385 844.874L690.704 843.276L692.302 838.957Z" fill="#A3B5E7"/>
<path d="M787.431 438.957L791.07 448.789L800.902 452.427L791.07 456.066L787.431 465.898L783.793 456.066L773.961 452.427L783.793 448.789L787.431 438.957Z" fill="#F7FAFF"/>
<path d="M787.431 438.957L791.07 448.789L800.902 452.427L791.07 456.066L787.431 465.898L783.793 456.066L773.961 452.427L783.793 448.789L787.431 438.957Z" fill="#F7FAFF"/>
<path d="M787.431 438.957L791.07 448.789L800.902 452.427L791.07 456.066L787.431 465.898L783.793 456.066L773.961 452.427L783.793 448.789L787.431 438.957Z" fill="#E3EDFA"/>
<path d="M906.017 500.496L908.443 507.051L914.998 509.476L908.443 511.902L906.017 518.457L903.592 511.902L897.037 509.476L903.592 507.051L906.017 500.496Z" fill="#F7FAFF"/>
<path d="M906.017 500.496L908.443 507.051L914.998 509.476L908.443 511.902L906.017 518.457L903.592 511.902L897.037 509.476L903.592 507.051L906.017 500.496Z" fill="#F7FAFF"/>
<path d="M906.017 500.496L908.443 507.051L914.998 509.476L908.443 511.902L906.017 518.457L903.592 511.902L897.037 509.476L903.592 507.051L906.017 500.496Z" fill="#E3EDFA"/>
<path d="M985.455 837.295L987.88 843.85L994.435 846.275L987.88 848.701L985.455 855.255L983.029 848.701L976.475 846.275L983.029 843.85L985.455 837.295Z" fill="#F7FAFF"/>
<path d="M985.455 837.295L987.88 843.85L994.435 846.275L987.88 848.701L985.455 855.255L983.029 848.701L976.475 846.275L983.029 843.85L985.455 837.295Z" fill="#F7FAFF"/>
<path d="M985.455 837.295L987.88 843.85L994.435 846.275L987.88 848.701L985.455 855.255L983.029 848.701L976.475 846.275L983.029 843.85L985.455 837.295Z" fill="#E3EDFA"/>
<path d="M510.513 891.018L514.152 900.85L523.984 904.488L514.152 908.126L510.513 917.958L506.875 908.126L497.043 904.488L506.875 900.85L510.513 891.018Z" fill="#F7FAFF"/>
<path d="M510.513 891.018L514.152 900.85L523.984 904.488L514.152 908.126L510.513 917.958L506.875 908.126L497.043 904.488L506.875 900.85L510.513 891.018Z" fill="#F7FAFF"/>
<path d="M510.513 891.018L514.152 900.85L523.984 904.488L514.152 908.126L510.513 917.958L506.875 908.126L497.043 904.488L506.875 900.85L510.513 891.018Z" fill="#E3EDFA"/>
<path d="M13.4704 810.555L15.7154 821.78L26.9407 824.025L15.7154 826.27L13.4704 837.495L11.2253 826.27L0 824.025L11.2253 821.78L13.4704 810.555Z" fill="#F7FAFF"/>
<path d="M13.4704 810.555L15.7154 821.78L26.9407 824.025L15.7154 826.27L13.4704 837.495L11.2253 826.27L0 824.025L11.2253 821.78L13.4704 810.555Z" fill="#F7FAFF"/>
<path d="M13.4704 810.555L15.7154 821.78L26.9407 824.025L15.7154 826.27L13.4704 837.495L11.2253 826.27L0 824.025L11.2253 821.78L13.4704 810.555Z" fill="#9983CD"/>
<g opacity="0.4">
<path d="M255.818 579.117L258.063 590.342L269.288 592.588L258.063 594.833L255.818 606.058L253.573 594.833L242.348 592.588L253.573 590.342L255.818 579.117Z" fill="#F7FAFF"/>
<path d="M255.818 579.117L258.063 590.342L269.288 592.588L258.063 594.833L255.818 606.058L253.573 594.833L242.348 592.588L253.573 590.342L255.818 579.117Z" fill="#F7FAFF"/>
<path d="M255.818 579.117L258.063 590.342L269.288 592.588L258.063 594.833L255.818 606.058L253.573 594.833L242.348 592.588L253.573 590.342L255.818 579.117Z" fill="#9983CD"/>
</g>
<path d="M504.777 810.555L507.505 817.929L514.879 820.657L507.505 823.386L504.777 830.76L502.048 823.386L494.674 820.657L502.048 817.929L504.777 810.555Z" fill="#F7FAFF"/>
<path d="M504.777 810.555L507.505 817.929L514.879 820.657L507.505 823.386L504.777 830.76L502.048 823.386L494.674 820.657L502.048 817.929L504.777 810.555Z" fill="#F7FAFF"/>
<path d="M504.777 810.555L507.505 817.929L514.879 820.657L507.505 823.386L504.777 830.76L502.048 823.386L494.674 820.657L502.048 817.929L504.777 810.555Z" fill="#9983CD"/>
<path opacity="0.1" d="M141.587 790.344L144.316 797.718L151.69 800.447L144.316 803.175L141.587 810.549L138.858 803.175L131.484 800.447L138.858 797.718L141.587 790.344Z" fill="#0C32B9"/>
<path opacity="0.1" d="M173.864 404L176.593 411.374L183.967 414.103L176.593 416.831L173.864 424.206L171.136 416.831L163.762 414.103L171.136 411.374L173.864 404Z" fill="#0C32B9"/>
<path opacity="0.3" d="M866.906 659.068L869.634 666.442L877.008 669.171L869.634 671.9L866.906 679.274L864.177 671.9L856.803 669.171L864.177 666.442L866.906 659.068Z" fill="#0C32B9"/>
<path opacity="0.3" d="M790.043 853.152L792.468 859.707L799.023 862.133L792.468 864.558L790.043 871.113L787.617 864.558L781.062 862.133L787.617 859.707L790.043 853.152Z" fill="#0C32B9"/>
<path opacity="0.3" d="M660.921 54.8379L662.567 59.2853L667.014 60.931L662.567 62.5766L660.921 67.024L659.276 62.5766L654.828 60.931L659.276 59.2853L660.921 54.8379Z" fill="#0C32B9"/>
<path opacity="0.3" d="M542.878 31.625L544.524 36.0724L548.971 37.7181L544.524 39.3637L542.878 43.8111L541.233 39.3637L536.785 37.7181L541.233 36.0724L542.878 31.625Z" fill="#FF6969"/>
<path opacity="0.3" d="M396.88 75.1465L398.526 79.5939L402.973 81.2395L398.526 82.8852L396.88 87.3326L395.234 82.8852L390.787 81.2395L395.234 79.5939L396.88 75.1465Z" fill="#FF5757"/>
<path d="M696.298 393.488L697.744 397.395L701.651 398.841L697.744 400.287L696.298 404.194L694.853 400.287L690.945 398.841L694.853 397.395L696.298 393.488Z" fill="#F7FAFF"/>
<path d="M696.298 393.488L697.744 397.395L701.651 398.841L697.744 400.287L696.298 404.194L694.853 400.287L690.945 398.841L694.853 397.395L696.298 393.488Z" fill="#F7FAFF"/>
<path d="M696.298 393.488L697.744 397.395L701.651 398.841L697.744 400.287L696.298 404.194L694.853 400.287L690.945 398.841L694.853 397.395L696.298 393.488Z" fill="#A3B5E7"/>
<path d="M782.36 31.625L785.651 40.5198L794.546 43.8111L785.651 47.1025L782.36 55.9973L779.069 47.1025L770.174 43.8111L779.069 40.5198L782.36 31.625Z" fill="#F7FAFF"/>
<path d="M782.36 31.625L785.651 40.5198L794.546 43.8111L785.651 47.1025L782.36 55.9973L779.069 47.1025L770.174 43.8111L779.069 40.5198L782.36 31.625Z" fill="#F7FAFF"/>
<path d="M782.36 31.625L785.651 40.5198L794.546 43.8111L785.651 47.1025L782.36 55.9973L779.069 47.1025L770.174 43.8111L779.069 40.5198L782.36 31.625Z" fill="#E3EDFA"/>
<path d="M961.505 391.986L963.699 397.916L969.629 400.11L963.699 402.305L961.505 408.234L959.311 402.305L953.381 400.11L959.311 397.916L961.505 391.986Z" fill="#F7FAFF"/>
<path d="M961.505 391.986L963.699 397.916L969.629 400.11L963.699 402.305L961.505 408.234L959.311 402.305L953.381 400.11L959.311 397.916L961.505 391.986Z" fill="#F7FAFF"/>
<path d="M961.505 391.986L963.699 397.916L969.629 400.11L963.699 402.305L961.505 408.234L959.311 402.305L953.381 400.11L959.311 397.916L961.505 391.986Z" fill="#E3EDFA"/>
<path d="M531.842 440.586L535.134 449.481L544.029 452.772L535.134 456.063L531.842 464.958L528.551 456.063L519.656 452.772L528.551 449.481L531.842 440.586Z" fill="#F7FAFF"/>
<path d="M531.842 440.586L535.134 449.481L544.029 452.772L535.134 456.063L531.842 464.958L528.551 456.063L519.656 452.772L528.551 449.481L531.842 440.586Z" fill="#F7FAFF"/>
<path d="M531.842 440.586L535.134 449.481L544.029 452.772L535.134 456.063L531.842 464.958L528.551 456.063L519.656 452.772L528.551 449.481L531.842 440.586Z" fill="#E3EDFA"/>
<path d="M289.186 259L291.217 269.155L301.372 271.186L291.217 273.217L289.186 283.372L287.155 273.217L277 271.186L287.155 269.155L289.186 259Z" fill="#F7FAFF"/>
<path d="M289.186 259L291.217 269.155L301.372 271.186L291.217 273.217L289.186 283.372L287.155 273.217L277 271.186L287.155 269.155L289.186 259Z" fill="#F7FAFF"/>
<path d="M289.186 259L291.217 269.155L301.372 271.186L291.217 273.217L289.186 283.372L287.155 273.217L277 271.186L287.155 269.155L289.186 259Z" fill="#9983CD"/>
<g opacity="0.4">
<path d="M301.428 158.422L303.459 168.577L313.614 170.608L303.459 172.639L301.428 182.794L299.397 172.639L289.242 170.608L299.397 168.577L301.428 158.422Z" fill="#F7FAFF"/>
<path d="M301.428 158.422L303.459 168.577L313.614 170.608L303.459 172.639L301.428 182.794L299.397 172.639L289.242 170.608L299.397 168.577L301.428 158.422Z" fill="#F7FAFF"/>
<path d="M301.428 158.422L303.459 168.577L313.614 170.608L303.459 172.639L301.428 182.794L299.397 172.639L289.242 170.608L299.397 168.577L301.428 158.422Z" fill="#9983CD"/>
</g>
<path d="M526.651 367.793L529.12 374.464L535.791 376.933L529.12 379.401L526.651 386.072L524.183 379.401L517.512 376.933L524.183 374.464L526.651 367.793Z" fill="#F7FAFF"/>
<path d="M526.651 367.793L529.12 374.464L535.791 376.933L529.12 379.401L526.651 386.072L524.183 379.401L517.512 376.933L524.183 374.464L526.651 367.793Z" fill="#F7FAFF"/>
<path d="M526.651 367.793L529.12 374.464L535.791 376.933L529.12 379.401L526.651 386.072L524.183 379.401L517.512 376.933L524.183 374.464L526.651 367.793Z" fill="#9983CD"/>
<path opacity="0.1" d="M198.089 349.51L200.557 356.181L207.228 358.649L200.557 361.118L198.089 367.789L195.62 361.118L188.949 358.649L195.62 356.181L198.089 349.51Z" fill="#0C32B9"/>
<path opacity="0.1" d="M227.29 0L229.759 6.67107L236.43 9.13959L229.759 11.6081L227.29 18.2792L224.821 11.6081L218.15 9.13959L224.821 6.67107L227.29 0Z" fill="#0C32B9"/>
<path opacity="0.3" d="M854.257 230.75L856.725 237.421L863.396 239.89L856.725 242.358L854.257 249.029L851.788 242.358L845.117 239.89L851.788 237.421L854.257 230.75Z" fill="#0C32B9"/>
<path opacity="0.3" d="M784.722 406.33L786.916 412.26L792.846 414.454L786.916 416.648L784.722 422.578L782.528 416.648L776.598 414.454L782.528 412.26L784.722 406.33Z" fill="#0C32B9"/>
<path d="M185.847 235L189.317 244.377L198.694 247.847L189.317 251.317L185.847 260.694L182.377 251.317L173 247.847L182.377 244.377L185.847 235Z" fill="#F7FAFF"/>
<path d="M185.847 235L189.317 244.377L198.694 247.847L189.317 251.317L185.847 260.694L182.377 251.317L173 247.847L182.377 244.377L185.847 235Z" fill="#F7FAFF"/>
<path d="M185.847 235L189.317 244.377L198.694 247.847L189.317 251.317L185.847 260.694L182.377 251.317L173 247.847L182.377 244.377L185.847 235Z" fill="#E3EDFA"/>
<path d="M770.124 279L772.318 284.93L778.248 287.124L772.318 289.318L770.124 295.248L767.93 289.318L762 287.124L767.93 284.93L770.124 279Z" fill="#F7FAFF"/>
<path d="M770.124 279L772.318 284.93L778.248 287.124L772.318 289.318L770.124 295.248L767.93 289.318L762 287.124L767.93 284.93L770.124 279Z" fill="#F7FAFF"/>
<path d="M770.124 279L772.318 284.93L778.248 287.124L772.318 289.318L770.124 295.248L767.93 289.318L762 287.124L767.93 284.93L770.124 279Z" fill="#E3EDFA"/>
<path opacity="0.3" d="M726.219 866.106C802.328 866.106 864.026 858.959 864.026 850.143C864.026 841.327 802.328 834.18 726.219 834.18C650.11 834.18 588.412 841.327 588.412 850.143C588.412 858.959 650.11 866.106 726.219 866.106Z" fill="#7F64C1"/>
<path d="M729.691 271.119C717.891 262.941 702.336 255.31 645.479 272.754C639.579 274.389 630.403 278.748 625.04 282.564C630.94 302.189 621.551 320.726 621.551 320.726C630.273 326.906 653.892 368.807 658.183 381.89C663.547 398.244 669.355 421.031 669.355 421.031C669.355 421.031 699.117 420.486 717.891 418.305C733.446 416.125 764.02 405.767 763.483 396.5C762.411 377.42 759.192 347.438 751.683 320.726C744.174 289.108 729.691 271.119 729.691 271.119Z" fill="#7F64C1"/>
<path d="M729.693 271.127C721.11 265.13 710.919 259.679 684.636 263.495C684.1 263.495 680.861 264.585 680.861 264.585C680.861 264.585 695.759 312.557 700.05 329.456C705.413 351.262 717.092 417.769 717.092 417.769C717.092 417.769 720.574 417.223 721.647 417.223C738.275 414.498 764.558 404.685 764.021 395.418C762.948 376.338 759.73 346.356 752.221 319.644C744.175 289.116 729.693 271.127 729.693 271.127Z" fill="#664EB0"/>
<path d="M678.193 854.967C678.193 852.786 667.465 847.88 659.956 845.154C662.102 846.79 664.247 848.97 661.029 849.515C655.665 851.151 644.937 848.97 641.719 845.154C640.646 847.88 640.11 851.696 640.11 854.421C639.037 858.237 677.657 861.508 678.193 854.967Z" fill="#3B2B5B"/>
<path d="M660.493 849.516C664.248 848.426 662.103 846.245 659.421 845.155C654.593 843.52 650.838 842.429 650.302 841.884C648.157 840.794 647.62 838.614 647.62 838.614L645.475 838.068C645.475 838.068 641.72 844.065 641.184 845.155C644.402 849.516 655.13 851.152 660.493 849.516Z" fill="#FF97A6"/>
<path d="M806.941 846.238C806.941 843.512 795.677 839.151 788.168 836.971C790.313 838.606 792.459 840.242 789.24 841.332C783.877 842.967 773.149 841.332 769.394 837.516C768.322 840.242 767.785 844.057 767.785 846.783C768.322 850.054 806.941 852.78 806.941 846.238Z" fill="#3B2B5B"/>
<path d="M789.239 841.332C792.994 840.242 790.312 838.062 788.167 836.971C783.339 835.336 779.585 834.246 779.048 834.246C776.903 833.155 776.366 830.975 776.366 830.975L774.221 830.43C774.221 830.43 770.466 836.426 769.93 837.516C773.148 841.332 784.412 842.968 789.239 841.332Z" fill="#FF97A6"/>
<path d="M668.016 402.499C668.016 403.589 654.07 426.485 644.951 455.922C630.469 502.259 632.614 790.09 641.196 838.608C642.269 845.149 656.215 837.517 657.288 829.34C663.188 786.274 720.581 513.707 720.581 513.707L762.955 832.611L779.047 832.066C779.047 832.066 802.111 593.296 786.02 470.641C780.656 430.301 766.174 395.957 764.028 392.687C748.473 391.051 691.08 399.228 668.016 402.499Z" fill="#FF9A2E"/>
<path d="M668.016 402.504C668.016 403.594 654.07 426.49 644.951 455.927C630.469 502.264 632.614 790.095 641.196 838.613C641.733 841.883 646.56 841.883 650.851 839.158C652.461 838.067 656.215 740.488 674.989 621.648C681.962 576.947 696.444 519.708 703.417 484.274C713.072 435.212 724.336 409.59 716.827 410.136C696.98 411.771 678.207 400.868 668.016 402.504Z" fill="#FFCB49"/>
<path d="M670.689 249.309C670.689 249.309 672.835 271.115 674.981 273.296C677.126 275.476 683.026 277.111 684.635 270.57C686.245 264.573 678.735 247.129 678.735 247.129L670.689 249.309Z" fill="#FF97A6"/>
<path d="M672.835 265.106C676.59 266.197 680.344 260.745 681.954 254.749C680.881 250.933 681.954 254.749 680.881 251.478L670.689 247.662C671.226 250.933 672.299 261.29 672.835 265.106Z" fill="#C95D77"/>
<path d="M683.568 260.221C683.568 260.221 684.64 263.492 684.64 266.762C684.64 268.943 685.177 270.033 683.031 273.304L691.613 277.665C691.613 277.665 694.832 273.304 689.468 265.127C688.395 264.037 685.713 262.401 683.568 260.221Z" fill="#FFCB48"/>
<path d="M672.834 263.484C672.834 263.484 671.761 265.665 684.098 273.297L680.88 283.654C680.88 283.654 666.934 279.293 672.834 263.484Z" fill="#FFB206"/>
<path d="M762.896 344.81C762.896 344.81 749.145 311.451 743.71 299.225C741.133 293.694 730.847 273.783 713.699 266.154C708.118 263.825 694.841 270.285 693.03 284.78C695.03 297.354 717.576 347.539 732.251 358.486C743.187 366.405 762.896 344.81 762.896 344.81Z" fill="#664EB0"/>
<path d="M831.786 344.017C817.06 342.118 734.208 338.892 734.208 338.892C734.208 338.892 713.18 359.793 728.288 366.534C745.087 374.204 768.277 380.745 794.315 389.192C813.174 395.588 839.407 379.087 851.677 370.371C855.26 367.874 856.444 362.346 853.467 358.826C848.671 352.763 841.067 345.332 831.786 344.017Z" fill="#664EB0"/>
<path d="M843.331 363.283C843.331 363.283 853.725 375.212 865.673 367.57C871.887 363.774 875.15 355.726 872.955 353.526C870.76 351.325 866.69 357.81 863.18 358.926C857.649 360.82 843.766 354.449 839.369 359.42C837.778 360.735 839.82 364.4 843.331 363.283Z" fill="#FF97A6"/>
<path d="M867.211 366.745C867.742 366.307 879.006 360.568 878.149 359.493C876.811 358.368 868.73 361.477 868.73 361.477L867.211 366.745Z" fill="#FF97A6"/>
<path d="M852.896 359.831C853.376 359.881 861.887 357.309 862.621 354.919C863.405 352.04 854.996 353.636 853.506 353.975C849.995 355.091 842.444 357.762 842.444 357.762L852.896 359.831Z" fill="#FF97A6"/>
<path d="M816.939 272.367L702.13 282.426L708.173 292.485L818.953 282.426L816.939 272.367Z" fill="#9B6E44"/>
<path d="M818.955 284.438L816.941 272.367H865.281L818.955 284.438Z" fill="#F1AD6E"/>
<path fill-rule="evenodd" clip-rule="evenodd" d="M801.54 309.958C813.473 290.332 824.784 270.128 835.298 249.759L857.51 261.201C848.705 278.26 839.323 295.263 829.46 311.969L801.54 309.958Z" fill="#67C17E"/>
<path fill-rule="evenodd" clip-rule="evenodd" d="M809.704 310.54C821.026 291.753 831.767 272.485 841.778 253.089L851.033 257.857C841.734 275.874 831.797 293.809 821.337 311.377L809.704 310.54Z" fill="#55B46D"/>
<path fill-rule="evenodd" clip-rule="evenodd" d="M835.022 249.723C836.722 252.633 840.279 256.178 840.279 256.178L848.615 261.471C848.615 261.471 853.084 261.192 857.479 261.645L855.703 237.216L835.022 249.723Z" fill="#FFEFC6"/>
<path fill-rule="evenodd" clip-rule="evenodd" d="M847.644 242.145C847.897 243.28 848.554 244.086 849.325 244.875C850.096 245.664 852.319 247.061 852.997 247.255C853.675 247.449 854.844 247.691 856.384 247.11L855.923 236.657L847.644 242.145Z" fill="#294973"/>
<path d="M812.352 229.4L799.588 300.594L783.485 306.998L808.295 229.482L812.352 229.4Z" fill="#CEDBEE"/>
<path d="M826.637 233.169L803.65 300.515L787.547 306.92L812.357 229.403L826.637 233.169Z" fill="#EFF3F9"/>
<path d="M785.62 312.125C786.477 312.032 787.852 311.822 788.616 310.922C789.199 310.235 789.557 309.479 789.272 308.415L747.789 255.033C747.695 254.822 746.272 254.112 747.388 254.488C746.464 253.696 744.927 255.383 743.732 256.792C742.541 258.195 739.941 260.897 740.854 261.693L740.825 261.723L785.62 312.125Z" fill="#1A2233"/>
<path d="M778.744 308.257C780.689 308.063 782.883 306.859 784.603 304.846C785.916 303.308 786.72 301.572 786.975 299.969L761.747 259.798C761.53 259.324 761.224 258.909 760.827 258.571C758.712 256.768 757.236 260.406 752.351 263.7C743.794 269.468 741.705 272.583 743.797 274.395L743.732 274.462L778.744 308.257Z" fill="#232C41"/>
<path d="M753.223 288.517C757.486 288.054 762.307 285.356 766.106 280.881C769.01 277.461 770.089 272.972 768.897 268.524L759.287 250.754C758.819 249.713 758.157 248.801 757.296 248.062C752.697 244.117 743.348 246.376 737.404 253.377C731.48 260.354 731.178 269.41 735.723 273.375L735.582 273.523L753.223 288.517Z" fill="#323D58"/>
<ellipse rx="10.396" ry="15.0796" transform="matrix(0.765038 0.645339 -0.653006 0.756195 746.645 260.891)" fill="#232C41"/>
<ellipse rx="7.61583" ry="11.7176" transform="matrix(0.765038 0.645339 -0.653006 0.756195 746.47 260.594)" fill="#D5E7FF"/>
<path fill-rule="evenodd" clip-rule="evenodd" d="M740.665 270.448C740.001 267.381 741.284 263.261 744.286 259.784C747.798 255.717 752.559 253.809 755.914 254.838C755.644 253.588 755.051 252.513 754.119 251.727C750.901 249.013 744.867 250.78 740.641 255.674C736.415 260.568 735.597 266.736 738.815 269.45C739.358 269.908 739.983 270.239 740.665 270.448Z" fill="#ACD1FF"/>
<path d="M788.772 323.847C790.169 324.187 791.044 323.719 791.828 323.03C792.611 322.342 792.913 321.07 792.447 320.149C791.44 319.08 749.084 278.518 749.084 278.518C748.987 278.306 747.537 277.579 748.672 277.968C747.728 277.163 746.183 278.846 744.982 280.251C743.786 281.652 741.17 284.345 742.103 285.154L742.075 285.184L788.772 323.847Z" fill="#1A2233"/>
<path d="M782.59 322.634C784.536 322.441 786.545 321.572 787.859 320.035C789.173 318.497 790.305 315.806 789.709 313.582L767.173 287.516C766.955 287.043 766.649 286.627 766.253 286.289C764.137 284.486 762.662 288.125 757.776 291.418C749.219 297.187 747.131 300.302 749.222 302.113L749.158 302.18L782.59 322.634Z" fill="#2C3855"/>
<path d="M758.997 312.875C763.259 312.412 768.081 309.714 771.88 305.24C774.784 301.82 776.545 295.651 774.537 292.612L764.111 276.252C763.644 275.211 762.982 274.299 762.12 273.56C757.521 269.615 748.166 271.876 742.221 278.877C736.297 285.855 736.002 294.908 740.547 298.873L740.406 299.021L758.997 312.875Z" fill="#374463"/>
<ellipse rx="10.396" ry="15.0796" transform="matrix(0.765038 0.645337 -0.653007 0.756195 751.471 286.387)" fill="#232C41"/>
<ellipse rx="7.61584" ry="11.7176" transform="matrix(0.765038 0.645337 -0.653007 0.756195 751.298 286.082)" fill="#D5E7FF"/>
<path fill-rule="evenodd" clip-rule="evenodd" d="M745.49 295.944C744.827 292.876 746.109 288.757 749.111 285.28C752.624 281.213 757.385 279.305 760.74 280.335C760.47 279.085 759.877 278.009 758.945 277.223C755.727 274.509 749.693 276.276 745.467 281.17C741.241 286.064 740.423 292.232 743.641 294.946C744.184 295.404 744.808 295.735 745.49 295.944Z" fill="#ACD1FF"/>
<path fill-rule="evenodd" clip-rule="evenodd" d="M789.878 251.457C788.809 251.155 787.696 251.777 787.393 252.846L780.809 276.076C780.506 277.146 781.127 278.257 782.197 278.559C783.266 278.861 784.379 278.239 784.682 277.17L791.266 253.94C791.569 252.871 790.948 251.759 789.878 251.457Z" fill="#30193B"/>
<path fill-rule="evenodd" clip-rule="evenodd" d="M778.712 255.41C777.828 256.084 777.657 257.347 778.331 258.23L784.434 266.228C785.108 267.112 786.372 267.281 787.257 266.607C788.141 265.933 788.312 264.67 787.638 263.787L781.535 255.789C780.861 254.905 779.597 254.736 778.712 255.41Z" fill="#30193B"/>
<path fill-rule="evenodd" clip-rule="evenodd" d="M792.668 269.905C792.327 268.848 791.192 268.268 790.133 268.61L783.223 270.841C782.164 271.183 781.583 272.317 781.924 273.375C782.265 274.432 783.4 275.013 784.458 274.671L791.369 272.439C792.428 272.097 793.009 270.963 792.668 269.905Z" fill="#30193B"/>
<ellipse rx="20.1347" ry="20.1249" transform="matrix(-0.962357 -0.271791 -0.272751 0.962085 786.04 265.012)" fill="url(#paint0_linear_1673_198624)"/>
<path d="M799.388 291.78L798.257 281.001L767.249 272.241L760.629 280.83L799.388 291.78Z" fill="url(#paint1_linear_1673_198624)"/>
<path d="M751.806 288.869L730.07 274.074L722.933 284.378L744.668 299.173L751.806 288.869Z" fill="#EEF1F3"/>
<path d="M742.301 284.745L745.286 279.125L739.66 276.144L736.674 281.763L742.301 284.745Z" fill="#CEDBEE"/>
<path d="M762.558 372.956L871.324 358.873L865.282 272.367L752.487 282.426L762.558 372.956Z" fill="#CF8F55"/>
<path d="M762.559 372.955L712.204 368.932L702.133 282.426H752.488L762.559 372.955Z" fill="#F1AD6E"/>
<path fill-rule="evenodd" clip-rule="evenodd" d="M742.416 306.567C742.416 303.233 740.733 300.531 738.656 300.531H717.977C715.901 300.531 714.217 303.233 714.217 306.567C714.217 309.9 715.901 312.602 717.977 312.602H738.656C740.733 312.602 742.416 309.9 742.416 306.567Z" fill="#9B6E44"/>
<path d="M859.238 348.815L857.224 332.721L837.082 334.732L839.096 350.827L859.238 348.815Z" fill="#EAAE77"/>
<path d="M657.545 373.761C657.545 373.761 642.759 303.271 649.615 282.557C652.061 276.162 634.303 271.734 617.476 284.408C604.219 294.258 609.577 377.303 637.595 393.046C654.451 401.692 657.545 373.761 657.545 373.761Z" fill="#7F64C1"/>
<path d="M731.153 402.467C716.281 403.746 656.445 414.372 638.047 392.019C633.503 386.236 635.585 371.869 652.354 368.326C670.571 364.074 694.264 363.812 721.56 361.118C741.55 359.334 759.642 359.815 756.37 375.432C753.132 392.368 743.835 401.593 731.153 402.467Z" fill="#7F64C1"/>
<path d="M748.678 382.5C748.678 382.5 761.342 391.99 771.429 382.029C776.713 377.022 778.219 368.476 775.612 366.783C773.004 365.09 770.381 372.277 767.181 374.101C762.167 377.105 747.255 373.775 743.995 379.55C742.713 381.168 745.478 384.323 748.678 382.5Z" fill="#FF97A6"/>
<path d="M772.756 380.907C773.183 380.368 783 372.408 781.936 371.536C780.392 370.715 773.138 375.44 773.138 375.44L772.756 380.907Z" fill="#FF97A6"/>
<path d="M757.313 377.144C757.793 377.092 765.579 372.804 765.796 370.314C765.961 367.337 758.07 370.65 756.684 371.293C753.484 373.116 746.657 377.301 746.657 377.301L757.313 377.144Z" fill="#FF97A6"/>
<path d="M692.463 235.673C693.428 231.259 687.64 215.564 687.64 215.564C680.887 205.264 657.735 217.035 654.841 220.468C651.465 224.392 652.912 230.768 654.359 235.182C655.323 239.596 659.182 247.444 662.558 250.387C665.935 253.329 674.135 254.31 677.993 252.839C689.569 248.915 692.463 244.992 692.463 235.673Z" fill="#FF97A6"/>
<path d="M650.5 206.247C649.053 201.833 649.535 196.438 652.429 192.514C655.324 189.571 658.7 188.1 663.041 187.609C666.9 186.628 678.958 187.119 681.37 186.138C694.393 181.724 713.205 166.029 717.063 185.157C719.957 200.852 697.287 213.113 686.193 216.547C678.476 218.508 670.758 216.056 663.041 218.018C658.7 225.375 655.324 232.241 656.771 241.56C656.771 242.541 656.288 243.032 655.324 242.541C648.088 240.089 639.889 222.923 639.406 218.999C639.406 214.094 645.194 206.247 650.5 206.247Z" fill="#3B2B5B"/>
<path d="M639.887 218.509C639.887 215.567 641.334 212.624 642.781 210.172C644.71 207.719 647.122 205.757 650.498 205.267L649.534 206.248C648.087 201.834 648.087 196.929 650.498 192.515C653.392 188.101 657.733 186.139 662.557 185.648H662.074C665.933 184.668 669.792 184.668 673.168 184.668C675.098 184.668 677.027 184.668 678.474 184.177C678.956 184.177 679.439 184.177 679.439 184.177C679.439 184.177 679.921 184.177 680.403 183.687C681.368 183.196 681.85 183.196 682.815 182.706C689.568 179.763 695.838 175.839 703.556 174.368C705.485 173.877 707.415 173.877 709.826 174.368C711.756 174.858 713.685 176.33 715.132 178.292C715.614 179.272 716.097 180.253 716.579 181.234C717.061 182.215 717.061 183.196 717.544 184.177C718.026 186.139 718.026 188.101 717.544 190.063C717.061 193.986 714.65 197.42 712.238 200.362C709.826 203.305 706.932 205.267 703.556 207.229C709.344 202.815 714.65 196.929 715.132 189.572C715.132 187.61 715.132 186.139 714.65 184.668C714.167 183.687 714.167 183.196 713.685 182.215C713.203 181.725 712.72 180.744 712.72 180.253C710.791 177.801 707.415 177.311 704.038 177.801C697.285 179.272 691.015 183.687 684.262 186.629C683.297 187.12 682.333 187.12 681.85 187.61C681.368 187.61 680.886 188.101 680.403 188.101C679.921 188.101 679.439 188.101 678.956 188.101C677.027 188.101 675.098 188.101 673.168 188.101C669.792 188.101 665.933 188.101 662.557 188.591C662.557 188.591 662.557 188.591 662.074 188.591C659.18 189.082 655.322 191.044 652.91 193.986C650.498 197.42 650.016 201.834 651.463 205.757C651.463 206.248 651.463 206.738 650.981 206.738C648.569 206.738 645.675 208.21 644.228 210.662C641.816 212.624 639.887 215.567 639.887 218.509Z" fill="#7F65C1"/>
<path opacity="0.3" d="M431.371 921C355.017 921 293.12 913.956 293.12 905.268C293.12 896.58 355.017 889.537 431.371 889.537C507.726 889.537 569.623 896.58 569.623 905.268C569.623 913.956 507.726 921 431.371 921Z" fill="#7F64C1"/>
<path d="M407.132 297.349C407.132 297.349 404.948 322.224 406.696 324.842C408.443 327.461 415.433 330.515 418.927 324.406C422.422 317.86 417.617 296.912 417.617 296.912L407.132 297.349Z" fill="#FF97A6"/>
<path d="M406.267 315.241C410.198 316.986 416.751 315.241 420.246 311.313C419.809 306.949 419.809 305.64 418.936 302.148L407.14 303.021C406.704 306.513 406.267 311.313 406.267 315.241Z" fill="#C95D77"/>
<path d="M432.044 299.083C432.917 297.338 433.791 291.664 434.665 285.555C435.539 278.136 429.423 271.153 421.559 271.153C419.812 271.153 418.501 271.153 418.064 270.717C413.696 271.153 408.89 270.28 404.959 272.462C400.59 274.644 399.716 280.318 399.28 284.245C398.406 288.609 398.843 296.028 401.027 299.956C402.774 303.447 409.327 307.375 413.259 307.811C424.617 309.557 428.549 306.939 432.044 299.083Z" fill="#FF97A6"/>
<path d="M401.02 258.941C407.573 249.34 392.437 247.742 403.358 245.559C404.669 245.123 406.368 241.292 405.057 242.165C402.873 244.347 412.34 234.406 410.156 238.77C413.214 236.152 409.138 246.529 415.254 242.165C447.327 230.283 447.764 237.558 447.327 238.43C446.016 241.049 444.706 243.667 443.832 246.286C448.637 244.54 451.695 239.74 455.627 236.685C456.501 235.812 458.248 236.685 458.248 237.994C457.811 250.213 458.685 261.996 442.958 275.088C433.347 282.944 415.873 277.707 403.641 277.271C403.204 277.707 403.204 277.707 403.204 278.143C403.204 278.143 403.204 278.58 402.767 278.58C401.894 283.38 403.982 277.996 402.671 282.797C402.671 283.67 401.798 284.106 400.924 283.67C395.682 282.361 394.371 277.124 393.497 272.323C393.497 272.323 383.109 275.961 383.983 266.797C384.419 261.56 395.341 257.196 401.02 258.941Z" fill="#3B2B5B"/>
<path d="M510.671 903.164C512.418 892.254 498.002 894.872 489.702 892.254C492.323 894 494.507 896.182 490.576 897.491C484.46 898.8 471.791 896.618 468.296 892.69C466.985 895.745 466.112 900.109 466.112 903.164C466.112 906.655 509.36 910.583 510.671 903.164Z" fill="#3B2B5B"/>
<path d="M490.576 897.056C494.508 896.183 492.324 893.565 489.703 891.819C484.46 890.074 480.092 888.764 479.218 888.328C476.597 887.019 476.16 884.837 476.16 884.837L473.539 884.4C473.539 884.4 475.286 888.328 470.044 889.637C469.17 890.074 468.734 890.947 468.297 891.819C471.792 896.62 484.46 898.802 490.576 897.056Z" fill="#FF97A6"/>
<path d="M397.079 901.419C398.827 890.072 384.41 893.127 376.11 890.072C378.731 891.818 380.916 894 376.984 895.309C370.868 896.618 358.199 894.436 354.704 890.509C353.394 893.563 352.52 897.928 352.52 900.982C352.52 904.91 396.205 908.838 397.079 901.419Z" fill="#3B2B5B"/>
<path d="M376.994 895.302C380.926 894.429 378.742 891.811 376.121 890.065C370.878 888.32 366.51 887.011 365.636 886.574C363.015 885.265 362.578 883.083 362.578 883.083L359.957 882.646C359.957 882.646 361.704 886.574 356.462 887.883C355.588 888.32 355.151 889.193 354.715 890.065C358.209 894.429 371.315 896.611 376.994 895.302Z" fill="#FF97A6"/>
<path d="M357.325 442.229C357.325 443.538 342.035 455.757 330.676 489.36C316.26 533.001 324.631 576.543 327.959 605.445C330.676 629.039 340.47 666.504 357.325 708.938C352.082 770.044 352.082 827.754 352.082 878.728C353.393 886.147 371.741 885.274 372.615 876.109C389.753 844.728 405.823 791.164 413.545 708.938C421.212 627.287 399.95 566.36 399.95 566.36L454.331 708.938L466.975 886.147L481.392 887.019C481.392 887.019 489.5 867.427 488.626 857.826C500.215 785.32 498.866 584.497 491.876 553.512C477.46 488.924 464.354 471.468 461.733 454.011C450.375 458.376 378.294 453.139 357.325 442.229Z" fill="#FF9A2E"/>
<path d="M492.319 873.842C498.521 807.397 520.273 720.002 517.215 688.581C509.451 608.805 486.203 506.391 480.961 491.117C473.534 470.606 460.865 457.514 459.555 447.477C456.934 448.786 416.402 463.964 400.675 464.836C400.675 464.836 464.724 538.212 485.929 691.976C494.754 755.966 478.253 790.923 481.205 886.594L491.882 885.625C491.882 886.061 493.193 883.007 492.319 873.842Z" fill="#FFCB49"/>
<path d="M455.627 354.509C453.88 342.29 440.774 328.325 429.853 324.834C411.505 319.597 388.788 318.724 360.829 324.834C340.297 329.198 349.471 342.726 349.471 342.726C349.471 342.726 350.345 382.876 346.413 414.297C342.481 445.718 342.045 453.137 338.55 469.721C340.297 470.593 343.792 471.466 347.724 472.339C363.451 475.394 392.283 478.012 405.826 477.14C429.416 475.83 451.258 468.411 457.374 464.92C456.938 463.611 456.938 462.738 457.374 461.865C464.801 430.444 459.559 381.566 455.627 354.509Z" fill="#664EAF"/>
<path d="M407.574 343.603C407.574 343.603 404.953 395.099 404.953 424.775C404.953 445.723 409.758 476.707 409.758 476.707C409.758 476.707 452.133 472.78 466.986 463.179C466.986 463.179 464.802 427.393 464.802 414.738C464.802 403.391 461.744 380.261 459.123 361.496C456.502 342.73 473.539 333.13 434.659 324.401C426.796 322.656 412.379 320.91 411.506 321.783C409.758 323.965 407.574 343.603 407.574 343.603Z" fill="#7F65C1"/>
<path d="M434.219 271.592C434.219 271.592 427.666 294.722 416.308 305.632C410.629 311.305 387.038 299.522 389.223 285.121C391.407 270.72 424.171 261.119 427.666 263.737C431.161 266.356 434.219 271.592 434.219 271.592Z" fill="#3B2B5B"/>
<path d="M444.215 488.295L396.83 490.913C396.83 490.913 393.513 545.028 410.098 548.083C426.682 551.137 454.166 542.409 454.166 517.971C454.166 493.532 444.215 488.295 444.215 488.295Z" fill="#FFAC49"/>
<path d="M341.839 488.389L372.592 490.892C372.592 490.892 374.745 542.619 363.981 545.539C353.217 548.46 335.38 540.116 335.38 516.755C335.688 493.812 341.839 488.389 341.839 488.389Z" fill="#FFAC49"/>
<path d="M445.146 236.682C446.019 235.809 447.33 237.119 446.893 237.991C446.893 238.864 446.019 239.737 445.582 240.61L442.961 246.283C442.961 246.72 442.961 247.156 443.398 247.156H443.835C446.893 246.283 449.077 243.665 451.262 241.919C452.135 241.046 453.446 239.737 454.32 238.864L455.193 237.991L455.63 237.555C455.63 237.555 456.067 237.555 456.067 237.991L455.63 246.283C455.193 249.338 455.193 251.957 454.32 255.011C453.009 260.685 449.514 265.485 445.582 269.849C444.709 270.722 443.398 272.031 442.524 272.904C441.214 273.777 440.34 274.65 439.03 275.522C436.409 276.832 433.787 277.705 430.729 278.141C430.293 278.141 429.856 278.577 429.856 279.014C428.108 283.814 426.361 288.615 423.74 292.979C421.555 297.779 418.934 302.143 415.439 306.071C419.371 302.58 422.429 298.216 425.05 293.852C427.671 289.488 429.856 284.687 432.04 279.887L431.166 280.759C434.224 280.323 437.282 279.887 440.34 278.141C441.651 277.268 442.961 276.395 444.272 275.086C445.582 274.213 446.456 272.904 447.767 272.031C452.135 267.667 455.63 261.994 456.941 255.884C458.251 252.829 458.688 249.774 459.125 246.72V242.356V240.174V238.864C459.125 238.864 459.125 237.555 458.688 237.119C458.251 235.809 456.941 235.373 455.63 235.373C455.193 235.373 455.193 235.809 454.756 235.809L454.32 236.246L453.446 237.119C452.135 237.991 451.262 239.301 450.388 240.61C448.204 242.792 446.456 244.974 443.835 246.283L444.709 247.156L446.893 241.483C447.33 240.61 447.767 239.737 447.767 238.428C447.767 236.682 446.019 235.809 445.146 236.682Z" fill="#7F65C1"/>
<path d="M584.364 451.46L591.695 449.645L598.836 449.647C598.836 449.647 600.476 457.694 595.399 461.241C593.244 463.118 580.103 454.446 580.103 454.446L584.364 451.46Z" fill="#FF97A6"/>
<path d="M593.693 451.057C593.693 451.057 596.922 442.985 595.39 442.569C592.608 441.812 590.293 445.825 590.293 445.825L585.196 452.921L592.919 451.737L593.693 451.057Z" fill="#FF97A6"/>
<path d="M595.433 449.64C595.433 449.64 602.576 449.391 602.768 450.523C603.574 455.257 593.835 452.49 593.835 452.49L595.433 449.64Z" fill="#FF97A6"/>
<path d="M594.464 454.72C594.464 454.72 602.054 455.148 601.608 458.03C601.028 461.781 592.866 457.57 592.866 457.57L594.464 454.72Z" fill="#FF97A6"/>
<path d="M591.543 456.387C591.543 456.387 600.014 458.386 599.642 460.796C599.061 464.546 589.736 460.001 589.736 460.001L591.543 456.387Z" fill="#FF97A6"/>
<path d="M594.329 452.215C594.329 452.215 601.792 451.909 602.105 454.403C601.614 458.028 592.73 455.065 592.73 455.065L594.329 452.215Z" fill="#FF97A6"/>
<path d="M432.042 329.691C432.042 329.691 405.232 325.852 415.435 344.358C429.303 370.108 447.361 419.641 472.216 427.314C486.345 437.33 554.627 455.613 587.288 457.744C589.006 457.088 590.973 454.32 590.973 454.32L478.029 397.759L460.3 347.748L432.042 329.691Z" fill="#FF97A6"/>
<path d="M418.658 322.051C418.658 322.051 457.745 323.748 462.843 342.419C467.459 351.427 479.146 386.439 479.146 386.439L438.415 401.779L410.161 335.629L418.658 322.051Z" fill="#7F65C1"/>
<path d="M480.487 376.514L436.505 397.738L440.142 405.242L484.737 386.488L480.487 376.514Z" fill="#7F65C1"/>
<path d="M430.852 354.154C430.852 354.154 372.386 360.278 363.012 341.835C353.638 323.391 379.458 259.704 393.849 249.437C408.239 239.171 404.127 247.384 422.629 249.437C430.158 256.447 415.545 277.23 414.406 298.716C412.752 329.928 430.852 354.154 430.852 354.154Z" fill="#3B2B5B"/>
<path d="M355.879 372.227C355.879 372.227 344.871 396.943 334.611 378.469C320.158 353.042 287.771 311.418 294.489 286.316C303.395 267.919 322.637 274.079 322.637 297.123C327.49 311.954 355.604 338.722 355.604 338.722L355.879 372.227Z" fill="#FF97A6"/>
<path d="M304.767 273.67C318.333 262.905 377.791 241.01 410.288 237.117C410.642 237.562 413.779 241.646 413.779 241.646L312.173 302.867C295.622 303.584 286.969 287.794 304.767 273.67Z" fill="#FF97A6"/>
<path d="M409.606 241.396L415.155 246.474C415.155 246.474 422.543 244.702 428.277 242.547C428.091 239.695 410.212 237.171 410.212 237.171L409.606 241.396Z" fill="#FF97A6"/>
<path d="M417.19 245.2C417.19 245.2 423.045 250.043 422.662 251.697C422.278 253.35 413.113 247.74 413.113 247.74L409.297 241.627L417.574 243.547L417.19 245.2Z" fill="#FF97A6"/>
<path d="M356.269 408.691C356.269 408.691 365.07 372.639 360.958 334.42C350.102 325.413 338.171 308.812 338.171 308.812L302.992 334.42L311.531 349.448L356.269 408.691Z" fill="#664EAF"/>
<path d="M341.077 308.499L301.51 337.107L296.621 330.35L334.302 300.032L341.077 308.499Z" fill="#664EAF"/>
<defs>
<linearGradient id="paint0_linear_1673_198624" x1="20.1347" y1="0" x2="20.1347" y2="40.2498" gradientUnits="userSpaceOnUse">
<stop stop-color="#CEDBEE"/>
<stop offset="1" stop-color="#CEDBEE" stop-opacity="0.2"/>
</linearGradient>
<linearGradient id="paint1_linear_1673_198624" x1="799.097" y1="285.422" x2="762.284" y2="274.989" gradientUnits="userSpaceOnUse">
<stop stop-color="#1D4E72"/>
<stop offset="1" stop-color="#5898C7"/>
</linearGradient>
</defs>
</svg>
