<svg width="674" height="1027" viewBox="0 0 674 1027" fill="none" xmlns="http://www.w3.org/2000/svg">
<path opacity="0.3" d="M456.342 685.196L451.426 687.015L449.607 691.931L447.787 687.015L442.871 685.196L447.787 683.377L449.607 678.461L451.426 683.377L456.342 685.196Z" fill="#0C32B9"/>
<path opacity="0.3" d="M482 554.712L477.084 556.531L475.265 561.447L473.446 556.531L468.53 554.712L473.446 552.893L475.265 547.977L477.084 552.893L482 554.712Z" fill="#FF6969"/>
<path opacity="0.3" d="M433.891 393.331L428.975 395.15L427.155 400.066L425.336 395.15L420.42 393.331L425.336 391.512L427.155 386.596L428.975 391.512L433.891 393.331Z" fill="#FF5757"/>
<path d="M82 724.3L77.681 725.898L76.0829 730.217L74.4847 725.898L70.1657 724.3L74.4847 722.702L76.0829 718.383L77.681 722.702L82 724.3Z" fill="#F7FAFF"/>
<path d="M82 724.3L77.681 725.898L76.0829 730.217L74.4847 725.898L70.1657 724.3L74.4847 722.702L76.0829 718.383L77.681 722.702L82 724.3Z" fill="#F7FAFF"/>
<path d="M82 724.3L77.681 725.898L76.0829 730.217L74.4847 725.898L70.1657 724.3L74.4847 722.702L76.0829 718.383L77.681 722.702L82 724.3Z" fill="#A3B5E7"/>
<path d="M482 819.429L472.168 823.068L468.53 832.9L464.891 823.068L455.059 819.429L464.891 815.791L468.53 805.959L472.168 815.791L482 819.429Z" fill="#F7FAFF"/>
<path d="M482 819.429L472.168 823.068L468.53 832.9L464.891 823.068L455.059 819.429L464.891 815.791L468.53 805.959L472.168 815.791L482 819.429Z" fill="#F7FAFF"/>
<path d="M482 819.429L472.168 823.068L468.53 832.9L464.891 823.068L455.059 819.429L464.891 815.791L468.53 805.959L472.168 815.791L482 819.429Z" fill="#E3EDFA"/>
<path d="M420.461 938.017L413.906 940.443L411.481 946.998L409.055 940.443L402.5 938.017L409.055 935.592L411.481 929.037L413.906 935.592L420.461 938.017Z" fill="#F7FAFF"/>
<path d="M420.461 938.017L413.906 940.443L411.481 946.998L409.055 940.443L402.5 938.017L409.055 935.592L411.481 929.037L413.906 935.592L420.461 938.017Z" fill="#F7FAFF"/>
<path d="M420.461 938.017L413.906 940.443L411.481 946.998L409.055 940.443L402.5 938.017L409.055 935.592L411.481 929.037L413.906 935.592L420.461 938.017Z" fill="#E3EDFA"/>
<path d="M83.6621 1017.45L77.1073 1019.88L74.6819 1026.44L72.2564 1019.88L65.7016 1017.45L72.2564 1015.03L74.6819 1008.47L77.1073 1015.03L83.6621 1017.45Z" fill="#F7FAFF"/>
<path d="M83.6621 1017.45L77.1073 1019.88L74.6819 1026.44L72.2564 1019.88L65.7016 1017.45L72.2564 1015.03L74.6819 1008.47L77.1073 1015.03L83.6621 1017.45Z" fill="#F7FAFF"/>
<path d="M83.6621 1017.45L77.1073 1019.88L74.6819 1026.44L72.2564 1019.88L65.7016 1017.45L72.2564 1015.03L74.6819 1008.47L77.1073 1015.03L83.6621 1017.45Z" fill="#E3EDFA"/>
<path d="M29.9395 542.513L20.1073 546.152L16.4691 555.984L12.8309 546.152L2.9987 542.513L12.8309 538.875L16.4691 529.043L20.1073 538.875L29.9395 542.513Z" fill="#F7FAFF"/>
<path d="M29.9395 542.513L20.1073 546.152L16.4691 555.984L12.8309 546.152L2.9987 542.513L12.8309 538.875L16.4691 529.043L20.1073 538.875L29.9395 542.513Z" fill="#F7FAFF"/>
<path d="M29.9395 542.513L20.1073 546.152L16.4691 555.984L12.8309 546.152L2.9987 542.513L12.8309 538.875L16.4691 529.043L20.1073 538.875L29.9395 542.513Z" fill="#E3EDFA"/>
<path d="M44.9414 284.47L33.7161 286.715L31.471 297.941L29.226 286.715L18.0007 284.47L29.226 282.225L31.471 271L33.7161 282.225L44.9414 284.47Z" fill="#F7FAFF"/>
<path d="M44.9414 284.47L33.7161 286.715L31.471 297.941L29.226 286.715L18.0007 284.47L29.226 282.225L31.471 271L33.7161 282.225L44.9414 284.47Z" fill="#F7FAFF"/>
<path d="M44.9414 284.47L33.7161 286.715L31.471 297.941L29.226 286.715L18.0007 284.47L29.226 282.225L31.471 271L33.7161 282.225L44.9414 284.47Z" fill="#9983CD"/>
<g opacity="0.4">
<path d="M341.84 287.818L330.615 290.063L328.369 301.288L326.124 290.063L314.899 287.818L326.124 285.573L328.369 274.348L330.615 285.573L341.84 287.818Z" fill="#F7FAFF"/>
<path d="M341.84 287.818L330.615 290.063L328.369 301.288L326.124 290.063L314.899 287.818L326.124 285.573L328.369 274.348L330.615 285.573L341.84 287.818Z" fill="#F7FAFF"/>
<path d="M341.84 287.818L330.615 290.063L328.369 301.288L326.124 290.063L314.899 287.818L326.124 285.573L328.369 274.348L330.615 285.573L341.84 287.818Z" fill="#9983CD"/>
</g>
<g opacity="0.4">
<path d="M296.941 101.47L285.716 103.715L283.471 114.941L281.226 103.715L270.001 101.47L281.226 99.2253L283.471 88L285.716 99.2253L296.941 101.47Z" fill="#F7FAFF"/>
<path d="M296.941 101.47L285.716 103.715L283.471 114.941L281.226 103.715L270.001 101.47L281.226 99.2253L283.471 88L285.716 99.2253L296.941 101.47Z" fill="#F7FAFF"/>
<path d="M296.941 101.47L285.716 103.715L283.471 114.941L281.226 103.715L270.001 101.47L281.226 99.2253L283.471 88L285.716 99.2253L296.941 101.47Z" fill="#9983CD"/>
</g>
<path d="M110.402 536.775L103.028 539.503L100.3 546.877L97.5709 539.503L90.1968 536.775L97.5709 534.046L100.3 526.672L103.028 534.046L110.402 536.775Z" fill="#F7FAFF"/>
<path d="M110.402 536.775L103.028 539.503L100.3 546.877L97.5709 539.503L90.1968 536.775L97.5709 534.046L100.3 526.672L103.028 534.046L110.402 536.775Z" fill="#F7FAFF"/>
<path d="M110.402 536.775L103.028 539.503L100.3 546.877L97.5709 539.503L90.1968 536.775L97.5709 534.046L100.3 526.672L103.028 534.046L110.402 536.775Z" fill="#9983CD"/>
<path opacity="0.1" d="M130.613 173.587L123.239 176.316L120.511 183.69L117.782 176.316L110.408 173.587L117.782 170.858L120.511 163.484L123.239 170.858L130.613 173.587Z" fill="#0C32B9"/>
<path opacity="0.1" d="M516.957 205.863L509.583 208.591L506.854 215.965L504.126 208.591L496.751 205.863L504.126 203.134L506.854 195.76L509.583 203.134L516.957 205.863Z" fill="#0C32B9"/>
<path opacity="0.3" d="M261.889 898.906L254.515 901.634L251.786 909.008L249.057 901.634L241.683 898.906L249.057 896.177L251.786 888.803L254.515 896.177L261.889 898.906Z" fill="#0C32B9"/>
<path opacity="0.3" d="M67.8047 822.043L61.2499 824.468L58.8244 831.023L56.399 824.468L49.8442 822.043L56.399 819.617L58.8244 813.062L61.2499 819.617L67.8047 822.043Z" fill="#0C32B9"/>
<path opacity="0.3" d="M619.119 607.921L614.672 609.567L613.026 614.014L611.38 609.567L606.933 607.921L611.38 606.276L613.026 601.828L614.672 606.276L619.119 607.921Z" fill="#0C32B9"/>
<path opacity="0.3" d="M642.332 489.878L637.885 491.524L636.239 495.971L634.593 491.524L630.146 489.878L634.593 488.233L636.239 483.785L637.885 488.233L642.332 489.878Z" fill="#FF6969"/>
<path opacity="0.3" d="M598.811 343.88L594.363 345.526L592.717 349.973L591.072 345.526L586.624 343.88L591.072 342.234L592.717 337.787L594.363 342.234L598.811 343.88Z" fill="#FF5757"/>
<path d="M280.469 643.298L276.562 644.744L275.116 648.651L273.67 644.744L269.763 643.298L273.67 641.853L275.116 637.945L276.562 641.853L280.469 643.298Z" fill="#F7FAFF"/>
<path d="M280.469 643.298L276.562 644.744L275.116 648.651L273.67 644.744L269.763 643.298L273.67 641.853L275.116 637.945L276.562 641.853L280.469 643.298Z" fill="#F7FAFF"/>
<path d="M280.469 643.298L276.562 644.744L275.116 648.651L273.67 644.744L269.763 643.298L273.67 641.853L275.116 637.945L276.562 641.853L280.469 643.298Z" fill="#A3B5E7"/>
<path d="M642.332 729.36L633.437 732.651L630.146 741.546L626.855 732.651L617.96 729.36L626.855 726.069L630.146 717.174L633.437 726.069L642.332 729.36Z" fill="#F7FAFF"/>
<path d="M642.332 729.36L633.437 732.651L630.146 741.546L626.855 732.651L617.96 729.36L626.855 726.069L630.146 717.174L633.437 726.069L642.332 729.36Z" fill="#F7FAFF"/>
<path d="M642.332 729.36L633.437 732.651L630.146 741.546L626.855 732.651L617.96 729.36L626.855 726.069L630.146 717.174L633.437 726.069L642.332 729.36Z" fill="#E3EDFA"/>
<path d="M281.971 908.505L276.041 910.699L273.847 916.629L271.652 910.699L265.723 908.505L271.652 906.311L273.847 900.381L276.041 906.311L281.971 908.505Z" fill="#F7FAFF"/>
<path d="M281.971 908.505L276.041 910.699L273.847 916.629L271.652 910.699L265.723 908.505L271.652 906.311L273.847 900.381L276.041 906.311L281.971 908.505Z" fill="#F7FAFF"/>
<path d="M281.971 908.505L276.041 910.699L273.847 916.629L271.652 910.699L265.723 908.505L271.652 906.311L273.847 900.381L276.041 906.311L281.971 908.505Z" fill="#E3EDFA"/>
<path d="M233.371 478.842L224.476 482.134L221.185 491.029L217.894 482.134L208.999 478.842L217.894 475.551L221.185 466.656L224.476 475.551L233.371 478.842Z" fill="#F7FAFF"/>
<path d="M233.371 478.842L224.476 482.134L221.185 491.029L217.894 482.134L208.999 478.842L217.894 475.551L221.185 466.656L224.476 475.551L233.371 478.842Z" fill="#F7FAFF"/>
<path d="M233.371 478.842L224.476 482.134L221.185 491.029L217.894 482.134L208.999 478.842L217.894 475.551L221.185 466.656L224.476 475.551L233.371 478.842Z" fill="#E3EDFA"/>
<path d="M414.957 236.186L404.802 238.217L402.771 248.372L400.74 238.217L390.585 236.186L400.74 234.155L402.771 224L404.802 234.155L414.957 236.186Z" fill="#F7FAFF"/>
<path d="M414.957 236.186L404.802 238.217L402.771 248.372L400.74 238.217L390.585 236.186L400.74 234.155L402.771 224L404.802 234.155L414.957 236.186Z" fill="#F7FAFF"/>
<path d="M414.957 236.186L404.802 238.217L402.771 248.372L400.74 238.217L390.585 236.186L400.74 234.155L402.771 224L404.802 234.155L414.957 236.186Z" fill="#9983CD"/>
<g opacity="0.4">
<path d="M515.535 248.428L505.38 250.459L503.349 260.614L501.318 250.459L491.163 248.428L501.318 246.397L503.349 236.242L505.38 246.397L515.535 248.428Z" fill="#F7FAFF"/>
<path d="M515.535 248.428L505.38 250.459L503.349 260.614L501.318 250.459L491.163 248.428L501.318 246.397L503.349 236.242L505.38 246.397L515.535 248.428Z" fill="#F7FAFF"/>
<path d="M515.535 248.428L505.38 250.459L503.349 260.614L501.318 250.459L491.163 248.428L501.318 246.397L503.349 236.242L505.38 246.397L515.535 248.428Z" fill="#9983CD"/>
</g>
<path d="M306.164 473.651L299.493 476.12L297.024 482.791L294.556 476.12L287.885 473.651L294.556 471.183L297.024 464.512L299.493 471.183L306.164 473.651Z" fill="#F7FAFF"/>
<path d="M306.164 473.651L299.493 476.12L297.024 482.791L294.556 476.12L287.885 473.651L294.556 471.183L297.024 464.512L299.493 471.183L306.164 473.651Z" fill="#F7FAFF"/>
<path d="M306.164 473.651L299.493 476.12L297.024 482.791L294.556 476.12L287.885 473.651L294.556 471.183L297.024 464.512L299.493 471.183L306.164 473.651Z" fill="#9983CD"/>
<path opacity="0.1" d="M324.447 145.089L317.776 147.557L315.308 154.228L312.839 147.557L306.168 145.089L312.839 142.62L315.308 135.949L317.776 142.62L324.447 145.089Z" fill="#0C32B9"/>
<path opacity="0.1" d="M673.957 174.29L667.286 176.759L664.817 183.43L662.349 176.759L655.678 174.29L662.349 171.821L664.817 165.15L667.286 171.821L673.957 174.29Z" fill="#0C32B9"/>
<path opacity="0.3" d="M443.207 801.257L436.536 803.725L434.067 810.396L431.599 803.725L424.928 801.257L431.599 798.788L434.067 792.117L436.536 798.788L443.207 801.257Z" fill="#0C32B9"/>
<path opacity="0.3" d="M267.627 731.722L261.697 733.916L259.503 739.846L257.309 733.916L251.379 731.722L257.309 729.528L259.503 723.598L261.697 729.528L267.627 731.722Z" fill="#0C32B9"/>
<path d="M438.957 132.847L429.58 136.317L426.11 145.694L422.64 136.317L413.263 132.847L422.64 129.377L426.11 120L429.58 129.377L438.957 132.847Z" fill="#F7FAFF"/>
<path d="M438.957 132.847L429.58 136.317L426.11 145.694L422.64 136.317L413.263 132.847L422.64 129.377L426.11 120L429.58 129.377L438.957 132.847Z" fill="#F7FAFF"/>
<path d="M438.957 132.847L429.58 136.317L426.11 145.694L422.64 136.317L413.263 132.847L422.64 129.377L426.11 120L429.58 129.377L438.957 132.847Z" fill="#E3EDFA"/>
<path d="M394.957 717.124L389.027 719.318L386.833 725.248L384.639 719.318L378.709 717.124L384.639 714.93L386.833 709L389.027 714.93L394.957 717.124Z" fill="#F7FAFF"/>
<path d="M394.957 717.124L389.027 719.318L386.833 725.248L384.639 719.318L378.709 717.124L384.639 714.93L386.833 709L389.027 714.93L394.957 717.124Z" fill="#F7FAFF"/>
<path d="M394.957 717.124L389.027 719.318L386.833 725.248L384.639 719.318L378.709 717.124L384.639 714.93L386.833 709L389.027 714.93L394.957 717.124Z" fill="#E3EDFA"/>
<path d="M264.601 170.54C266.412 170.976 268.222 171.411 270.073 171.911C271.896 172.295 273.758 172.743 275.569 173.178C376.409 197.427 419.617 270.588 392.869 372.457C370.363 475.346 298.608 520.861 197.768 496.612C195.958 496.176 194.147 495.741 192.297 495.241C190.473 494.857 188.611 494.41 186.8 493.974C85.9605 469.725 42.7519 396.564 69.5002 294.695C92.0059 191.806 163.761 146.291 264.601 170.54Z" fill="#F3F1FF"/>
<path d="M299.888 388.76C298.498 394.941 292.904 399.181 286.573 399.42C255.492 400.59 227.308 406.078 186.747 401.476C184.123 401.179 181.902 399.4 181.128 396.875C171.29 364.779 172.232 317.085 175.582 289.108C220.997 282.184 249.136 272.841 289.459 292.661C301.831 322.078 310.024 343.722 299.888 388.76Z" fill="#C5DDFB"/>
<ellipse cx="236.053" cy="380.75" rx="7.43423" ry="7.43311" fill="#4066ED"/>
<ellipse cx="211.889" cy="358.451" rx="7.43422" ry="7.43311" fill="#4066ED"/>
<ellipse cx="178.438" cy="356.591" rx="7.43423" ry="7.43311" fill="#4066ED"/>
<ellipse cx="198.881" cy="321.285" rx="7.43422" ry="7.43311" fill="#4066ED"/>
<ellipse cx="252.783" cy="326.858" rx="14.8685" ry="14.8662" fill="#4066ED"/>
<path d="M170.936 249.305C163.06 304.136 161.33 365.486 177.316 416.986" stroke="#4066ED" stroke-width="5.24013"/>
<path d="M178.203 265.898C178.205 260.657 170.344 223.103 159.862 278.997" stroke="#4066ED" stroke-width="5.24013" stroke-linecap="round"/>
<path d="M325.59 398.347C271.456 410.107 210.383 416.201 157.874 403.924" stroke="#4066ED" stroke-width="5.24013"/>
<path d="M308.513 392.291C313.74 391.916 351.76 397.082 296.753 411.518" stroke="#4066ED" stroke-width="5.24013" stroke-linecap="round"/>
<path d="M132.266 178.851C168.328 156.309 215.509 149.05 267.768 161.617C269.588 162.055 271.408 162.492 273.268 162.994C275.1 163.38 276.972 163.83 278.792 164.268C331.051 176.835 373.786 200.78 393.47 233.604C415.612 270.526 419.116 321.818 405.163 375.021C393.394 428.75 367.828 469.176 331.315 491.994C295.254 514.536 246.644 527.73 194.385 515.163C192.565 514.725 190.746 514.288 188.886 513.786C187.054 513.4 185.182 512.95 183.362 512.512C131.103 499.945 88.8906 469.096 67.0251 432.624C44.8828 395.701 43.4458 344.541 57.3863 291.39C69.1553 237.662 95.7536 201.669 132.266 178.851ZM187.76 494.227C189.58 494.665 191.4 495.102 193.284 495.501C195.144 496.003 196.964 496.44 198.784 496.878C300.13 521.249 372.261 475.673 394.763 372.52C421.582 270.406 378.119 197.032 276.773 172.661C274.953 172.224 273.133 171.786 271.249 171.388C269.389 170.886 267.569 170.448 265.749 170.01C164.403 145.639 92.3245 191.228 69.7698 294.368C42.9513 396.482 86.4141 469.856 187.76 494.227Z" fill="#5449CF"/>
<path fill-rule="evenodd" clip-rule="evenodd" d="M422.662 376.703C430.021 351.653 441.902 256.962 340.959 185.387C281.189 140.778 215.119 144.79 178.71 154.711L163.718 161.789L144.491 175.292C178.99 159.32 266.477 152.465 325.287 204.403C417.401 293.922 406.056 440.27 320.81 488.391C320.81 488.391 395.259 469.992 422.662 376.703Z" fill="#FD5A23"/>
<path fill-rule="evenodd" clip-rule="evenodd" d="M344.844 201.731C303.751 176.4 278.025 145.437 272.923 126.173C270.062 115.368 271.626 107.19 275.2 101.542C278.783 95.8803 285.503 91.0002 296.365 89.0302C305.684 87.3398 316.475 90.0658 321.414 95.2178C328.399 102.503 333.11 114.081 336.739 128.21C342.163 149.331 344.496 177.344 344.844 201.731ZM332.733 62.2287C321.361 50.3659 306.033 44.7448 287.6 48.0879C270.71 51.1515 256.667 59.5649 248.256 72.855C239.836 86.1593 238.175 102.591 242.641 119.453C251.426 152.63 283.906 188.951 342.15 219.264L361.87 229.527L362.217 207.306C362.681 177.511 362.083 136.998 353.835 104.88C349.732 88.9054 343.326 73.2778 332.733 62.2287Z" fill="#FD5A23"/>
<path fill-rule="evenodd" clip-rule="evenodd" d="M366.146 205.574C404.969 222.254 413.537 226.533 430.26 220.251C439.419 216.811 444.765 211.476 447.17 205.732C449.576 199.985 449.558 192.585 445.517 184.047C441.924 176.455 436.77 173.314 430.279 172.412C423.023 171.404 410.991 173.584 399.133 181.475C388.703 187.499 383.69 193.395 366.146 205.574ZM453.056 150.673C465.814 152.445 476.348 159.483 482.589 172.669C488.382 184.908 489.27 197.6 484.566 208.838C479.86 220.079 470.078 228.621 457.005 233.532C431.198 243.225 391.785 239.335 343.689 215.346L330.374 208.705L342.396 199.955C362.351 185.429 389.853 166.664 415.222 156.921C427.849 152.072 441.063 149.007 453.056 150.673Z" fill="#FD5A23"/>
<path d="M341.173 217.379C329.389 212.194 369.401 206.024 347.039 212.397C347.039 212.397 422.893 267.922 490.544 239.141C490.983 246.374 481.188 262.838 481.188 262.838L497.672 280.339C470.668 292.773 432.161 293.571 409.717 279.516C387.273 265.461 341.173 217.379 341.173 217.379Z" fill="#FD5A23"/>
<path d="M342.049 206.523C353.353 200.359 370.731 221.742 338.092 217.557C308.383 185.439 205.159 187.085 188.821 248.215C182.098 243.653 179.274 217.956 179.274 217.956C175.193 217.629 154.317 213.304 154.317 213.304C171.729 195.285 196.824 176.798 252.137 173.437C307.451 170.076 342.049 206.523 342.049 206.523Z" fill="#FD5A23"/>
<rect width="54.3022" height="43.8205" rx="14.7493" transform="matrix(-0.797836 -0.602834 -0.602987 0.797781 380.199 206.666)" fill="#E33900"/>
<path opacity="0.4" d="M339.989 967.001C442.264 967.001 525.174 962.083 525.174 956.017C525.174 949.951 442.264 945.033 339.989 945.033C237.713 945.033 154.803 949.951 154.803 956.017C154.803 962.083 237.713 967.001 339.989 967.001Z" fill="#7F64C1"/>
<path d="M510.585 957.451C510.585 954.722 500.566 949.72 494.19 948.355C496.012 949.265 497.833 951.084 495.101 951.994C491.002 952.903 482.349 951.539 479.616 948.81C478.705 951.084 478.25 953.813 478.25 956.086C478.705 958.36 510.13 959.725 510.585 957.451Z" fill="#30193B"/>
<path d="M495.099 951.998C497.832 951.088 498.743 949.269 494.644 948.814C491.001 948.36 487.813 946.995 487.357 946.54C485.535 945.631 485.08 942.902 485.08 942.902H481.892C481.892 942.902 480.526 948.359 480.07 949.269C482.347 951.543 491.001 952.907 495.099 951.998Z" fill="#FF97A6"/>
<path d="M363.475 956.09C363.475 952.907 373.949 948.814 380.325 947.904C378.504 948.814 376.227 950.633 378.959 951.088C383.058 952.452 391.711 951.542 394.444 948.814C395.354 951.088 395.354 953.816 395.354 956.09C394.899 958.364 363.475 958.364 363.475 956.09Z" fill="#30193B"/>
<path d="M378.965 951.082C376.232 950.172 375.321 948.353 379.875 947.899C383.519 947.444 386.707 946.079 387.162 946.079C388.984 945.17 389.895 942.441 389.895 942.441H393.083C393.083 942.441 393.994 947.899 394.449 948.808C391.717 951.537 382.608 952.446 378.965 951.082Z" fill="#FF97A6"/>
<path d="M347.092 544.995C360.299 517.255 379.427 498.155 384.437 495.881C390.357 499.064 404.02 503.612 421.782 507.25C445.919 512.252 461.404 511.797 465.047 511.797C470.057 514.526 475.977 534.535 486.452 563.185C513.322 635.947 485.541 945.183 485.541 945.183L481.442 944.274C481.442 944.274 457.76 811.029 438.632 715.984C426.791 655.501 410.396 597.292 409.941 596.837C401.743 623.214 403.109 889.248 394.911 936.088C393.545 943.819 390.357 948.821 390.357 942C389.446 894.25 313.846 615.028 347.092 544.995Z" fill="#FF97A6"/>
<path d="M465.954 509.061C465.954 509.061 496.923 560.903 505.12 609.108C513.318 657.312 494.645 808.292 494.645 808.292C456.39 824.664 366.671 809.657 366.671 809.657C366.671 809.657 353.008 747.355 347.543 700.969C342.533 655.038 332.969 617.748 340.712 568.634C347.543 524.977 375.779 503.603 381.244 497.692C381.7 496.782 379.423 489.506 379.423 489.506L419.5 497.692L465.954 509.061Z" fill="#FFCB49"/>
<path d="M465.952 509.068C465.952 509.068 496.921 560.91 505.119 609.115C513.317 657.32 494.644 808.3 494.644 808.3C478.249 815.121 451.834 816.485 427.697 815.576C426.786 815.576 424.964 815.576 424.964 815.576C424.964 815.576 405.381 663.231 405.381 611.844C405.381 548.632 419.954 497.244 419.954 497.244L465.952 509.068Z" fill="#FF9A2E"/>
<path d="M426.978 398.558C426.978 398.558 388.723 347.624 438.364 342.167C438.364 342.167 446.562 302.149 484.817 306.696C484.817 306.696 508.499 311.244 501.213 338.075C501.213 338.075 523.528 344.896 510.321 369.453C510.321 369.453 541.745 352.172 560.418 384.005C579.09 415.838 544.933 446.307 544.933 446.307C544.933 446.307 572.714 450.4 559.507 478.595C539.013 521.797 466.6 496.331 466.6 496.331L426.978 398.558Z" fill="#3B2B5B"/>
<path d="M416.056 379.453C414.234 375.361 412.868 371.268 412.412 366.72C411.957 362.173 412.412 357.625 414.234 353.532C416.511 349.439 420.155 346.256 424.709 344.437C428.808 342.618 433.362 341.708 437.916 341.254L436.55 342.163C437.916 336.706 439.738 331.704 442.47 326.701C445.203 321.699 448.846 317.606 452.945 313.968C457.044 310.33 462.509 307.601 467.974 306.237C473.439 304.418 478.904 304.873 484.825 304.873C488.468 305.782 491.656 307.147 494.844 309.42C497.577 311.694 500.309 314.423 502.131 317.606C503.497 320.789 504.408 324.427 504.408 328.066C504.408 329.885 503.953 331.704 503.953 333.523C503.497 335.342 503.042 337.161 503.042 338.525L501.676 336.251C504.864 337.615 508.052 339.435 510.329 341.708C512.606 343.982 514.883 347.165 515.794 350.804C516.705 354.442 516.249 357.625 515.338 361.263C514.883 363.082 514.428 364.446 513.972 365.811L511.695 370.358L509.418 368.539C513.972 366.265 518.982 364.901 523.992 364.446C529.001 363.992 534.011 363.992 538.565 365.356C543.119 366.72 547.674 368.994 551.317 372.632C553.139 373.996 554.505 376.27 556.327 378.089C557.693 379.908 559.059 382.182 560.426 384.001C559.059 382.182 557.693 379.908 555.871 378.089C554.05 376.27 552.683 374.451 550.862 373.087C547.218 369.903 542.664 368.084 538.11 366.72C533.555 365.811 529.001 365.356 523.992 366.265C519.437 367.175 514.883 368.539 510.784 370.813C509.873 371.268 508.962 370.813 508.507 370.358C508.507 369.903 508.507 369.449 508.507 368.994L510.329 364.901C510.784 363.537 511.24 362.173 511.695 360.353C512.15 357.625 512.15 354.442 511.695 351.713C511.24 348.984 509.418 346.256 507.141 344.437C504.864 342.618 502.131 340.799 499.854 339.889C498.943 339.435 498.488 338.525 498.488 337.615L499.399 333.068C499.399 331.704 499.854 329.885 499.854 328.52C499.854 325.337 498.943 322.608 497.577 319.88C496.211 317.151 493.933 314.878 491.656 313.058C489.379 311.239 486.191 309.875 483.459 309.42C478.449 308.966 472.984 308.966 468.43 310.33C463.42 311.694 458.866 313.968 454.767 317.151C450.668 320.335 447.48 324.427 444.748 328.975C442.015 333.523 439.738 338.525 438.827 343.073C438.827 343.527 438.372 343.982 437.461 343.982C433.362 344.437 428.808 344.892 425.164 346.711C421.065 348.53 417.877 350.804 415.6 354.442C413.323 358.08 412.868 362.627 412.868 366.72C413.779 370.813 414.689 375.361 416.056 379.453Z" fill="#7F65C1"/>
<path d="M501.018 420.841C486.899 391.736 427.694 380.367 408.111 395.374C387.161 411.291 378.053 500.878 378.053 500.878L469.593 514.976C469.593 514.976 512.859 445.398 501.018 420.841Z" fill="#7F65C1"/>
<path d="M466.406 378.544C466.406 378.544 462.763 394.915 461.397 396.734C460.03 398.099 456.387 399.463 455.931 394.915C455.476 390.368 461.852 377.18 461.852 377.18L466.406 378.544Z" fill="#FF97A6"/>
<path d="M457.754 386.734C459.12 384.006 459.576 380.822 459.576 380.822L465.041 383.551C465.041 383.551 464.585 385.825 464.13 388.553C462.308 389.917 459.12 390.372 457.754 386.734Z" fill="#C95D77"/>
<path d="M448.196 370.363C447.74 368.089 449.562 360.358 451.384 353.992C452.75 348.534 458.671 345.351 463.68 347.17C471.878 349.444 480.986 353.082 483.264 354.901C486.452 358.539 485.085 363.996 484.63 368.089C483.719 372.182 480.531 379.458 477.343 382.641C474.155 385.37 466.868 386.734 463.225 385.37C451.384 382.641 449.107 379.003 448.196 370.363Z" fill="#FCA4A4"/>
<path d="M503.755 424.479C494.647 404.924 471.42 396.738 471.42 396.738C471.42 396.738 467.321 421.75 457.302 446.307C444.55 477.685 417.68 506.79 417.68 506.79C417.68 506.79 432.709 510.428 443.184 511.338C450.015 512.247 469.598 514.521 469.598 514.521C469.598 514.521 515.596 449.036 503.755 424.479Z" fill="#664EAF"/>
<path d="M489.64 409.469C496.471 414.471 504.669 419.474 502.847 443.121C501.025 472.681 473.244 500.876 448.196 501.785C429.524 502.24 449.107 484.05 449.107 484.05L471.878 440.848C472.334 440.393 486.907 407.195 489.64 409.469Z" fill="#664EAF"/>
<path d="M464.862 523.562C471.027 523.954 482.908 518.058 486.513 512.037" stroke="#7F65C1" stroke-width="5.89971" stroke-linecap="round" stroke-linejoin="round"/>
<path d="M336.609 545.122C327.43 560.591 327.43 580.99 327.43 598.25" stroke="#FFCB49" stroke-width="5.89971" stroke-linecap="round" stroke-linejoin="round"/>
<path d="M444.547 456.769L457.299 469.048H455.021C461.853 463.59 468.684 457.224 475.06 450.857C478.248 447.674 480.981 444.036 483.713 440.398C486.446 436.76 488.723 432.667 489.634 428.119C488.723 432.667 486.901 436.76 484.624 440.852C482.347 444.945 479.614 448.583 476.426 452.221C470.506 459.498 464.13 465.864 457.299 471.776C456.843 472.231 455.932 472.231 455.477 471.776L442.27 460.407L444.547 456.769Z" fill="#7F65C1"/>
<path d="M460.489 360.355C460.489 364.448 457.301 367.631 452.747 366.722C450.014 366.267 448.193 362.629 448.193 360.355C448.193 356.717 450.925 353.988 454.113 353.988C458.212 353.988 460.489 356.717 460.489 360.355C460.489 360.81 462.766 360.81 462.766 360.355C462.311 350.35 446.371 350.35 446.371 360.355C446.371 370.36 462.311 369.905 462.766 360.355C462.766 359.9 460.489 359.9 460.489 360.355Z" fill="white"/>
<path d="M480.988 365.364C480.988 368.092 479.621 370.821 476.889 371.731C472.79 373.55 468.691 369.911 468.691 365.819C468.691 363.545 470.057 360.816 472.335 359.907C476.433 357.178 480.532 360.816 480.988 365.364C480.988 366.273 483.265 366.273 482.809 365.819C482.354 356.269 466.414 354.904 466.414 365.364C466.414 375.369 482.354 376.278 482.809 365.819C482.809 365.364 480.988 364.909 480.988 365.364Z" fill="white"/>
<path d="M474.949 429.57L451.182 420.941L447.135 432.092L470.902 440.721L474.949 429.57Z" fill="white"/>
<path d="M461.864 362.623C463.685 362.168 465.507 363.078 466.873 364.442C466.873 364.897 468.24 364.442 467.784 364.442C466.418 362.168 464.141 361.713 461.864 362.623C460.953 362.168 461.408 362.623 461.864 362.623Z" fill="white"/>
<path d="M439.081 389.004C439.081 389.004 438.17 418.564 439.992 420.837C441.814 423.111 476.882 399.464 476.882 399.464C476.882 399.464 456.387 387.64 439.081 389.004Z" fill="#FF97A6"/>
<path d="M472.332 340.797C472.332 340.797 472.332 372.63 488.272 376.723C504.212 381.27 495.103 352.166 495.103 352.166L472.332 340.797Z" fill="#3B2B5B"/>
<path d="M355.622 478.242C355.622 478.242 379.726 439.611 387.055 427.23C390.298 421.526 397.725 402.124 397.725 402.124C401.877 396.355 412.796 390.701 429.668 390.402C426.623 405.211 396.755 453.405 396.625 451.59C392.022 463.775 386.186 477.872 378.403 490.285C370.296 504.545 355.622 478.242 355.622 478.242Z" fill="#7F65C1"/>
<path d="M290.263 510.371C290.263 510.371 280.358 520.922 275.933 520.073C271.886 518.969 268.226 519.25 267.96 517.234C268.326 515.338 272.629 516.818 272.629 516.818C272.629 516.818 268.204 515.97 267.694 515.217C267.184 514.464 268.57 514.074 268.57 514.074C268.57 514.074 268.071 514.961 268.692 513.442C269.69 511.668 277.764 510.595 279.782 510.327C281.679 510.691 287.202 505.852 291.117 505.948C292.758 505.935 291.882 507.077 290.263 510.371Z" fill="#FF97A6"/>
<path d="M298.257 497.814C309.58 491.794 360.474 474.36 360.474 474.36C360.474 474.36 392.181 476.509 378.528 492.894C367.881 505.596 356.458 515.528 333.656 523.278C299.896 535.151 285.613 514.064 285.613 514.064C285.613 514.064 286.678 503.456 298.257 497.814Z" fill="#7F65C1"/>
<path d="M359.366 447.66C359.366 447.66 354.116 454.412 349.432 454.243C345.153 453.868 338.406 449.646 338.2 449.241C337.375 447.619 344.115 450.824 344.115 450.824C344.115 450.824 336.151 447.222 336.75 445.386C336.949 444.774 340.01 445.769 340.01 445.769C340.01 445.769 338.586 445.983 339.391 444.553C340.196 443.123 345.912 445.318 347.749 445.915C349.785 445.9 355.261 442.604 358.927 442.78C360.957 441.748 361.589 444.998 359.366 447.66Z" fill="#FF97A6"/>
<path d="M453.525 493.135C436.677 501.194 357.137 481.442 355.123 453.382C354.445 443.012 360.327 439.51 360.327 439.51L451.497 463.042C451.497 463.042 473.827 483.83 453.525 493.135Z" fill="#664EAF"/>
</svg>
