<svg width="55" height="41" viewBox="0 0 55 41" fill="none" xmlns="http://www.w3.org/2000/svg">
<path fill-rule="evenodd" clip-rule="evenodd" d="M20.9741 0.0221262H40.4981L44.974 8.01618H54.1138C54.3512 8.01618 54.5789 8.11135 54.7468 8.28074C54.9146 8.45014 55.009 8.6799 55.009 8.91946V40.1053C55.009 40.3449 54.9146 40.5746 54.7468 40.744C54.5789 40.9134 54.3512 41.0086 54.1138 41.0086H0.895182C0.657765 41.0086 0.430072 40.9134 0.262193 40.744C0.0943136 40.5746 0 40.3449 0 40.1053V8.91043C0 8.67086 0.0943136 8.44111 0.262193 8.27171C0.430072 8.10231 0.657765 8.00714 0.895182 8.00714H5.0175V5.14826H10.0977V8.01618H15.6299L19.0808 1.1422C19.7791 -0.257891 19.3986 0.0221262 20.9741 0.0221262ZM29.8275 14.3166C31.5589 14.3155 33.2518 14.8327 34.6918 15.8029C36.1318 16.773 37.2542 18.1524 37.9169 19.7665C38.5797 21.3806 38.753 23.1567 38.4149 24.8702C38.0768 26.5837 37.2425 28.1575 36.0177 29.3924L35.9147 29.4872C34.8854 30.4936 33.6269 31.2295 32.2497 31.6301C30.8725 32.0308 29.4189 32.084 28.0166 31.785C26.6143 31.4861 25.3062 30.8441 24.2074 29.9156C23.1085 28.987 22.2526 27.8003 21.7147 26.4598C21.1768 25.1193 20.9734 23.666 21.1226 22.2276C21.2717 20.7892 21.7687 19.4098 22.5698 18.2106C23.371 17.0114 24.4518 16.0291 25.7173 15.3502C26.9828 14.6712 28.3942 14.3162 29.8275 14.3166ZM33.7484 19.1898C32.9756 18.4131 31.9928 17.8839 30.9232 17.6684C29.8536 17.4529 28.7447 17.5607 27.7356 17.9783C26.7264 18.3959 25.8619 19.1048 25.2502 20.016C24.6386 20.9273 24.307 22.0004 24.2972 23.1009C24.2873 24.2015 24.5996 25.2805 25.1948 26.2027C25.79 27.125 26.6417 27.8495 27.6432 28.2854C28.6447 28.7214 29.7515 28.8494 30.8248 28.6534C31.898 28.4575 32.8902 27.9463 33.6768 27.1838L33.7484 27.098C34.2637 26.5787 34.6726 25.962 34.9515 25.2831C35.2305 24.6043 35.374 23.8766 35.374 23.1416C35.374 22.4067 35.2305 21.679 34.9515 21.0002C34.6726 20.3213 34.2637 19.7046 33.7484 19.1853V19.1898ZM49.2664 11.9635C49.7887 11.9635 50.2992 12.1198 50.7335 12.4126C51.1678 12.7054 51.5063 13.1216 51.7061 13.6085C51.906 14.0954 51.9583 14.6312 51.8564 15.1481C51.7545 15.665 51.503 16.1398 51.1337 16.5124C50.7644 16.8851 50.2938 17.1389 49.7816 17.2417C49.2693 17.3445 48.7383 17.2917 48.2558 17.0901C47.7732 16.8884 47.3608 16.5468 47.0706 16.1086C46.7804 15.6704 46.6256 15.1552 46.6256 14.6282C46.6256 13.9215 46.9038 13.2437 47.399 12.744C47.8943 12.2443 48.566 11.9635 49.2664 11.9635ZM29.832 9.80919C32.4461 9.80919 35.0015 10.5914 37.1751 12.0569C39.3487 13.5224 41.0428 15.6053 42.0432 18.0423C43.0436 20.4793 43.3053 23.161 42.7953 25.7481C42.2854 28.3352 41.0265 30.7116 39.178 32.5768C37.3296 34.442 34.9744 35.7123 32.4105 36.2269C29.8466 36.7415 27.189 36.4774 24.7739 35.4679C22.3587 34.4585 20.2945 32.749 18.8421 30.5558C17.3898 28.3625 16.6146 25.784 16.6146 23.1462C16.6146 19.609 18.0071 16.2167 20.4859 13.7155C22.9646 11.2143 26.3265 9.80919 29.832 9.80919Z" fill="black"/>
</svg>
