<svg width="320" height="237" viewBox="0 0 320 237" fill="none" xmlns="http://www.w3.org/2000/svg">
<circle cx="3.05412" cy="3.05412" r="3.05412" fill="#EF725B"/>
<circle cx="3.05412" cy="36.0385" r="3.05412" fill="#EF725B"/>
<circle cx="3.05412" cy="69.0229" r="3.05412" fill="#EF725B"/>
<circle cx="3.05412" cy="102.008" r="3.05412" fill="#EF725B"/>
<circle cx="3.05412" cy="134.992" r="3.05412" fill="#EF725B"/>
<circle cx="3.05412" cy="167.976" r="3.05412" fill="#EF725B"/>
<circle cx="3.05412" cy="200.961" r="3.05412" fill="#EF725B"/>
<circle cx="3.05412" cy="233.946" r="3.05412" fill="#EF725B"/>
<circle cx="37.8711" cy="3.05412" r="3.05412" fill="#EF725B"/>
<circle cx="37.8711" cy="36.0385" r="3.05412" fill="#EF725B"/>
<circle cx="37.8711" cy="69.0229" r="3.05412" fill="#EF725B"/>
<circle cx="37.8711" cy="102.008" r="3.05412" fill="#EF725B"/>
<circle cx="37.8711" cy="134.992" r="3.05412" fill="#EF725B"/>
<circle cx="37.8711" cy="167.976" r="3.05412" fill="#EF725B"/>
<circle cx="37.8711" cy="200.961" r="3.05412" fill="#EF725B"/>
<circle cx="37.8711" cy="233.946" r="3.05412" fill="#EF725B"/>
<circle cx="72.6882" cy="3.05412" r="3.05412" fill="#EF725B"/>
<circle cx="72.6882" cy="36.0385" r="3.05412" fill="#EF725B"/>
<circle cx="72.6882" cy="69.0229" r="3.05412" fill="#EF725B"/>
<circle cx="72.6882" cy="102.008" r="3.05412" fill="#EF725B"/>
<circle cx="72.6882" cy="134.992" r="3.05412" fill="#EF725B"/>
<circle cx="72.6882" cy="167.976" r="3.05412" fill="#EF725B"/>
<circle cx="72.6882" cy="200.961" r="3.05412" fill="#EF725B"/>
<circle cx="72.6882" cy="233.946" r="3.05412" fill="#EF725B"/>
<circle cx="107.505" cy="3.05412" r="3.05412" fill="#EF725B"/>
<circle cx="107.505" cy="36.0385" r="3.05412" fill="#EF725B"/>
<circle cx="107.505" cy="69.0229" r="3.05412" fill="#EF725B"/>
<circle cx="107.505" cy="102.008" r="3.05412" fill="#EF725B"/>
<circle cx="107.505" cy="134.992" r="3.05412" fill="#EF725B"/>
<circle cx="107.505" cy="167.976" r="3.05412" fill="#EF725B"/>
<circle cx="107.505" cy="200.961" r="3.05412" fill="#EF725B"/>
<circle cx="107.505" cy="233.946" r="3.05412" fill="#EF725B"/>
<circle cx="142.322" cy="3.05412" r="3.05412" fill="#EF725B"/>
<circle cx="142.322" cy="36.0385" r="3.05412" fill="#EF725B"/>
<circle cx="142.322" cy="69.0229" r="3.05412" fill="#EF725B"/>
<circle cx="142.322" cy="102.008" r="3.05412" fill="#EF725B"/>
<circle cx="142.322" cy="134.992" r="3.05412" fill="#EF725B"/>
<circle cx="142.322" cy="167.976" r="3.05412" fill="#EF725B"/>
<circle cx="142.322" cy="200.961" r="3.05412" fill="#EF725B"/>
<circle cx="142.322" cy="233.946" r="3.05412" fill="#EF725B"/>
<circle cx="177.139" cy="3.05412" r="3.05412" fill="#EF725B"/>
<circle cx="177.139" cy="36.0385" r="3.05412" fill="#EF725B"/>
<circle cx="177.139" cy="69.0229" r="3.05412" fill="#EF725B"/>
<circle cx="177.139" cy="102.008" r="3.05412" fill="#EF725B"/>
<circle cx="177.139" cy="134.992" r="3.05412" fill="#EF725B"/>
<circle cx="177.139" cy="167.976" r="3.05412" fill="#EF725B"/>
<circle cx="177.139" cy="200.961" r="3.05412" fill="#EF725B"/>
<circle cx="177.139" cy="233.946" r="3.05412" fill="#EF725B"/>
<circle cx="211.956" cy="3.05412" r="3.05412" fill="#EF725B"/>
<circle cx="211.956" cy="36.0385" r="3.05412" fill="#EF725B"/>
<circle cx="211.956" cy="69.0229" r="3.05412" fill="#EF725B"/>
<circle cx="211.956" cy="102.008" r="3.05412" fill="#EF725B"/>
<circle cx="211.956" cy="134.992" r="3.05412" fill="#EF725B"/>
<circle cx="211.956" cy="167.976" r="3.05412" fill="#EF725B"/>
<circle cx="211.956" cy="200.961" r="3.05412" fill="#EF725B"/>
<circle cx="211.956" cy="233.946" r="3.05412" fill="#EF725B"/>
<circle cx="246.773" cy="3.05412" r="3.05412" fill="#EF725B"/>
<circle cx="246.773" cy="36.0385" r="3.05412" fill="#EF725B"/>
<circle cx="246.773" cy="69.0229" r="3.05412" fill="#EF725B"/>
<circle cx="246.773" cy="102.008" r="3.05412" fill="#EF725B"/>
<circle cx="246.773" cy="134.992" r="3.05412" fill="#EF725B"/>
<circle cx="246.773" cy="167.976" r="3.05412" fill="#EF725B"/>
<circle cx="246.773" cy="200.961" r="3.05412" fill="#EF725B"/>
<circle cx="246.773" cy="233.946" r="3.05412" fill="#EF725B"/>
<circle cx="281.59" cy="3.05412" r="3.05412" fill="#EF725B"/>
<circle cx="281.59" cy="36.0385" r="3.05412" fill="#EF725B"/>
<circle cx="281.59" cy="69.0229" r="3.05412" fill="#EF725B"/>
<circle cx="281.59" cy="102.008" r="3.05412" fill="#EF725B"/>
<circle cx="281.59" cy="134.992" r="3.05412" fill="#EF725B"/>
<circle cx="281.59" cy="167.976" r="3.05412" fill="#EF725B"/>
<circle cx="281.59" cy="200.961" r="3.05412" fill="#EF725B"/>
<circle cx="281.59" cy="233.946" r="3.05412" fill="#EF725B"/>
<circle cx="316.407" cy="3.05412" r="3.05412" fill="#EF725B"/>
<circle cx="316.407" cy="36.0385" r="3.05412" fill="#EF725B"/>
<circle cx="316.407" cy="69.0229" r="3.05412" fill="#EF725B"/>
<circle cx="316.407" cy="102.008" r="3.05412" fill="#EF725B"/>
<circle cx="316.407" cy="134.992" r="3.05412" fill="#EF725B"/>
<circle cx="316.407" cy="167.976" r="3.05412" fill="#EF725B"/>
<circle cx="316.407" cy="200.961" r="3.05412" fill="#EF725B"/>
<circle cx="316.407" cy="233.946" r="3.05412" fill="#EF725B"/>
</svg>
