<svg width="137" height="46" viewBox="0 0 137 46" fill="none" xmlns="http://www.w3.org/2000/svg">
<path d="M89.168 42C88.1707 42 87.44 41.768 86.976 41.304C86.512 40.84 86.28 40.1093 86.28 39.112V37.32C86.28 36.3227 86.512 35.5947 86.976 35.136C87.44 34.672 88.1707 34.44 89.168 34.44H92.52V31.32C92.52 31.0427 92.6613 30.904 92.944 30.904C93.2213 30.904 93.36 31.0427 93.36 31.32V41.576C93.36 41.8587 93.2213 42 92.944 42C92.6613 42 92.52 41.8587 92.52 41.576V40.888C92.2907 41.256 91.9547 41.5333 91.512 41.72C91.0693 41.9067 90.4907 42 89.776 42H89.168ZM89.168 41.16H89.776C90.608 41.16 91.272 41.0293 91.768 40.768C92.2693 40.5013 92.52 40.104 92.52 39.576V35.28H89.168C88.4053 35.28 87.872 35.432 87.568 35.736C87.2693 36.0347 87.12 36.5627 87.12 37.32V39.112C87.12 39.8747 87.2693 40.408 87.568 40.712C87.872 41.0107 88.4053 41.16 89.168 41.16ZM96.8388 38.544V39.128C96.8388 39.88 96.9881 40.408 97.2868 40.712C97.5908 41.0107 98.1241 41.16 98.8868 41.16H100.199C100.871 41.16 101.359 41.0747 101.663 40.904C101.972 40.728 102.156 40.4267 102.215 40C102.236 39.8667 102.279 39.7653 102.343 39.696C102.412 39.6267 102.516 39.592 102.655 39.592C102.793 39.592 102.897 39.632 102.967 39.712C103.041 39.7867 103.071 39.8933 103.055 40.032C102.985 40.704 102.716 41.2 102.247 41.52C101.777 41.84 101.095 42 100.199 42H98.8868C97.8894 42 97.1588 41.7707 96.6948 41.312C96.2308 40.848 95.9988 40.12 95.9988 39.128V37.32C95.9988 36.312 96.2308 35.5787 96.6948 35.12C97.1588 34.656 97.8894 34.4293 98.8868 34.44H100.199C101.196 34.44 101.924 34.672 102.383 35.136C102.847 35.5947 103.079 36.3227 103.079 37.32V38.12C103.079 38.4027 102.94 38.544 102.663 38.544H96.8388ZM98.8868 35.28C98.1241 35.2693 97.5908 35.416 97.2868 35.72C96.9881 36.0187 96.8388 36.552 96.8388 37.32V37.704H102.239V37.32C102.239 36.5573 102.089 36.0267 101.791 35.728C101.492 35.4293 100.961 35.28 100.199 35.28H98.8868ZM107.511 41.984C106.855 41.984 106.354 41.8453 106.007 41.568C105.661 41.2853 105.453 40.856 105.383 40.28C105.367 40.1413 105.397 40.0347 105.471 39.96C105.546 39.88 105.655 39.84 105.799 39.84C105.933 39.84 106.031 39.8747 106.095 39.944C106.165 40.0133 106.21 40.1173 106.231 40.256C106.279 40.5867 106.399 40.8187 106.591 40.952C106.789 41.08 107.095 41.144 107.511 41.144H110.135C110.631 41.144 110.973 41.0507 111.159 40.864C111.346 40.6773 111.439 40.336 111.439 39.84C111.439 39.3387 111.346 38.9947 111.159 38.808C110.973 38.6213 110.631 38.528 110.135 38.528H107.543C106.85 38.528 106.333 38.3627 105.991 38.032C105.655 37.696 105.487 37.1813 105.487 36.488C105.487 35.7787 105.655 35.2587 105.991 34.928C106.327 34.592 106.845 34.424 107.543 34.424H110.055C111.261 34.424 111.93 34.9573 112.063 36.024C112.085 36.1627 112.055 36.272 111.975 36.352C111.901 36.4267 111.794 36.464 111.655 36.464C111.522 36.464 111.421 36.4293 111.351 36.36C111.287 36.2907 111.242 36.1893 111.215 36.056C111.178 35.7573 111.069 35.552 110.887 35.44C110.711 35.3227 110.434 35.264 110.055 35.264H107.543C107.079 35.264 106.759 35.3493 106.583 35.52C106.413 35.6907 106.327 36.0133 106.327 36.488C106.327 36.9413 106.415 37.256 106.591 37.432C106.767 37.6027 107.085 37.688 107.543 37.688H110.135C110.871 37.688 111.413 37.864 111.759 38.216C112.106 38.5627 112.279 39.104 112.279 39.84C112.279 40.5707 112.106 41.112 111.759 41.464C111.413 41.8107 110.871 41.984 110.135 41.984H107.511ZM115.033 32.984C114.665 32.984 114.481 32.7947 114.481 32.416V32.056C114.481 31.688 114.665 31.504 115.033 31.504H115.393C115.75 31.504 115.929 31.688 115.929 32.056V32.416C115.929 32.7947 115.75 32.984 115.393 32.984H115.033ZM115.217 42C114.934 42 114.793 41.8587 114.793 41.576V34.856C114.793 34.5787 114.934 34.44 115.217 34.44C115.494 34.44 115.633 34.5787 115.633 34.856V41.576C115.633 41.8587 115.494 42 115.217 42ZM120.461 45.2C119.832 45.2 119.352 45.0693 119.021 44.808C118.69 44.552 118.496 44.1467 118.437 43.592C118.421 43.4533 118.45 43.344 118.525 43.264C118.6 43.184 118.704 43.144 118.837 43.144C118.97 43.144 119.072 43.1787 119.141 43.248C119.21 43.3173 119.256 43.4213 119.277 43.56C119.314 43.8693 119.424 44.08 119.605 44.192C119.786 44.304 120.072 44.36 120.461 44.36H123.437C123.906 44.36 124.224 44.2747 124.389 44.104C124.56 43.9333 124.645 43.6133 124.645 43.144V40.856C124.4 41.2293 124.053 41.5147 123.605 41.712C123.157 41.904 122.589 42 121.901 42H121.293C120.296 42 119.565 41.7707 119.101 41.312C118.637 40.848 118.405 40.12 118.405 39.128V37.32C118.405 36.312 118.634 35.5813 119.093 35.128C119.557 34.6693 120.29 34.44 121.293 34.44H122.605C123.128 34.44 123.552 34.5093 123.877 34.648C124.202 34.7867 124.458 35.0027 124.645 35.296V34.856C124.645 34.5787 124.786 34.44 125.069 34.44C125.346 34.44 125.485 34.5787 125.485 34.856V43.144C125.485 43.848 125.32 44.3653 124.989 44.696C124.658 45.032 124.141 45.2 123.437 45.2H120.461ZM121.293 41.16H121.901C122.733 41.16 123.397 41.0293 123.893 40.768C124.394 40.5067 124.645 40.1093 124.645 39.576V36.904C124.645 36.3013 124.477 35.88 124.141 35.64C123.805 35.4 123.293 35.28 122.605 35.28H121.293C120.53 35.28 119.997 35.4293 119.693 35.728C119.394 36.0213 119.245 36.552 119.245 37.32V39.128C119.245 39.88 119.394 40.408 119.693 40.712C119.997 41.0107 120.53 41.16 121.293 41.16ZM128.764 42C128.481 42 128.34 41.8587 128.34 41.576V34.856C128.34 34.5787 128.481 34.44 128.764 34.44C129.041 34.44 129.18 34.5787 129.18 34.856V35.624C129.686 34.8347 130.604 34.44 131.932 34.44H132.38C133.377 34.44 134.105 34.672 134.564 35.136C135.028 35.5947 135.26 36.3227 135.26 37.32V41.576C135.26 41.8587 135.121 42 134.844 42C134.561 42 134.42 41.8587 134.42 41.576V37.32C134.42 36.5573 134.268 36.0267 133.964 35.728C133.665 35.4293 133.137 35.28 132.38 35.28H131.932C131.105 35.28 130.454 35.4107 129.98 35.672C129.505 35.9333 129.238 36.3413 129.18 36.896V41.576C129.18 41.8587 129.041 42 128.764 42Z" fill="#D9920A"/>
<path d="M11.3086 11.9707C11.5723 11.9023 11.8359 11.834 12.0996 11.7656C12.373 11.6973 12.6465 11.6387 12.9199 11.5898C13.2031 11.541 13.4766 11.5166 13.7402 11.5166C14.3066 11.5166 14.79 11.6436 15.1904 11.8975C15.6006 12.1514 15.9033 12.498 16.0986 12.9375C16.3037 13.3672 16.4062 13.8359 16.4062 14.3438C16.4062 15.1348 16.2598 16.043 15.9668 17.0684C15.6836 18.084 15.2734 19.1191 14.7363 20.1738C14.1992 21.2285 13.5693 22.2246 12.8467 23.1621C11.8604 24.4316 10.6738 25.457 9.28711 26.2383C7.91016 27.0098 6.64551 27.3955 5.49316 27.3955C4.64355 27.3955 3.8916 27.166 3.2373 26.707C2.59277 26.2383 2.08496 25.5645 1.71387 24.6855C1.35254 23.7969 1.17188 22.7568 1.17188 21.5654C1.17188 19.9639 1.60645 18.3623 2.47559 16.7607C3.35449 15.1494 4.45801 13.6943 5.78613 12.3955C7.12402 11.0869 8.47168 10.042 9.8291 9.26074C11.1865 8.46973 12.29 8.07422 13.1396 8.07422C13.833 8.07422 14.3652 8.28906 14.7363 8.71875C15.1074 9.13867 15.4541 9.82227 15.7764 10.7695C14.8682 10.7988 14.0771 10.9111 13.4033 11.1064C12.7295 11.292 12.0312 11.5801 11.3086 11.9707ZM7.61719 14.9443C6.93359 15.6768 6.24023 16.624 5.53711 17.7861C4.84375 18.9385 4.28223 20.0713 3.85254 21.1846C3.42285 22.2979 3.20801 23.1475 3.20801 23.7334C3.20801 25.1885 3.88672 25.916 5.24414 25.916C6.19141 25.916 7.41211 25.2764 8.90625 23.9971C10.4102 22.7178 11.7139 21.1797 12.8174 19.3828C13.9307 17.5762 14.4873 15.9355 14.4873 14.4609C14.4873 13.377 14.0576 12.835 13.1982 12.835C12.5342 12.835 11.7236 13.0986 10.7666 13.626C9.80957 14.1533 8.8916 14.9004 8.0127 15.8672C7.7002 16.2188 7.08008 17.0781 6.15234 18.4453C6.32812 17.5273 6.81641 16.3604 7.61719 14.9443ZM24.4336 22.2246V23.3086C22.3926 26.0137 20.7324 27.3662 19.4531 27.3662C18.7598 27.3662 18.2129 26.9902 17.8125 26.2383C17.4219 25.4766 17.2266 24.4805 17.2266 23.25C17.2266 22.2539 17.4609 21.0723 17.9297 19.7051C18.3984 18.3281 19.0234 16.9365 19.8047 15.5303C20.5957 14.1143 21.4111 12.8838 22.251 11.8389C23.1006 10.7842 23.8867 10.0469 24.6094 9.62695C24.9023 9.45117 25.1318 9.36328 25.2979 9.36328C25.5029 9.36328 25.6396 9.45605 25.708 9.6416C25.7764 9.81738 25.8105 10.125 25.8105 10.5645C25.8105 11.9219 25.2588 13.5918 24.1553 15.5742C23.0518 17.5469 21.5137 19.5635 19.541 21.624C19.4434 22.1318 19.3945 22.5225 19.3945 22.7959C19.3945 23.4209 19.5264 23.9287 19.79 24.3193C20.0635 24.71 20.4395 24.9053 20.918 24.9053C21.1621 24.9053 21.4258 24.8125 21.709 24.627C21.9922 24.4316 22.29 24.1924 22.6025 23.9092C22.915 23.626 23.5254 23.0645 24.4336 22.2246ZM20.0537 19.5879C20.5615 19.0898 21.0498 18.5234 21.5186 17.8887C21.9971 17.2539 22.4463 16.5752 22.8662 15.8525C23.2861 15.1299 23.6133 14.4805 23.8477 13.9043C24.0918 13.3281 24.2139 12.8936 24.2139 12.6006C24.2139 12.376 24.1357 12.2637 23.9795 12.2637C23.9209 12.2637 23.8086 12.3174 23.6426 12.4248C23.0469 12.9131 22.3779 13.8701 21.6357 15.2959C20.8936 16.7119 20.3662 18.1426 20.0537 19.5879ZM26.6602 22.9131V23.2793C26.6602 23.8555 26.8018 24.3047 27.085 24.627C27.3682 24.9492 27.7393 25.1104 28.1982 25.1104C28.6768 25.1104 29.1699 24.998 29.6777 24.7734C30.1953 24.5488 30.708 24.251 31.2158 23.8799C31.7236 23.5088 32.3438 23.0107 33.0762 22.3857V23.2793C31.9727 24.6074 30.9375 25.6279 29.9707 26.3408C29.0039 27.0439 28.0225 27.3955 27.0264 27.3955C26.1572 27.3955 25.4688 27.0586 24.9609 26.3848C24.4531 25.7109 24.1992 24.7881 24.1992 23.6162C24.1992 22.5908 24.4385 21.6631 24.917 20.833C25.3955 19.9932 26.1768 19.1094 27.2607 18.1816C28.0029 17.5469 28.7402 17.0684 29.4727 16.7461C30.2051 16.4238 30.8594 16.2627 31.4355 16.2627C31.8945 16.2627 32.2559 16.3701 32.5195 16.585C32.793 16.79 32.9297 17.1025 32.9297 17.5225C32.9297 18.1377 32.7002 18.7529 32.2412 19.3682C31.7822 19.9736 31.0791 20.5791 30.1318 21.1846C29.1943 21.7803 28.0371 22.3564 26.6602 22.9131ZM26.8066 21.9609C27.6855 21.6191 28.4375 21.1943 29.0625 20.6865C29.6875 20.1787 30.1465 19.6953 30.4395 19.2363C30.7422 18.7676 30.8936 18.4258 30.8936 18.2109C30.8936 17.9863 30.791 17.874 30.5859 17.874C30.4102 17.874 30.1221 17.9863 29.7217 18.2109C29.3311 18.4355 28.9307 18.7285 28.5205 19.0898C28.1201 19.4512 27.7588 19.876 27.4365 20.3643C27.1143 20.8525 26.9043 21.3848 26.8066 21.9609ZM44.0332 22.3857V23.3086C43.1836 24.1777 42.4463 24.8906 41.8213 25.4473C41.2061 25.9941 40.6641 26.4092 40.1953 26.6924C39.7363 26.9756 39.3457 27.1172 39.0234 27.1172C38.2617 27.1172 37.8809 26.668 37.8809 25.7695C37.8809 25.0469 38.1152 24.2119 38.584 23.2646C39.0625 22.3076 39.7461 21.1846 40.6348 19.8955C40.1953 20.1396 39.7803 20.4229 39.3896 20.7451C38.999 21.0576 38.6523 21.3896 38.3496 21.7412C38.0469 22.083 37.793 22.376 37.5879 22.6201C36.9531 23.333 36.3428 24.0654 35.7568 24.8174C35.1709 25.5596 34.7754 26.043 34.5703 26.2676C34.3652 26.4922 34.1699 26.6045 33.9844 26.6045C33.2227 26.6045 32.8418 25.667 32.8418 23.792C32.8418 23.1768 32.9346 22.498 33.1201 21.7559C33.3057 21.0137 33.8037 20.0322 34.6143 18.8115C36.3232 16.2529 37.7832 14.1631 38.9941 12.542C40.2148 10.9111 41.2256 9.68066 42.0264 8.85059C42.8271 8.01074 43.3643 7.60059 43.6377 7.62012C43.9795 7.64941 44.2529 7.71777 44.458 7.8252C44.6729 7.93262 44.7803 8.05469 44.7803 8.19141C44.7803 8.43555 44.6094 8.84082 44.2676 9.40723C43.9355 9.96387 43.3594 10.8379 42.5391 12.0293C41.6504 13.2891 41.0205 14.1777 40.6494 14.6953C40.2783 15.2031 39.7217 15.9307 38.9795 16.8779C38.2471 17.8154 37.5732 18.6553 36.958 19.3975C36.3525 20.1299 35.6592 20.9258 34.8779 21.7852V23.543C36.1865 22.0879 37.3193 20.8965 38.2764 19.9688C39.2334 19.041 40.0439 18.3428 40.708 17.874C41.3721 17.3955 41.8604 17.1562 42.1729 17.1562C42.4658 17.1562 42.7393 17.332 42.9932 17.6836C43.2471 18.0254 43.374 18.3086 43.374 18.5332C43.374 18.6309 43.3252 18.7529 43.2275 18.8994C42.5244 19.7393 41.9629 20.4375 41.543 20.9941C41.1328 21.541 40.8154 22.0342 40.5908 22.4736C40.3662 22.9033 40.2539 23.2744 40.2539 23.5869C40.2539 24.0459 40.4736 24.2754 40.9131 24.2754C41.3818 24.2754 42.4219 23.6455 44.0332 22.3857ZM63.6035 25.6523L58.0811 22.957C56.6748 24.8809 55.8887 26.1504 55.7227 26.7656C55.6055 27.2051 55.3418 27.5713 54.9316 27.8643C54.5312 28.167 54.2432 28.3184 54.0674 28.3184C53.5693 28.3184 53.3203 28.1279 53.3203 27.7471C53.3203 27.5322 53.6133 26.917 54.1992 25.9014C54.7949 24.876 55.6104 23.6699 56.6455 22.2832C56.0693 22.0488 55.7129 21.8926 55.5762 21.8145C55.4395 21.7363 55.3857 21.5898 55.415 21.375C55.4443 21.1504 55.6152 20.8037 55.9277 20.335C56.2012 19.9248 56.4062 19.6514 56.543 19.5146C56.6797 19.3682 56.8408 19.2559 57.0264 19.1777C57.2119 19.0898 57.4072 19.0312 57.6123 19.002C57.8174 18.9727 58.3936 18.8994 59.3408 18.7822C60.1123 17.7373 60.9473 16.6094 61.8457 15.3984C62.7539 14.1875 63.4619 13.2451 63.9697 12.5713C62.4365 12.7764 61.3672 12.9473 60.7617 13.084C60.1172 13.2109 59.5752 13.3184 59.1357 13.4062C58.7061 13.4844 58.4033 13.5576 58.2275 13.626C58.0518 13.6846 57.9639 13.7725 57.9639 13.8896C57.9639 13.9971 58.0713 14.0703 58.2861 14.1094C58.501 14.1484 58.7695 14.168 59.0918 14.168C59.4238 14.168 59.6777 14.1826 59.8535 14.2119C60.0391 14.2314 60.1318 14.2852 60.1318 14.373C60.1318 14.4707 60.0098 14.5293 59.7656 14.5488C59.5312 14.5586 58.8623 14.5879 57.7588 14.6367C57.1338 14.6562 56.6064 14.6758 56.1768 14.6953C55.7568 14.7148 55.4639 14.7246 55.2979 14.7246C55.0732 14.7246 54.8975 14.6562 54.7705 14.5195C54.6436 14.3828 54.5801 14.2021 54.5801 13.9775C54.5801 13.8115 54.6729 13.5039 54.8584 13.0547C55.0439 12.6055 55.3076 12.1514 55.6494 11.6924C55.9912 11.2334 56.3818 10.877 56.8213 10.623C57.3193 10.3203 58.0908 10.0176 59.1357 9.71484C60.1904 9.40234 61.3574 9.15332 62.6367 8.96777C63.9258 8.77246 65.2002 8.6748 66.46 8.6748C67.2217 8.6748 67.9639 8.71875 68.6865 8.80664C69.4189 8.89453 70.0781 9.00195 70.6641 9.12891C71.2598 9.25586 71.7285 9.38281 72.0703 9.50977C72.959 9.80273 73.6377 10.2471 74.1064 10.8428C74.585 11.4385 74.8242 12.0928 74.8242 12.8057C74.8242 13.499 74.7021 14.1777 74.458 14.8418C74.2236 15.4961 73.8574 16.1064 73.3594 16.6729C72.8711 17.2295 72.2803 17.6836 71.5869 18.0352C71.0205 18.3281 70.1611 18.626 69.0088 18.9287C67.8564 19.2314 66.4648 19.5 64.834 19.7344C63.2031 19.9688 61.3818 20.1396 59.3701 20.2471C60.874 20.7744 62.2754 21.3066 63.5742 21.8438C64.8828 22.3711 65.9814 22.8447 66.8701 23.2646C67.7686 23.6748 68.4717 24.0117 68.9795 24.2754C69.6924 24.6465 70.1562 24.915 70.3711 25.0811C70.5859 25.2471 70.7275 25.4619 70.7959 25.7256C70.8643 25.9893 70.8984 26.4238 70.8984 27.0293C70.8984 27.7129 70.8545 28.2158 70.7666 28.5381C70.6885 28.8701 70.5127 29.0361 70.2393 29.0361C70.1514 29.0361 69.917 28.9385 69.5361 28.7432C69.165 28.5576 68.6475 28.2793 67.9834 27.9082C67.3193 27.5469 66.7139 27.2246 66.167 26.9414C65.6299 26.6484 64.7754 26.2188 63.6035 25.6523ZM64.8926 12.4248C64.9023 12.4932 64.9072 12.5566 64.9072 12.6152C64.917 12.6738 64.9219 12.7568 64.9219 12.8643C64.9219 13.1377 64.834 13.4551 64.6582 13.8164C64.4922 14.168 64.2725 14.5342 63.999 14.915C63.7354 15.2861 63.335 15.8232 62.7979 16.5264C62.2705 17.2197 61.7822 17.8594 61.333 18.4453C63.3838 18.0547 65.1318 17.6787 66.5771 17.3174C68.0322 16.9561 69.2285 16.5947 70.166 16.2334C71.1035 15.8623 71.8066 15.4766 72.2754 15.0762C72.7539 14.666 72.9932 14.2412 72.9932 13.8018C72.9932 13.3135 72.4951 12.9326 71.499 12.6592C70.5127 12.376 69.3018 12.2344 67.8662 12.2344C67.5732 12.2344 67.2607 12.2441 66.9287 12.2637C66.6064 12.2734 66.2158 12.3027 65.7568 12.3516C65.3076 12.3906 65.0195 12.415 64.8926 12.4248ZM79.0576 21.3896C77.6416 23.2646 76.5625 24.5977 75.8203 25.3887C75.0879 26.1797 74.4873 26.5752 74.0186 26.5752C73.6475 26.5752 73.3057 26.4238 72.9932 26.1211C72.6807 25.8086 72.4365 25.3936 72.2607 24.876C72.0947 24.3486 72.0117 23.7871 72.0117 23.1914C72.0117 22.8008 72.0459 22.4492 72.1143 22.1367C72.1924 21.8242 72.334 21.4824 72.5391 21.1113C72.7441 20.7305 73.0127 20.3203 73.3447 19.8809C73.6865 19.4414 74.1016 18.9434 74.5898 18.3867C74.8828 18.0449 75.127 17.7568 75.3223 17.5225C75.5273 17.2881 75.7227 17.1318 75.9082 17.0537C76.1035 16.9658 76.416 16.9219 76.8457 16.9219C77.1582 16.9219 77.4561 16.9658 77.7393 17.0537C78.0225 17.1318 78.1641 17.2148 78.1641 17.3027C78.1641 17.4785 78.0176 17.7959 77.7246 18.2549C77.4414 18.7139 76.9775 19.2754 76.333 19.9395C75.6982 20.5938 74.9609 21.2383 74.1211 21.873C73.9355 22.4492 73.8428 22.8887 73.8428 23.1914C73.8428 23.6113 74.0039 23.8213 74.3262 23.8213C74.4434 23.8213 74.6387 23.7236 74.9121 23.5283C75.1855 23.3232 75.6445 22.9375 76.2891 22.3711C76.9434 21.7949 77.5293 21.2871 78.0469 20.8477C78.4277 20.5156 78.8672 20.0225 79.3652 19.3682C79.873 18.7041 80.2832 18.2061 80.5957 17.874C81.3184 17.1123 81.8115 16.6191 82.0752 16.3945C82.3389 16.1602 82.5928 16.043 82.8369 16.043C83.0713 16.043 83.2275 16.1162 83.3057 16.2627C83.3936 16.4092 83.4375 16.707 83.4375 17.1562C83.4375 17.3613 83.418 17.5273 83.3789 17.6543C83.3398 17.7812 83.2568 17.9473 83.1299 18.1523C83.0127 18.3477 82.7686 18.7139 82.3975 19.251C82.0264 19.7881 81.5869 20.4229 81.0791 21.1553C80.8057 21.5459 80.5664 21.9756 80.3613 22.4443C80.1562 22.9033 80.0537 23.25 80.0537 23.4844C80.0537 23.9922 80.2539 24.2461 80.6543 24.2461C80.9863 24.2461 81.3721 24.1094 81.8115 23.8359C82.251 23.5625 82.9248 23.0693 83.833 22.3564V23.3379C82.6904 24.3926 81.8457 25.1592 81.2988 25.6377C80.752 26.1162 80.2783 26.4775 79.8779 26.7217C79.4775 26.9658 79.0967 27.0879 78.7354 27.0879C77.915 27.0879 77.5049 26.5996 77.5049 25.623C77.5049 25.252 77.627 24.7539 77.8711 24.1289C78.1152 23.4941 78.5107 22.5811 79.0576 21.3896ZM90.3955 22.415C89.5361 23.3916 88.7646 24.2217 88.0811 24.9053C87.4072 25.5889 86.8555 26.1016 86.4258 26.4434C86.0059 26.7754 85.7178 26.9414 85.5615 26.9414C85.3076 26.9414 85.0195 26.7363 84.6973 26.3262C84.3848 25.916 84.1162 25.3936 83.8916 24.7588C83.667 24.124 83.5547 23.4795 83.5547 22.8252C83.5547 21.8779 84.0137 20.9258 84.9316 19.9688C85.8496 19.002 86.8945 18.2012 88.0664 17.5664C89.2383 16.9316 90.1172 16.6143 90.7031 16.6143C91.1816 16.6143 91.6504 16.917 92.1094 17.5225C92.8613 15.9502 93.5742 14.5537 94.248 13.333C94.9316 12.1123 95.5029 11.2041 95.9619 10.6084C96.4209 10.0127 96.748 9.71484 96.9434 9.71484C97.1582 9.71484 97.3535 9.82227 97.5293 10.0371C97.7148 10.2422 97.8076 10.4766 97.8076 10.7402C97.8076 11.248 97.4365 12.1221 96.6943 13.3623C95.9521 14.5928 95.2197 15.7939 94.4971 16.9658C93.7744 18.1377 93.1543 19.2949 92.6367 20.4375C92.1191 21.5703 91.8604 22.6201 91.8604 23.5869C91.8604 24.4658 92.1436 24.9053 92.71 24.9053C93.0518 24.9053 93.4814 24.7148 93.999 24.334C94.5166 23.9434 95.2539 23.2939 96.2109 22.3857V23.4551C94.1016 26.1797 92.4756 27.542 91.333 27.542C90.874 27.542 90.542 27.3662 90.3369 27.0146C90.1416 26.6631 90.0439 26.1406 90.0439 25.4473C90.0439 24.5098 90.1611 23.499 90.3955 22.415ZM91.4795 18.8408C90.6104 19.1338 89.5898 19.6074 88.418 20.2617C87.2461 20.9062 86.5381 21.3506 86.2939 21.5947C86.0791 21.79 85.8887 22.1562 85.7227 22.6934C85.5566 23.2305 85.4736 23.6357 85.4736 23.9092C85.4736 24.0752 85.5225 24.2119 85.6201 24.3193C85.7178 24.4268 85.8398 24.4805 85.9863 24.4805C86.123 24.4805 86.2793 24.4219 86.4551 24.3047C86.6309 24.1875 86.9092 23.958 87.29 23.6162C87.6807 23.2744 87.9346 23.0547 88.0518 22.957C88.2178 22.8105 88.584 22.498 89.1504 22.0195C89.7266 21.5312 90.1465 21.1504 90.4102 20.877C90.6738 20.6035 90.8984 20.3008 91.084 19.9688C91.2695 19.627 91.4014 19.251 91.4795 18.8408ZM98.5547 22.9131V23.2793C98.5547 23.8555 98.6963 24.3047 98.9795 24.627C99.2627 24.9492 99.6338 25.1104 100.093 25.1104C100.571 25.1104 101.064 24.998 101.572 24.7734C102.09 24.5488 102.603 24.251 103.11 23.8799C103.618 23.5088 104.238 23.0107 104.971 22.3857V23.2793C103.867 24.6074 102.832 25.6279 101.865 26.3408C100.898 27.0439 99.917 27.3955 98.9209 27.3955C98.0518 27.3955 97.3633 27.0586 96.8555 26.3848C96.3477 25.7109 96.0938 24.7881 96.0938 23.6162C96.0938 22.5908 96.333 21.6631 96.8115 20.833C97.29 19.9932 98.0713 19.1094 99.1553 18.1816C99.8975 17.5469 100.635 17.0684 101.367 16.7461C102.1 16.4238 102.754 16.2627 103.33 16.2627C103.789 16.2627 104.15 16.3701 104.414 16.585C104.688 16.79 104.824 17.1025 104.824 17.5225C104.824 18.1377 104.595 18.7529 104.136 19.3682C103.677 19.9736 102.974 20.5791 102.026 21.1846C101.089 21.7803 99.9316 22.3564 98.5547 22.9131ZM98.7012 21.9609C99.5801 21.6191 100.332 21.1943 100.957 20.6865C101.582 20.1787 102.041 19.6953 102.334 19.2363C102.637 18.7676 102.788 18.4258 102.788 18.2109C102.788 17.9863 102.686 17.874 102.48 17.874C102.305 17.874 102.017 17.9863 101.616 18.2109C101.226 18.4355 100.825 18.7285 100.415 19.0898C100.015 19.4512 99.6533 19.876 99.3311 20.3643C99.0088 20.8525 98.7988 21.3848 98.7012 21.9609ZM114.844 19.7344C113.125 21.6484 112.266 22.9814 112.266 23.7334C112.266 24.1533 112.437 24.3633 112.778 24.3633C113.062 24.3633 113.428 24.2168 113.877 23.9238C114.336 23.6211 115.049 23.0889 116.016 22.3271V23.3379C114.629 24.7051 113.564 25.6914 112.822 26.2969C112.08 26.9023 111.475 27.2051 111.006 27.2051C110.205 27.2051 109.805 26.6777 109.805 25.623C109.805 25.3105 109.854 25.0029 109.951 24.7002C110.049 24.3975 110.181 24.085 110.347 23.7627C110.522 23.4307 110.786 22.9619 111.138 22.3564C111.489 21.7412 111.895 21.0479 112.354 20.2764C111.797 20.5596 111.099 21.1211 110.259 21.9609C109.712 22.4883 109.248 22.9912 108.867 23.4697C108.486 23.9385 108.076 24.4658 107.637 25.0518C107.207 25.6279 106.89 26.0186 106.685 26.2236C106.489 26.4189 106.289 26.5166 106.084 26.5166C105.771 26.5166 105.483 26.1895 105.22 25.5352C104.956 24.8809 104.824 24.1191 104.824 23.25C104.824 22.7129 104.883 22.293 105 21.9902C105.127 21.6875 105.371 21.2578 105.732 20.7012C106.406 19.666 106.987 18.9092 107.476 18.4307C107.964 17.9424 108.433 17.6982 108.882 17.6982C109.194 17.6982 109.443 17.752 109.629 17.8594C109.824 17.9668 109.922 18.1328 109.922 18.3574C109.922 18.4551 109.893 18.5576 109.834 18.665C109.775 18.7725 109.707 18.8701 109.629 18.958C109.561 19.0459 109.409 19.2168 109.175 19.4707C107.632 21.1797 106.86 22.2881 106.86 22.7959C106.86 23.0791 106.953 23.2207 107.139 23.2207C107.256 23.2207 107.48 23.0352 107.812 22.6641C108.154 22.2832 108.589 21.79 109.116 21.1846C109.653 20.5693 110.283 19.9297 111.006 19.2656C111.738 18.6016 112.568 17.9619 113.496 17.3467C114.014 16.9854 114.443 16.8047 114.785 16.8047C114.941 16.8047 115.093 17.0195 115.239 17.4492C115.396 17.8789 115.474 18.3135 115.474 18.7529C115.474 18.9678 115.264 19.2949 114.844 19.7344ZM126.973 22.3857V23.3672C125.879 24.6465 124.961 25.6182 124.219 26.2822C123.477 26.9365 122.856 27.2637 122.358 27.2637C121.88 27.2637 121.445 27.1221 121.055 26.8389C120.674 26.5557 120.327 26.165 120.015 25.667C119.712 25.1689 119.351 24.4756 118.931 23.5869C118.433 24.2021 117.983 24.7783 117.583 25.3154C117.183 25.8428 116.904 26.1943 116.748 26.3701C116.592 26.5459 116.45 26.6338 116.323 26.6338C116.06 26.6338 115.869 26.4678 115.752 26.1357C115.635 25.7939 115.576 25.3008 115.576 24.6562C115.576 23.7773 115.679 22.9326 115.884 22.1221C116.099 21.3018 116.401 20.5059 116.792 19.7344C117.192 18.9629 117.7 18.1328 118.315 17.2441C118.94 16.3457 119.639 15.4082 120.41 14.4316C121.475 13.084 122.393 11.9854 123.164 11.1357C123.936 10.2764 124.604 9.63184 125.171 9.20215C125.747 8.7627 126.226 8.54297 126.606 8.54297C127.075 8.54297 127.31 8.75293 127.31 9.17285C127.31 9.53418 126.445 10.8379 124.717 13.084C122.988 15.3203 120.469 18.377 117.158 22.2539V23.5137C119.375 21.1406 121.157 19.3779 122.505 18.2256C123.862 17.0732 124.912 16.4971 125.654 16.4971C125.957 16.4971 126.191 16.6777 126.357 17.0391C126.523 17.3906 126.606 17.8008 126.606 18.2695C126.606 19.2266 126.196 20.1152 125.376 20.9355C124.556 21.7461 123.296 22.6787 121.597 23.7334C121.89 24.1729 122.148 24.4951 122.373 24.7002C122.598 24.8955 122.881 24.9932 123.223 24.9932C123.525 24.9932 123.853 24.8906 124.204 24.6855C124.556 24.4805 124.912 24.2217 125.273 23.9092C125.645 23.5967 126.211 23.0889 126.973 22.3857ZM121.187 23.1328C121.558 22.8887 122.017 22.5127 122.563 22.0049C123.12 21.4873 123.594 20.9551 123.984 20.4082C124.375 19.8516 124.57 19.3877 124.57 19.0166C124.57 18.8604 124.502 18.7822 124.365 18.7822C123.994 18.7822 123.354 19.1387 122.446 19.8516C121.548 20.5645 120.669 21.4775 119.81 22.5908C120.181 22.5908 120.64 22.7715 121.187 23.1328ZM136.304 22.3564V23.3379C135.659 23.9238 135.142 24.3145 134.751 24.5098C134.36 24.7051 133.799 24.7832 133.066 24.7441C131.797 26.248 130.679 27 129.712 27C129.165 27 128.667 26.8193 128.218 26.458C127.769 26.0967 127.407 25.6035 127.134 24.9785C126.87 24.3535 126.738 23.6553 126.738 22.8838C126.738 22.2588 126.943 21.5654 127.354 20.8037C127.773 20.042 128.311 19.334 128.965 18.6797C129.629 18.0156 130.337 17.4834 131.089 17.083C131.841 16.6729 132.539 16.4678 133.184 16.4678C133.643 16.4678 134.004 16.541 134.268 16.6875C134.531 16.8242 134.663 17.0195 134.663 17.2734C134.663 17.4688 134.551 17.6934 134.326 17.9473C134.697 18.0254 134.951 18.1572 135.088 18.3428C135.225 18.5186 135.293 18.8457 135.293 19.3242C135.293 19.793 135.181 20.3838 134.956 21.0967C134.741 21.8096 134.443 22.4785 134.062 23.1035L134.326 23.3672H134.546C134.712 23.3672 134.873 23.3281 135.029 23.25C135.195 23.1621 135.342 23.0742 135.469 22.9863C135.596 22.8887 135.874 22.6787 136.304 22.3564ZM133.286 18.5039C132.476 18.9922 131.782 19.4365 131.206 19.8369C130.63 20.2275 130.142 20.6279 129.741 21.0381C129.341 21.4385 129.072 21.8438 128.936 22.2539C128.691 23.3477 128.569 23.9385 128.569 24.0264C128.569 24.6709 129.019 24.9932 129.917 24.9932C130.337 24.9932 131.04 24.6318 132.026 23.9092C131.86 23.4502 131.777 23.0107 131.777 22.5908C131.777 21.9756 131.904 21.3506 132.158 20.7158C132.412 20.0713 132.788 19.334 133.286 18.5039Z" fill="#858181"/>
</svg>
