<svg width="22" height="20" viewBox="0 0 22 20" fill="none" xmlns="http://www.w3.org/2000/svg">
<path d="M21.2647 0.463269C20.98 0.231608 20.6364 0.0797806 20.2704 0.0239447C19.9045 -0.0318913 19.5299 0.0103535 19.1866 0.146183L1.26566 7.22254C0.88241 7.37676 0.556176 7.64132 0.33026 7.98111C0.104343 8.32091 -0.0105725 8.71986 0.000764965 9.12502C0.0121025 9.53018 0.149157 9.92239 0.393738 10.2496C0.638319 10.5768 0.978859 10.8235 1.37016 10.957L4.99516 12.19L7.01566 18.7248C7.04312 18.8121 7.08297 18.8952 7.13404 18.9717C7.14179 18.9834 7.15272 18.9922 7.16096 19.0036C7.21996 19.0841 7.29127 19.1553 7.37239 19.2146C7.39546 19.2318 7.41755 19.2479 7.44221 19.2632C7.53714 19.3248 7.64228 19.3698 7.75294 19.3963L7.76478 19.3973L7.77149 19.4001C7.83802 19.4133 7.90574 19.42 7.97364 19.4201C7.98017 19.4201 7.98597 19.4171 7.99244 19.417C8.0949 19.4152 8.19647 19.398 8.29353 19.3658C8.31611 19.3583 8.33546 19.3457 8.35737 19.3366C8.42975 19.3073 8.49832 19.2697 8.56166 19.2246C8.61238 19.1828 8.66312 19.141 8.71388 19.0992L11.416 16.1814L15.4463 19.2348C15.8011 19.505 16.2379 19.6519 16.6875 19.6522C17.1587 19.6516 17.6154 19.4926 17.9809 19.2019C18.3465 18.9111 18.5987 18.5063 18.6954 18.0553L21.958 2.39067C22.032 2.03811 22.0065 1.67253 21.8844 1.33303C21.7623 0.993525 21.5481 0.692885 21.2647 0.463269ZM8.37016 12.5014C8.2315 12.6365 8.13672 12.8086 8.0977 12.9961L7.78819 14.4671L7.00413 11.931L11.0694 9.86057L8.37016 12.5014ZM16.6719 17.6885L11.9092 14.0801C11.71 13.9296 11.46 13.8579 11.2092 13.8795C10.9583 13.9011 10.725 14.0143 10.5557 14.1967L9.69029 15.1309L9.99613 13.6771L17.0791 6.74973C17.2482 6.58461 17.3512 6.36572 17.3695 6.13272C17.3878 5.89972 17.3201 5.66802 17.1788 5.47959C17.0375 5.29115 16.8319 5.15845 16.5992 5.10551C16.3664 5.05257 16.122 5.0829 15.9102 5.19101L5.74491 10.3673L2.02055 9.03437L19.999 2.00001L16.6719 17.6885Z" fill="white"/>
</svg>
