<svg width="20" height="20" viewBox="0 0 20 20" fill="none" xmlns="http://www.w3.org/2000/svg">
<path d="M20 4.45002C19.9888 4.02807 19.9554 3.60696 19.9 3.18836C19.8253 2.82172 19.7009 2.46649 19.53 2.1321C19.3513 1.76935 19.1112 1.4387 18.82 1.15407C18.5261 0.872599 18.1886 0.63825 17.82 0.459672C17.4776 0.295798 17.1144 0.177388 16.74 0.107583C16.3161 0.0454776 15.8886 0.00954562 15.46 0H4.55C4.11857 0.0109895 3.68801 0.0436332 3.26 0.0978025C2.88512 0.17083 2.52191 0.292531 2.18 0.459672C1.8091 0.634481 1.47103 0.869242 1.18 1.15407C0.892204 1.44152 0.652591 1.77159 0.47 2.1321C0.302444 2.46694 0.181373 2.82217 0.11 3.18836C0.0464994 3.60298 0.0097601 4.0211 0 4.44024C0 4.62606 0 4.89013 0 4.96837V14.5921C0 14.6997 0 14.9344 0 15.1105C0.0112364 15.5324 0.0446136 15.9535 0.0999999 16.3721C0.174668 16.7388 0.299103 17.094 0.47 17.4284C0.648737 17.7912 0.888773 18.1218 1.18 18.4064C1.47391 18.6879 1.81139 18.9223 2.18 19.1008C2.52236 19.2647 2.88558 19.3831 3.26 19.4529C3.68393 19.515 4.11145 19.551 4.54 19.5605H15.45C15.8814 19.5495 16.312 19.5169 16.74 19.4627C17.1149 19.3897 17.4781 19.268 17.82 19.1008C18.1909 18.926 18.529 18.6913 18.82 18.4064C19.1078 18.119 19.3474 17.7889 19.53 17.4284C19.6976 17.0936 19.8186 16.7383 19.89 16.3721C19.9535 15.9575 19.9902 15.5394 20 15.1203C20 14.9344 20 14.6997 20 14.5921V4.96837C20 4.89013 20 4.62606 20 4.45002ZM10.23 16.6264C9.02906 16.6206 7.84913 16.3178 6.8 15.7462L3 16.7242L4 13.086C3.35511 12.0262 3.00999 10.8178 3 9.58465C3.00398 8.19871 3.4272 6.84492 4.21636 5.69378C5.00552 4.54263 6.12532 3.64562 7.43473 3.11571C8.74414 2.5858 10.1846 2.4467 11.5747 2.71592C12.9648 2.98514 14.2423 3.65064 15.2464 4.62861C16.2505 5.60658 16.9363 6.85327 17.2173 8.21168C17.4984 9.57009 17.3622 10.9795 16.8258 12.2623C16.2894 13.5451 15.3769 14.644 14.2032 15.4206C13.0295 16.1972 11.647 16.6168 10.23 16.6264ZM10.23 3.78496C9.16981 3.79682 8.13177 4.08324 7.22156 4.61505C6.31135 5.14685 5.56148 5.90505 5.0483 6.81246C4.53512 7.71986 4.27695 8.74406 4.30008 9.78077C4.32322 10.8175 4.62683 11.8297 5.18 12.7143L5.32 12.9393L4.72 15.0812L7 14.4748L7.22 14.6019C8.12957 15.1259 9.1644 15.4059 10.22 15.4137C11.8113 15.4137 13.3374 14.7954 14.4626 13.6949C15.5879 12.5944 16.22 11.1019 16.22 9.54553C16.22 7.9892 15.5879 6.49661 14.4626 5.39612C13.3374 4.29563 11.8113 3.67738 10.22 3.67738L10.23 3.78496ZM13.73 12.1177C13.599 12.3314 13.4236 12.5158 13.2152 12.659C13.0068 12.8022 12.7699 12.901 12.52 12.9491C12.1465 13.0158 11.7621 12.9923 11.4 12.8806C11.0593 12.7764 10.7254 12.6523 10.4 12.5089C9.16374 11.9022 8.10944 10.9924 7.34 9.86828C6.92188 9.34746 6.66819 8.71866 6.61 8.05893C6.60405 7.78488 6.65705 7.51266 6.76558 7.25993C6.87412 7.0072 7.03575 6.7796 7.24 6.59189C7.30016 6.52518 7.37397 6.47156 7.45665 6.43449C7.53934 6.39743 7.62905 6.37775 7.72 6.37673H8C8.11 6.37673 8.26 6.37673 8.4 6.67991C8.54 6.9831 8.91 7.89266 8.96 7.98069C8.98457 8.02761 8.99739 8.07957 8.99739 8.13228C8.99739 8.185 8.98457 8.23696 8.96 8.28388C8.91579 8.39015 8.85508 8.48912 8.78 8.57728C8.69 8.68487 8.59 8.81201 8.51 8.89025C8.43 8.96849 8.33 9.0663 8.43 9.24234C8.70209 9.69144 9.03888 10.0999 9.43 10.4551C9.85593 10.8232 10.3429 11.1175 10.87 11.3255C11.05 11.4136 11.16 11.4038 11.26 11.3255C11.36 11.2473 11.71 10.817 11.83 10.6409C11.95 10.4649 12.07 10.4942 12.23 10.5529C12.39 10.6116 13.28 11.0321 13.46 11.1201C13.64 11.2082 13.75 11.2473 13.8 11.3255C13.8434 11.5815 13.8193 11.8441 13.73 12.0884V12.1177Z" fill="white"/>
</svg>
