<svg width="88" height="70" viewBox="0 0 88 70" fill="none" xmlns="http://www.w3.org/2000/svg">
<path fill-rule="evenodd" clip-rule="evenodd" d="M1.80469 64.7901H10.821C10.4884 64.679 10.194 64.4329 9.98302 64.0896C9.77208 63.7464 9.65635 63.3251 9.65365 62.8906V16.2812C9.65554 15.7598 9.82086 15.2606 10.1134 14.8928C10.406 14.5249 10.802 14.3184 11.2148 14.3184H21.0977L20.4603 17.5566H12.4395V62.3298H75.36V17.5475H67.4824L66.7663 14.3094H76.4056C76.814 14.3189 77.203 14.5311 77.4885 14.9001C77.774 15.2691 77.9329 15.7653 77.931 16.2812V62.8815C77.9307 63.3168 77.8159 63.7396 77.6046 64.0835C77.3933 64.4273 77.0975 64.6727 76.7637 64.781H86.1953C88.6016 64.781 88.6016 70 86.1953 70H1.80469C-0.601562 70 -0.601562 64.7901 1.80469 64.7901ZM41.3288 4.00275e-05H47.4733C47.6917 4.00275e-05 47.9012 0.109631 48.0557 0.304703C48.2101 0.499776 48.2969 0.764352 48.2969 1.04023V3.61808H58.0078C58.1712 3.02138 58.4407 2.47991 58.7956 2.03519C59.1044 1.64301 59.4715 1.3318 59.8758 1.11944C60.2802 0.907075 60.7138 0.797751 61.1517 0.797751C61.5896 0.797751 62.0232 0.907075 62.4275 1.11944C62.8319 1.3318 63.199 1.64301 63.5078 2.03519C63.8183 2.4252 64.0647 2.88889 64.2329 3.39959C64.401 3.91029 64.4876 4.45793 64.4876 5.01102C64.4876 5.56412 64.401 6.11176 64.2329 6.62246C64.0647 7.13315 63.8183 7.59684 63.5078 7.98686C63.199 8.37903 62.8319 8.69024 62.4275 8.90261C62.0232 9.11497 61.5896 9.2243 61.1517 9.2243C60.7138 9.2243 60.2802 9.11497 59.8758 8.90261C59.4715 8.69024 59.1044 8.37903 58.7956 7.98686C58.434 7.52057 58.1642 6.95362 58.0078 6.33161H52.9948C54.6139 7.51342 56.078 9.00554 57.3346 10.7547C59.842 14.2529 61.4979 18.5897 62.1042 23.2459H63.4505C63.5818 23.2423 63.7123 23.272 63.8343 23.3332C63.9563 23.3944 64.0673 23.4859 64.1608 23.6023C64.2543 23.7187 64.3283 23.8576 64.3785 24.0108C64.4288 24.164 64.4541 24.3284 64.4531 24.4942V30.1835C64.4541 30.347 64.4294 30.5091 64.3805 30.6605C64.3316 30.8119 64.2595 30.9496 64.1683 31.0656C64.0771 31.1816 63.9686 31.2737 63.8491 31.3366C63.7296 31.3994 63.6015 31.4318 63.472 31.4317H58.9961C58.8663 31.4317 58.7378 31.3995 58.6179 31.3367C58.498 31.274 58.389 31.1821 58.2973 31.0662C58.2055 30.9502 58.1327 30.8126 58.083 30.6612C58.0334 30.5098 58.0078 30.3474 58.0078 30.1835V24.4942C58.0078 24.1631 58.1119 23.8456 58.2973 23.6115C58.4826 23.3774 58.734 23.2459 58.9961 23.2459H60.0273C59.4369 19.2494 57.9791 15.5386 55.8164 12.5275C53.8004 9.71504 51.1923 7.68526 48.2969 6.67532V8.89137C48.2988 9.02948 48.2789 9.16669 48.2383 9.29499C48.1978 9.42329 48.1375 9.5401 48.0608 9.63861C47.9841 9.73713 47.8927 9.81537 47.7918 9.86877C47.691 9.92217 47.5827 9.94967 47.4733 9.94965H41.3288C41.2204 9.95085 41.1128 9.92477 41.0125 9.87292C40.9121 9.82108 40.821 9.7445 40.7443 9.64767C40.6676 9.55084 40.607 9.43569 40.566 9.30894C40.5249 9.1822 40.5043 9.04639 40.5052 8.90946V6.67532C37.5336 7.71648 34.8693 9.8362 32.8424 12.7717C30.78 15.7463 29.3832 19.3621 28.7962 23.2459H29.806C29.9358 23.2459 30.0643 23.2782 30.1842 23.341C30.3041 23.4037 30.413 23.4956 30.5048 23.6115C30.5966 23.7274 30.6694 23.865 30.719 24.0165C30.7687 24.1679 30.7943 24.3302 30.7943 24.4942V30.1835C30.7943 30.3474 30.7687 30.5098 30.719 30.6612C30.6694 30.8126 30.5966 30.9502 30.5048 31.0662C30.413 31.1821 30.3041 31.274 30.1842 31.3367C30.0643 31.3995 29.9358 31.4317 29.806 31.4317H25.3516C25.2206 31.4341 25.0905 31.4036 24.969 31.342C24.8474 31.2803 24.7368 31.1888 24.6435 31.0726C24.5502 30.9565 24.4761 30.818 24.4255 30.6654C24.375 30.5128 24.3489 30.349 24.349 30.1835V24.4942C24.3489 24.3287 24.375 24.1649 24.4255 24.0123C24.4761 23.8596 24.5502 23.7212 24.6435 23.6051C24.7368 23.4889 24.8474 23.3974 24.969 23.3357C25.0905 23.2741 25.2206 23.2435 25.3516 23.2459H26.7194C27.3307 18.726 28.9222 14.5085 31.3171 11.0622C32.5996 9.18671 34.1164 7.58877 35.8073 6.33161H30.0137C29.8502 6.92563 29.5806 7.46414 29.2259 7.90545C28.9175 8.29834 28.5504 8.61014 28.146 8.82283C27.7416 9.03553 27.3079 9.1449 26.8698 9.14463C25.9836 9.14063 25.1344 8.69535 24.5065 7.90545C24.196 7.51544 23.9496 7.05175 23.7815 6.54105C23.6133 6.03035 23.5268 5.48271 23.5268 4.92962C23.5268 4.37652 23.6133 3.82889 23.7815 3.31819C23.9496 2.80749 24.196 2.3438 24.5065 1.95378C24.8153 1.56161 25.1824 1.2504 25.5868 1.03803C25.9911 0.825669 26.4247 0.716345 26.8626 0.716345C27.3005 0.716345 27.7341 0.825669 28.1385 1.03803C28.5428 1.2504 28.91 1.56161 29.2188 1.95378C29.5847 2.42086 29.8572 2.9914 30.0137 3.61808H40.5052V1.04023C40.5043 0.903291 40.5249 0.767487 40.566 0.640741C40.607 0.513995 40.6676 0.398846 40.7443 0.302014C40.821 0.205183 40.9121 0.128609 41.0125 0.0767618C41.1128 0.0249148 41.2204 -0.00116652 41.3288 4.00275e-05ZM53.4675 36.8498L50.2806 47.1431L38.5286 46.9531L35.2773 36.8498C38.0703 30.5182 40.9134 22.8389 42.3744 16.046L43.9212 16.2631L43.8639 34.4619C43.5235 34.6179 43.2385 34.9224 43.0603 35.3206C42.882 35.7187 42.8223 36.1842 42.8919 36.633C42.9616 37.0818 43.1559 37.4845 43.4399 37.7682C43.7239 38.052 44.0788 38.1982 44.4407 38.1805C44.8025 38.1628 45.1474 37.9823 45.4132 37.6716C45.6789 37.361 45.848 36.9405 45.8899 36.4862C45.9318 36.0319 45.8437 35.5737 45.6416 35.1942C45.4395 34.8147 45.1367 34.5389 44.7878 34.4166L44.8307 16.4078L46.6068 16.2812C47.903 23.0741 50.7175 30.7534 53.4675 36.8226V36.8498ZM50.0013 51.5571H38.5859V48.6807H50.0013V51.5571ZM41.4434 65.6494H46.5495C47.7025 65.6494 47.7025 68.4805 46.5495 68.4805H41.4434C40.2904 68.4805 40.2832 65.6494 41.4434 65.6494Z" fill="#848484"/>
</svg>
