<svg width="88" height="73" viewBox="0 0 88 73" fill="none" xmlns="http://www.w3.org/2000/svg">
<path fill-rule="evenodd" clip-rule="evenodd" d="M35.17 25.9089C40.3263 29.7145 48.5906 25.6287 51.8419 32.2515C52.7013 34.0068 52.8875 36.4111 52.114 38.3213C51.7989 39.0883 51.3406 39.7742 50.7104 40.2978C50.4311 40.5265 50.1231 40.733 49.7794 40.91C45.5398 43.0783 41.114 40.0471 38.7722 36.3816C36.6166 33.0038 35.6785 28.7926 35.17 25.9089ZM71.6219 0H5.19923C2.3418 0 0 2.41168 0 5.35436V62.7183C0 65.661 2.3418 68.0727 5.19923 68.0727H57.0196L52.5294 64.1343H5.09897C4.69793 64.1343 4.34701 63.9795 4.08204 63.6992C3.81706 63.4263 3.65951 63.0576 3.65951 62.6519V14.9937H3.63803H72.9539V36.8758L76.8211 40.1061V5.35436C76.8211 2.41168 74.4793 0 71.6219 0ZM10.1478 6.01813C8.72983 6.01813 7.57684 7.20553 7.57684 8.66581C7.57684 10.1261 8.72983 11.3061 10.1478 11.3061C11.5658 11.3061 12.7188 10.1187 12.7188 8.66581C12.7188 7.20553 11.5658 6.01813 10.1478 6.01813ZM27.5573 6.01813C26.1394 6.01813 24.9864 7.20553 24.9864 8.66581C24.9864 10.1261 26.1322 11.3061 27.5573 11.3061C28.9753 11.3061 30.1283 10.1187 30.1283 8.66581C30.1283 7.20553 28.9753 6.01813 27.5573 6.01813ZM18.8562 6.01813C17.4382 6.01813 16.2852 7.20553 16.2852 8.66581C16.2852 10.1261 17.4382 11.3061 18.8562 11.3061C20.2741 11.3061 21.4271 10.1187 21.4271 8.66581C21.42 7.20553 20.2741 6.01813 18.8562 6.01813ZM61.3237 54.9744C64.1954 52.6144 66.4227 49.8929 67.9409 46.7732L86.4175 66.841C87.814 68.1981 88.6017 69.356 87.4344 71.4357C86.8543 72.0479 86.2385 72.3798 85.5868 72.424C84.9422 72.4683 84.2619 72.2323 83.5529 71.7013L61.3237 54.9744ZM51.5769 43.329C52.823 42.6431 54.5274 40.9469 54.9357 39.0957L66.5014 45.6301C64.8328 49.0522 62.7058 51.9801 59.7911 54.0599C56.7475 49.856 55.0431 47.319 51.5769 43.329Z" fill="#848484"/>
</svg>
