<svg width="57" height="53" viewBox="0 0 57 53" fill="none" xmlns="http://www.w3.org/2000/svg">
<path d="M28.5 0C36.3718 0 43.4968 2.96745 48.6504 7.76367C53.8086 12.5599 57 19.1849 57 26.5C57 33.8194 53.8086 40.4444 48.6504 45.2363C43.4922 50.0326 36.3672 53 28.5 53C20.6328 53 13.5032 50.0326 8.34961 45.2363C3.19141 40.4444 0 33.8194 0 26.5C0 19.1806 3.19141 12.5556 8.34961 7.76367C13.5032 2.96745 20.6282 0 28.5 0ZM21.5652 37.5374C24.3484 42.9331 32.7861 43.1229 35.4534 37.5675C34.7251 36.8818 34.187 36.1528 33.6536 35.4239C33.5654 35.3031 33.4773 35.1867 33.3892 35.0659C32.1042 36.0148 30.541 36.6187 28.5046 36.6143C26.3105 36.61 24.6592 35.8293 23.3047 34.6777C23.2258 34.6087 23.1423 34.5397 23.0635 34.4664C22.8687 34.9667 22.6228 35.5662 22.3584 36.127C22.1033 36.6661 21.8296 37.1707 21.5652 37.5374ZM42.9819 46.5087L43.6128 40.2633C41.2795 39.8406 38.7793 39.3834 36.1956 37.9989C34.2612 43.9898 23.866 44.7015 20.939 38.1541C18.6196 39.2411 16.2585 39.8621 13.5681 40.246L14.4819 46.7891C18.5222 49.2087 23.3372 50.6148 28.5046 50.6148C33.8623 50.6148 38.8442 49.1009 42.9819 46.5087ZM7.68164 40.8844L7.79297 40.824C10.5576 39.392 17.7522 38.9176 20.7395 36.981C20.9575 36.6747 21.1941 36.2305 21.4214 35.7474C21.7646 35.0185 22.0754 34.2249 22.2749 33.6814C21.4399 32.767 20.7256 31.7362 20.0391 30.7183L17.7754 27.3713C16.9497 26.224 16.5183 25.1759 16.4905 24.3132C16.4766 23.9078 16.5508 23.5412 16.7131 23.2177C16.8801 22.877 17.1399 22.5966 17.4924 22.3766C17.6548 22.2731 17.8403 22.1869 18.0398 22.1178C17.8914 20.302 17.8403 18.016 17.9331 16.101C17.9795 15.6481 18.0769 15.1909 18.2114 14.738C18.7913 12.8187 20.2385 11.2703 22.0337 10.2092C23.0217 9.62264 24.1072 9.1827 25.239 8.88509C25.958 8.69531 24.6267 6.5603 25.3689 6.48698C28.9639 6.14193 34.7761 9.19564 37.2856 11.7188C38.5427 12.9826 39.3313 14.6604 39.5029 16.8774L39.3638 22.3378C39.99 22.5146 40.3936 22.8856 40.5559 23.4851C40.7368 24.1493 40.542 25.0853 39.9343 26.3577C39.925 26.3792 39.9111 26.4051 39.8972 26.4267L37.3181 30.3775C36.3718 31.8267 35.407 33.2846 34.1545 34.4319C34.2659 34.5828 34.3818 34.7338 34.4932 34.8891C35.0034 35.5835 35.5183 36.2822 36.177 36.9033C36.2002 36.9249 36.2188 36.9465 36.2327 36.968C39.2014 38.9176 46.4285 39.392 49.2024 40.8283L49.3137 40.8887C52.5283 36.8731 54.4302 31.8958 54.4302 26.5043C54.4302 19.8448 51.5264 13.815 46.832 9.45443C42.147 5.08521 35.6621 2.38517 28.5 2.38517C21.3379 2.38517 14.853 5.08521 10.1633 9.45011C5.46899 13.8107 2.56519 19.8405 2.56519 26.5C2.56519 31.8914 4.46704 36.8688 7.68164 40.8844ZM19.3479 23.0926C18.8469 23.1099 18.4666 23.2091 18.2068 23.3687C18.0583 23.4592 17.9517 23.58 17.8821 23.718C17.8032 23.8733 17.7708 24.0631 17.7754 24.283C17.7939 24.9214 18.1558 25.7581 18.8516 26.7243L18.8608 26.7372L21.1245 30.0842C22.0337 31.4256 22.9846 32.7929 24.1675 33.7979C25.304 34.764 26.6816 35.4196 28.5093 35.4239C30.4854 35.4282 31.928 34.7467 33.1016 33.7288C34.3215 32.6678 35.2817 31.2143 36.2327 29.7607L38.7839 25.8573C39.2571 24.8481 39.4333 24.1752 39.322 23.7784C39.2571 23.5412 38.9788 23.429 38.501 23.4032C38.3989 23.3988 38.2969 23.3988 38.1902 23.3988C38.0789 23.4032 37.9583 23.4075 37.833 23.4204C37.7634 23.4247 37.6985 23.4204 37.6382 23.4075C37.4109 23.4204 37.179 23.4032 36.9377 23.373L37.8098 19.7801C31.3342 20.729 26.4868 16.2563 19.6401 18.8873L20.1318 23.1228C19.8489 23.1357 19.5891 23.1271 19.3479 23.0926Z" fill="#848484"/>
</svg>
