<svg width="44" height="76" viewBox="0 0 44 76" fill="none" xmlns="http://www.w3.org/2000/svg">
<path fill-rule="evenodd" clip-rule="evenodd" d="M8.26422 0H35.7373C40.3004 0 44 3.6815 44 8.212V67.7895C44 72.323 40.3004 76 35.7373 76H8.26422C3.70109 76 0 72.323 0 67.7895V8.20159C0 3.65771 3.69361 0 8.26422 0ZM8.21184 40.4816C7.63714 40.4816 7.1702 40.0177 7.1702 39.4467C7.1702 38.8758 7.63714 38.4133 8.21184 38.4133H35.7882C36.3629 38.4133 36.8298 38.8758 36.8298 39.4467C36.8298 40.0177 36.3629 40.4816 35.7882 40.4816H8.21184ZM8.21184 46.1406C7.63714 46.1406 7.1702 45.6767 7.1702 45.1058C7.1702 44.5348 7.63714 44.0709 8.21184 44.0709H30.8928C31.4675 44.0709 31.9344 44.5348 31.9344 45.1058C31.9344 45.6767 31.4675 46.1406 30.8928 46.1406H8.21184ZM8.21184 57.4557C7.63714 57.4557 7.1702 56.9933 7.1702 56.4223C7.1702 55.8514 7.63714 55.3875 8.21184 55.3875H15.4569C16.0316 55.3875 16.4985 55.8514 16.4985 56.4223C16.4985 56.9933 16.0316 57.4557 15.4569 57.4557H8.21184ZM8.21184 51.7982C7.63714 51.7982 7.1702 51.3343 7.1702 50.7633C7.1702 50.1924 7.63714 49.7299 8.21184 49.7299H19.7356C20.3103 49.7299 20.7773 50.1924 20.7773 50.7633C20.7773 51.3343 20.3103 51.7982 19.7356 51.7982H8.21184ZM26.5781 57.3888C26.665 57.4644 26.736 57.5562 26.7872 57.659C26.8383 57.7619 26.8686 57.8737 26.8762 57.9882C26.8838 58.1026 26.8687 58.2175 26.8317 58.3261C26.7947 58.4348 26.7365 58.5351 26.6604 58.6214C26.5843 58.7077 26.4919 58.7783 26.3884 58.8291C26.2849 58.8799 26.1723 58.91 26.0571 58.9176C25.9419 58.9252 25.8263 58.9102 25.717 58.8734C25.6076 58.8366 25.5066 58.7788 25.4197 58.7032L22.6465 56.29C22.5596 56.2145 22.4886 56.1226 22.4374 56.0198C22.3863 55.917 22.356 55.8051 22.3484 55.6906C22.3407 55.5762 22.3559 55.4613 22.3929 55.3527C22.4299 55.244 22.4881 55.1437 22.5642 55.0574L22.6525 54.9697L25.4197 52.5609C25.5067 52.4855 25.6078 52.4277 25.7172 52.391C25.8266 52.3544 25.9422 52.3395 26.0574 52.3472C26.1726 52.3549 26.2852 52.3852 26.3887 52.4361C26.4921 52.4871 26.5845 52.5578 26.6604 52.6442C26.8137 52.8186 26.8911 53.0464 26.8757 53.2774C26.8603 53.5085 26.7532 53.724 26.5781 53.8768L24.5592 55.6328L26.5781 57.3888ZM33.232 58.7032C33.1451 58.7788 33.0441 58.8367 32.9348 58.8735C32.8254 58.9103 32.7098 58.9253 32.5946 58.9177C32.4794 58.9101 32.3668 58.88 32.2633 58.8292C32.1597 58.7784 32.0673 58.7078 31.9913 58.6214C31.9152 58.5351 31.857 58.4348 31.82 58.3261C31.7829 58.2175 31.7678 58.1026 31.7754 57.9882C31.7831 57.8737 31.8134 57.7619 31.8645 57.659C31.9157 57.5562 31.9867 57.4644 32.0736 57.3888L34.091 55.6328L32.0736 53.8768C31.9867 53.8013 31.9157 53.7094 31.8645 53.6066C31.8134 53.5038 31.7831 53.3919 31.7754 53.2775C31.7678 53.163 31.7829 53.0481 31.82 52.9395C31.857 52.8308 31.9152 52.7305 31.9913 52.6442C32.3101 52.2799 32.8668 52.2442 33.232 52.5609L35.9977 54.9697L36.0875 55.0574C36.1635 55.1438 36.2216 55.2442 36.2585 55.3529C36.2954 55.4616 36.3104 55.5765 36.3026 55.691C36.2948 55.8054 36.2644 55.9172 36.2131 56.02C36.1618 56.1228 36.0907 56.2146 36.0037 56.29L33.232 58.7032ZM29.1657 52.0628C29.275 51.593 29.7494 51.3001 30.2238 51.4086C30.6967 51.5186 30.9931 51.99 30.8823 52.4598L29.2974 59.2028C29.2439 59.4286 29.1025 59.6242 28.9042 59.7468C28.706 59.8694 28.4669 59.909 28.2393 59.857C27.7649 59.747 27.4701 59.2757 27.5808 58.8058L29.1657 52.0628ZM34.0326 23.7082C33.9114 23.6249 33.7842 23.5952 33.645 23.619C33.5058 23.6442 33.3936 23.7156 33.3098 23.8346L32.8563 24.4739C32.6917 24.404 32.5211 24.349 32.3445 24.3029C32.1694 24.2568 31.9913 24.2226 31.8132 24.1959L31.665 23.3588C31.6411 23.2175 31.5722 23.1075 31.4555 23.0257C31.3388 22.9439 31.2116 22.9172 31.0694 22.9424L30.0098 23.1253C29.8751 23.1491 29.7659 23.2175 29.6805 23.3335C29.5967 23.4495 29.5683 23.5773 29.5922 23.7186L29.7269 24.4843C29.5578 24.5572 29.3947 24.639 29.2405 24.7311C29.0849 24.8233 28.9412 24.923 28.805 25.03L28.0927 24.5393C27.9789 24.4561 27.8532 24.4249 27.7125 24.4486C27.5733 24.4724 27.4641 24.5453 27.3788 24.6628L26.7667 25.5296C26.6829 25.6485 26.6529 25.7764 26.6769 25.9147C26.7023 26.0515 26.7741 26.1645 26.8939 26.2463L27.5374 26.6983C27.4671 26.8618 27.4117 27.0299 27.3653 27.2053C27.3189 27.3808 27.2845 27.5577 27.2576 27.7346L26.415 27.8803C26.2728 27.9041 26.1605 27.974 26.0797 28.09C25.9974 28.2045 25.9705 28.3324 25.9944 28.4736L26.18 29.5248C26.2039 29.6601 26.2728 29.7687 26.3895 29.8534C26.5063 29.9352 26.6335 29.9649 26.7756 29.9397L27.5479 29.8058C27.6212 29.9753 27.7035 30.1359 27.7963 30.2891C27.8891 30.4437 27.9909 30.5909 28.0986 30.7322L27.6033 31.431C27.5195 31.544 27.488 31.6674 27.512 31.8072C27.5359 31.9455 27.6093 32.0555 27.7275 32.1402L28.6015 32.7573C28.7197 32.8346 28.8484 32.8599 28.9861 32.8361C29.1253 32.8123 29.239 32.7439 29.3229 32.6324L29.7763 31.9826C29.9395 32.051 30.1101 32.1075 30.2867 32.1521C30.4633 32.1982 30.6399 32.2339 30.818 32.2592L30.9661 33.0978C30.9901 33.239 31.0604 33.3491 31.1756 33.4308C31.2924 33.5111 31.4211 33.5394 31.5633 33.5141L32.6214 33.3312C32.7575 33.3074 32.8668 33.239 32.9506 33.1231C33.0344 33.0071 33.0644 32.8792 33.0389 32.738L32.9042 31.9707C33.0721 31.9006 33.2346 31.8186 33.3906 31.7254C33.5463 31.6317 33.6944 31.5321 33.8366 31.4236L34.54 31.9172C34.6537 32.0005 34.7795 32.0317 34.9216 32.0064C35.0668 31.9811 35.1746 31.9098 35.2524 31.7938L35.875 30.9255C35.9528 30.8065 35.9782 30.6801 35.9543 30.5418C35.9303 30.4036 35.8615 30.2921 35.7492 30.2073L35.0937 29.7583C35.1641 29.5947 35.2195 29.4252 35.2659 29.2498C35.3122 29.0758 35.3482 28.8989 35.3736 28.7219L36.2177 28.5762C36.3599 28.5509 36.4706 28.4825 36.5529 28.3666C36.6337 28.2521 36.6622 28.1242 36.6367 27.9829L36.4527 26.9317C36.4287 26.7964 36.3599 26.6879 36.2431 26.6031C36.1264 26.5199 35.9977 26.4916 35.8555 26.5154L35.0833 26.6492C35.0108 26.4853 34.9284 26.3259 34.8363 26.1719C34.742 26.0143 34.6418 25.8686 34.534 25.7348L35.0294 25.0255C35.1132 24.9125 35.1446 24.7877 35.1192 24.6479C35.0952 24.5111 35.0219 24.4011 34.9037 24.3163L34.0326 23.7082ZM31.0065 26.4678C31.2505 26.4262 31.4884 26.4321 31.7219 26.4857C31.9539 26.5407 32.1649 26.6329 32.352 26.7637C32.539 26.8945 32.6977 27.0596 32.8294 27.2588C32.9581 27.4596 33.0449 27.6796 33.0868 27.922C33.1302 28.1628 33.1242 28.3993 33.0703 28.6312C33.015 28.8617 32.9207 29.0713 32.7905 29.2572C32.6552 29.445 32.4857 29.6059 32.2906 29.7315C32.0901 29.8609 31.8686 29.9456 31.6246 29.9872C31.3822 30.0304 31.1442 30.0244 30.9093 29.9709C30.6773 29.9159 30.4678 29.8237 30.2792 29.6928C30.0921 29.562 29.9335 29.397 29.8033 29.1977C29.6731 28.997 29.5863 28.7769 29.5444 28.5346C29.5024 28.2937 29.5084 28.0573 29.5623 27.8253C29.6177 27.5934 29.7105 27.3852 29.8422 27.1979C29.9739 27.0135 30.14 26.8559 30.3405 26.725C30.5426 26.5957 30.7641 26.5109 31.0065 26.4678ZM22.8875 13.6376C22.8351 13.5856 22.7842 13.5484 22.7348 13.5291C22.6884 13.5097 22.6316 13.4993 22.5657 13.4993C22.4999 13.4993 22.4415 13.5097 22.3936 13.5291C22.3442 13.5499 22.2933 13.5856 22.2454 13.6331L21.2278 14.6412C21.1468 14.7208 21.0402 14.7697 20.9267 14.7792C20.8132 14.7887 20.6999 14.7583 20.6067 14.6933C20.4914 14.6204 20.3672 14.549 20.237 14.4777C20.0963 14.4033 19.9586 14.3349 19.8239 14.274C19.6833 14.2086 19.5381 14.1491 19.3959 14.0941C19.2657 14.0435 19.1161 13.9915 18.9559 13.9379C18.8584 13.9062 18.7736 13.8447 18.7134 13.7622C18.6532 13.6797 18.6207 13.5804 18.6207 13.4785V11.9351C18.6207 11.8667 18.6102 11.8073 18.5893 11.7552C18.5665 11.7027 18.5334 11.6552 18.492 11.6154C18.4519 11.574 18.4041 11.5407 18.3513 11.5173C18.2989 11.498 18.239 11.4876 18.1702 11.4876H16.2186C16.1558 11.4876 16.1004 11.4965 16.054 11.5158C16.0016 11.5381 15.9493 11.5723 15.8999 11.6214C15.855 11.6645 15.822 11.7106 15.8026 11.7597C15.7816 11.8087 15.7712 11.8682 15.7712 11.9351V13.3491C15.7712 13.587 15.5975 13.7848 15.3701 13.8249C15.2144 13.8621 15.0722 13.8993 14.945 13.9379C14.8014 13.9825 14.6562 14.0331 14.514 14.0881L14.4901 14.097C14.3599 14.1461 14.2282 14.2026 14.0935 14.2651L14.0695 14.274C13.9393 14.3349 13.8151 14.3974 13.6954 14.4613C13.5038 14.5654 13.2718 14.5267 13.1237 14.3825L11.9893 13.2718C11.9458 13.2257 11.8995 13.1915 11.8531 13.1722C11.8082 13.1529 11.7543 13.1425 11.6914 13.1425C11.6286 13.1425 11.5717 13.1544 11.5238 13.1737C11.4699 13.196 11.4176 13.2332 11.3667 13.2822L10.0048 14.6397C9.95388 14.6903 9.91646 14.7409 9.89551 14.7914C9.87605 14.839 9.86558 14.8955 9.86558 14.9609C9.86558 15.0263 9.87605 15.0843 9.89551 15.1319C9.91796 15.181 9.95238 15.23 10.0003 15.2776L11.015 16.2887C11.1841 16.4582 11.202 16.7199 11.0673 16.9072C10.994 17.0202 10.9222 17.1436 10.8518 17.2745C10.7755 17.4142 10.7067 17.551 10.6453 17.6849C10.5155 17.9652 10.403 18.2532 10.3086 18.5472C10.2766 18.6439 10.2146 18.728 10.1315 18.7876C10.0485 18.8472 9.94856 18.8791 9.84612 18.8788L8.29116 18.8803C8.22231 18.8803 8.16245 18.8907 8.11156 18.9115C8.06068 18.9309 8.01279 18.9636 7.96939 19.0067C7.92449 19.0513 7.89306 19.0974 7.87211 19.1479C7.85116 19.2 7.84068 19.2595 7.84068 19.3279V21.2667C7.84068 21.3292 7.84966 21.3842 7.86912 21.4303C7.89156 21.4823 7.92748 21.5329 7.97537 21.5834C8.02027 21.6266 8.06667 21.6593 8.11456 21.6801C8.16395 21.6994 8.22381 21.7098 8.29116 21.7098H9.71442C9.95388 21.7098 10.1544 21.8823 10.1948 22.1098C10.2307 22.2629 10.2697 22.4042 10.3086 22.5321C10.3535 22.6748 10.4029 22.8175 10.4582 22.9588L10.4702 22.993C10.5181 23.1134 10.575 23.2458 10.6378 23.387C10.7067 23.5372 10.774 23.6755 10.8384 23.7989C10.9386 23.9907 10.8967 24.2182 10.7516 24.3639L9.6366 25.4672C9.5902 25.5118 9.55578 25.5564 9.53633 25.6025C9.51687 25.6486 9.50789 25.7021 9.50789 25.763C9.50789 25.827 9.51837 25.882 9.53932 25.9296C9.56177 25.9831 9.59918 26.0366 9.64857 26.0857L11.0045 27.4492C11.0524 27.4938 11.1048 27.528 11.1556 27.5473C11.208 27.5666 11.2679 27.5785 11.3367 27.5785C11.4056 27.5785 11.4684 27.5666 11.5208 27.5473L11.5358 27.5413C11.5807 27.522 11.6241 27.4923 11.6645 27.4536L12.6702 26.4396C12.8348 26.273 13.0893 26.2507 13.2778 26.3712C13.405 26.4515 13.5352 26.5288 13.6654 26.5987C13.8061 26.6745 13.9438 26.7414 14.0785 26.8039C14.3616 26.9307 14.6514 27.0424 14.9465 27.1384C15.1516 27.2053 15.2818 27.3941 15.2818 27.5978V29.1412C15.2818 29.2096 15.2922 29.2706 15.3132 29.3211L15.3207 29.339C15.3401 29.3806 15.3701 29.4207 15.4105 29.4609C15.4569 29.5055 15.5048 29.5397 15.5527 29.559C15.6035 29.5798 15.6634 29.5902 15.7322 29.5902H17.6838C17.7467 29.5902 17.802 29.5798 17.8484 29.562C17.9008 29.5397 17.9532 29.504 18.0026 29.4564C18.0475 29.4118 18.0804 29.3657 18.0999 29.3167C18.1208 29.2676 18.1313 29.2096 18.1313 29.1412V27.7272C18.1313 27.4893 18.3049 27.2915 18.5324 27.2514C18.6895 27.2142 18.8332 27.1756 18.9634 27.1369C19.1101 27.0908 19.2537 27.0417 19.3899 26.9897C19.5261 26.9362 19.6698 26.8767 19.818 26.8098C19.9706 26.7414 20.1098 26.6745 20.2325 26.612C20.4256 26.5109 20.6561 26.5526 20.8012 26.6983L21.9132 27.8045C21.9551 27.8491 22 27.8818 22.0494 27.9026L22.0733 27.9145C22.1137 27.9279 22.1616 27.9339 22.217 27.9339C22.2858 27.9339 22.3442 27.9235 22.3876 27.9041C22.437 27.8818 22.4819 27.8491 22.5238 27.8045L23.9082 26.447C23.9531 26.3979 23.986 26.3474 24.0054 26.2968C24.0264 26.2448 24.0369 26.1838 24.0369 26.1169C24.0369 26.047 24.0264 25.9861 24.0054 25.934L23.9995 25.9177C23.98 25.8746 23.9501 25.8299 23.9112 25.7898L22.8905 24.7921C22.8111 24.7142 22.761 24.6116 22.7488 24.5014C22.7365 24.3912 22.7628 24.2802 22.8231 24.187C22.9039 24.0621 22.9803 23.9327 23.0506 23.8019C23.1269 23.6621 23.1958 23.5253 23.2571 23.393C23.3215 23.2517 23.3814 23.109 23.4382 22.9662C23.4891 22.8369 23.5415 22.6897 23.5954 22.5291C23.6273 22.4327 23.6891 22.3487 23.7718 22.2892C23.8546 22.2296 23.9541 22.1976 24.0563 22.1975H25.6113C25.6801 22.1975 25.74 22.1856 25.7909 22.1663L25.8103 22.1589C25.8537 22.138 25.8941 22.1083 25.9331 22.0696C25.978 22.025 26.0109 21.9775 26.0318 21.9284C26.0513 21.8778 26.0618 21.8169 26.0618 21.7485V19.8111C26.0618 19.7486 26.0528 19.6936 26.0333 19.646C26.0109 19.594 25.975 19.5435 25.9271 19.4929C25.8822 19.4498 25.8358 19.4171 25.7879 19.3977C25.7385 19.3769 25.6786 19.3665 25.6113 19.3665H24.188C23.9441 19.3665 23.742 19.1881 23.7061 18.9561C23.6732 18.8253 23.6343 18.6885 23.5909 18.5502C23.549 18.4134 23.4996 18.2707 23.4427 18.1235L23.4337 18.0982C23.3799 17.9584 23.3245 17.8246 23.2661 17.6982C23.2018 17.56 23.1359 17.4276 23.0671 17.3042C22.9638 17.1139 23.0027 16.8834 23.1479 16.7362L24.2659 15.6092C24.3122 15.5661 24.3467 15.52 24.3661 15.4739C24.3856 15.4293 24.3946 15.3757 24.3946 15.3133C24.3946 15.2509 24.3841 15.1944 24.3646 15.1468C24.3407 15.0932 24.3048 15.0397 24.2554 14.9906L22.8875 13.6376ZM23.112 12.6414C23.2841 12.7128 23.4397 12.8183 23.5759 12.9536L24.9468 14.3141C25.0815 14.4509 25.1863 14.6026 25.2581 14.7691C25.3314 14.9401 25.3688 15.1215 25.3688 15.3133C25.3688 15.5081 25.3299 15.691 25.2551 15.8605C25.1818 16.027 25.074 16.1742 24.9378 16.305L24.0848 17.1645L24.1476 17.2983C24.2165 17.447 24.2808 17.6001 24.3407 17.7547L24.3512 17.7785C24.4095 17.9332 24.4664 18.0967 24.5188 18.2662L24.5592 18.3986H25.6113C25.8058 18.3986 25.9884 18.4342 26.1605 18.5056C26.3313 18.5778 26.4859 18.6829 26.6155 18.8149L26.626 18.8253C26.7592 18.9621 26.861 19.1123 26.9298 19.2773C27.0001 19.4483 27.0361 19.6267 27.0361 19.8111V21.7485C27.0361 21.9418 27.0001 22.1217 26.9313 22.2912C26.859 22.4629 26.7538 22.6189 26.6215 22.7506C26.4928 22.877 26.3521 22.9737 26.198 23.0435L26.1561 23.0614C25.9869 23.1298 25.8044 23.164 25.6113 23.164H24.4005L24.3422 23.3142C24.2793 23.4747 24.212 23.6353 24.1401 23.7929C24.0674 23.951 23.9895 24.1067 23.9067 24.2598L23.8453 24.3713L24.6131 25.1222C24.7343 25.2501 24.8286 25.3928 24.8944 25.5474L24.9109 25.5831C24.9767 25.7511 25.0112 25.9296 25.0112 26.1169C25.0112 26.3028 24.9767 26.4797 24.9109 26.6477C24.8426 26.8172 24.7431 26.9725 24.6175 27.1057L23.2257 28.4721C23.0925 28.6119 22.9399 28.7189 22.7722 28.7903C22.5971 28.8632 22.4131 28.9018 22.217 28.9018C22.0404 28.9018 21.8728 28.8706 21.7141 28.8082L21.6648 28.7903C21.4928 28.7156 21.338 28.6068 21.2098 28.4706L20.3597 27.6246L20.2176 27.69C20.0694 27.7569 19.9093 27.8238 19.7401 27.8878C19.5755 27.9517 19.4109 28.0082 19.2478 28.0588L19.1041 28.0989V29.1412C19.1059 29.3271 19.0698 29.5115 18.9981 29.6832C18.9263 29.8549 18.8203 30.0104 18.6865 30.1404L18.6761 30.1508C18.5384 30.2831 18.3857 30.3842 18.2211 30.4511C18.0475 30.521 17.8694 30.5567 17.6838 30.5567H15.7322C15.5392 30.5567 15.3566 30.5225 15.1875 30.4541C15.0129 30.3833 14.8546 30.2781 14.722 30.1449C14.6 30.0233 14.5011 29.8807 14.4302 29.7241L14.4122 29.6839C14.3434 29.5144 14.3075 29.3345 14.3075 29.1412V27.9383L14.1578 27.8818C13.9947 27.8194 13.8346 27.751 13.6759 27.6796C13.5098 27.6038 13.3512 27.5265 13.206 27.4492L13.0937 27.3867L12.3365 28.1495C12.2093 28.2699 12.0656 28.3651 11.9099 28.4305L11.874 28.4454C11.7029 28.5122 11.5206 28.546 11.3367 28.545C11.1497 28.545 10.9716 28.5123 10.8024 28.4454C10.6309 28.3786 10.4739 28.2797 10.34 28.1539L8.95565 26.7622C8.82095 26.6254 8.71619 26.4738 8.64435 26.3072C8.57056 26.1352 8.53287 25.95 8.53361 25.763C8.53361 25.5683 8.57252 25.3854 8.64735 25.2159C8.72232 25.047 8.83131 24.8952 8.96762 24.7698L9.81918 23.9253L9.75184 23.784C9.69347 23.6517 9.63061 23.5045 9.56775 23.3409L9.55429 23.3097C9.49143 23.1506 9.43306 22.9841 9.38068 22.8146L9.34027 22.6778H8.29116C8.0966 22.6778 7.91401 22.6421 7.7419 22.5707C7.57279 22.5008 7.42163 22.3968 7.28544 22.2615L7.27646 22.2525C7.14177 22.1143 7.0415 21.9641 6.97265 21.799C6.90231 21.628 6.86789 21.4511 6.86789 21.2667V19.3279C6.86789 19.1346 6.90231 18.9532 6.97116 18.7851C7.04238 18.6134 7.14774 18.4576 7.28095 18.3272C7.42163 18.1874 7.57578 18.0848 7.74639 18.0149C7.91551 17.9466 8.09809 17.9124 8.29116 17.9124H9.5019L9.56027 17.7622C9.62248 17.6003 9.69037 17.4406 9.76381 17.2834C9.83864 17.1184 9.91646 16.9622 9.99578 16.8165L10.0601 16.702L9.31932 15.9646C9.18369 15.834 9.07581 15.6778 9.00204 15.5051C8.92867 15.3329 8.89101 15.1479 8.89129 14.9609C8.89129 14.7721 8.92871 14.5907 9.00204 14.4182C9.07599 14.2463 9.18271 14.0903 9.31633 13.9588L10.6857 12.5953C10.8234 12.4615 10.9761 12.3574 11.1437 12.286C11.3173 12.2132 11.4999 12.176 11.6914 12.176C11.8875 12.176 12.0716 12.2132 12.2437 12.289C12.4098 12.3619 12.5595 12.4674 12.6897 12.6042L13.5547 13.4502L13.6864 13.3878C13.8271 13.3239 13.9797 13.2599 14.1399 13.1975L14.1608 13.1886C14.321 13.1261 14.4886 13.0696 14.6607 13.0176L14.7984 12.9774V11.9351C14.7966 11.7492 14.8326 11.5649 14.9044 11.3932C14.9761 11.2214 15.0821 11.0659 15.2159 10.9359L15.2264 10.9255C15.3641 10.7932 15.5167 10.6936 15.6814 10.6252C15.855 10.5553 16.0331 10.5196 16.2186 10.5196H18.1702C18.3633 10.5196 18.5459 10.5538 18.715 10.6222C18.8901 10.6951 19.0442 10.7962 19.1804 10.9315C19.3166 11.0668 19.4199 11.2214 19.4902 11.3924C19.559 11.5604 19.595 11.7418 19.595 11.9351V13.138L19.7446 13.1945C19.9063 13.257 20.0694 13.3254 20.2265 13.3967C20.3927 13.4726 20.5513 13.5499 20.6965 13.6272L20.8117 13.6911L21.5555 12.9566C21.6917 12.8183 21.8473 12.7128 22.0165 12.6414C22.1916 12.5685 22.3756 12.5314 22.5657 12.5314C22.7558 12.5314 22.9384 12.567 23.112 12.6414ZM18.6341 16.592C19.1624 16.8195 19.6219 17.1243 20.0035 17.5049L20.032 17.5347C20.4031 17.9109 20.7024 18.3569 20.9239 18.8669L20.9389 18.9086C21.1529 19.4275 21.2607 19.9851 21.2607 20.5382C21.2607 21.1047 21.1484 21.6756 20.9239 22.2064V22.2109C20.698 22.7313 20.3882 23.1863 20.0035 23.5699C19.6174 23.9535 19.1595 24.2598 18.6341 24.4843L18.5922 24.5007C17.5273 24.9325 16.3334 24.9266 15.2728 24.4843H15.2683C14.743 24.2598 14.285 23.9535 13.9004 23.5714C13.5128 23.1863 13.206 22.7313 12.9785 22.2109L12.9635 22.1693C12.748 21.6489 12.6418 21.0913 12.6418 20.5382C12.6418 19.9717 12.754 19.4007 12.9785 18.8699V18.8669C13.206 18.3435 13.5143 17.8886 13.8989 17.5064C14.2805 17.1243 14.74 16.8195 15.2683 16.592L15.3102 16.5771C15.8325 16.363 16.3937 16.256 16.952 16.256C17.5222 16.256 18.0954 16.3675 18.6297 16.592H18.6341ZM19.3151 18.1889C19.0188 17.8945 18.6626 17.6566 18.2495 17.4797C17.8439 17.3087 17.3995 17.2239 16.952 17.2239C16.5135 17.2239 16.0795 17.3042 15.6814 17.4663L15.6529 17.4797C15.2399 17.6566 14.8837 17.8945 14.5873 18.1889C14.2895 18.4818 14.0516 18.8357 13.872 19.2476C13.6999 19.652 13.6146 20.0936 13.6146 20.5382C13.6146 20.9723 13.6969 21.4035 13.8585 21.8005L13.872 21.8288C14.0516 22.2406 14.2895 22.5945 14.5844 22.8874C14.8807 23.1818 15.2384 23.4197 15.6529 23.5967C16.0585 23.7677 16.503 23.8524 16.952 23.8524C17.389 23.8524 17.823 23.7721 18.2211 23.61L18.2495 23.5967C18.6641 23.4197 19.0218 23.1818 19.3151 22.8889C19.6129 22.5945 19.8509 22.2406 20.0305 21.8288C20.2011 21.4243 20.2879 20.9827 20.2879 20.5382C20.2879 20.104 20.2056 19.6728 20.0424 19.2758L20.0305 19.2476C19.8554 18.8476 19.6264 18.5012 19.342 18.2127L19.3151 18.1889ZM2.84653 64.5942H41.1415V8.13319H2.84653V64.5942ZM21.9895 67.1635C23.8588 67.1635 25.3868 68.6593 25.3868 70.5387C25.3868 72.3988 23.8827 73.9154 21.9895 73.9154C20.1203 73.9154 18.5907 72.4211 18.5907 70.5387C18.5907 68.6831 20.0963 67.1635 21.9895 67.1635Z" fill="#848484"/>
</svg>
