<svg width="57" height="49" viewBox="0 0 57 49" fill="none" xmlns="http://www.w3.org/2000/svg">
<path d="M45.1111 18.9338L56.1743 23.7302C56.8608 24.0288 57.1809 24.8313 56.884 25.5265C56.7356 25.8764 56.4526 26.133 56.1279 26.259L45.3709 30.6402L56.1743 35.3246C56.8608 35.6232 57.1809 36.4258 56.884 37.1163C56.7356 37.4662 56.4526 37.7228 56.1279 37.8488L28.9824 48.902C28.6438 49.042 28.2774 49.028 27.9619 48.902L0.848883 37.8162C0.153082 37.5315 -0.180903 36.7384 0.102056 36.0385C0.255133 35.6559 0.561285 35.3853 0.918463 35.2593L11.5735 30.6122L0.848883 26.2264C0.153082 25.9418 -0.180903 25.1486 0.102056 24.4487C0.255133 24.0661 0.561285 23.7955 0.918463 23.6695L11.8333 18.9058L0.848883 14.4173C0.153082 14.1327 -0.180903 13.3395 0.102056 12.6396C0.255133 12.257 0.561285 11.9864 0.918463 11.8604L27.8413 0.112006C28.1985 -0.0419647 28.5835 -0.0326331 28.9129 0.112006V0.10734L56.1743 11.9211C56.8608 12.2197 57.1809 13.0222 56.884 13.7127C56.7356 14.0627 56.4526 14.3193 56.1279 14.4453L45.1111 18.9338ZM52.1201 24.9479L41.5764 20.3801L28.9871 25.5032C28.6484 25.6431 28.282 25.6291 27.9666 25.5032L15.3447 20.3428L4.8567 24.9153L28.4768 34.5734L52.1201 24.9479ZM41.8362 32.0773L28.9871 37.3076C28.6484 37.4476 28.282 37.4336 27.9666 37.3076L15.085 32.0446L4.8567 36.5051L28.4768 46.1586L52.1201 36.5331L41.8362 32.0773ZM28.3748 2.84615L4.8567 13.1062L28.4768 22.7597L52.1201 13.1342L28.3748 2.84615Z" fill="#848484"/>
</svg>
